<ttFont>
    <TTGlyph name="A" xMin="20" yMin="0" xMax="463" yMax="700">
      <contour>
        <pt x="178" y="700" on="1"/>
        <pt x="311" y="700" on="1"/>
        <pt x="463" y="0" on="1"/>
        <pt x="381" y="0" on="1"/>
        <pt x="332" y="206" on="1"/>
        <pt x="150" y="206" on="1"/>
        <pt x="105" y="0" on="1"/>
        <pt x="20" y="0" on="1"/>
      </contour>
      <contour>
        <pt x="317" y="274" on="1"/>
        <pt x="245" y="634" on="1"/>
        <pt x="238" y="634" on="1"/>
        <pt x="165" y="274" on="1"/>
      </contour>
    </TTGlyph>
    <TTGlyph name="AE" xMin="20" yMin="0" xMax="605" yMax="700">
      <contour>
        <pt x="290" y="274" on="1"/>
        <pt x="290" y="634" on="1"/>
        <pt x="253" y="634" on="1"/>
        <pt x="176" y="274" on="1"/>
      </contour>
      <contour>
        <pt x="290" y="206" on="1"/>
        <pt x="160" y="206" on="1"/>
        <pt x="114" y="0" on="1"/>
        <pt x="20" y="0" on="1"/>
        <pt x="193" y="700" on="1"/>
        <pt x="595" y="700" on="1"/>
        <pt x="595" y="632" on="1"/>
        <pt x="378" y="632" on="1"/>
        <pt x="378" y="408" on="1"/>
        <pt x="554" y="408" on="1"/>
        <pt x="554" y="340" on="1"/>
        <pt x="378" y="340" on="1"/>
        <pt x="378" y="68" on="1"/>
        <pt x="605" y="68" on="1"/>
        <pt x="605" y="0" on="1"/>
        <pt x="290" y="0" on="1"/>
      </contour>
    </TTGlyph>
    <TTGlyph name="Aacute" xMin="20" yMin="0" xMax="463" yMax="868">
      <contour>
        <pt x="178" y="700" on="1"/>
        <pt x="311" y="700" on="1"/>
        <pt x="463" y="0" on="1"/>
        <pt x="381" y="0" on="1"/>
        <pt x="332" y="206" on="1"/>
        <pt x="150" y="206" on="1"/>
        <pt x="105" y="0" on="1"/>
        <pt x="20" y="0" on="1"/>
      </contour>
      <contour>
        <pt x="317" y="274" on="1"/>
        <pt x="245" y="634" on="1"/>
        <pt x="238" y="634" on="1"/>
        <pt x="165" y="274" on="1"/>
      </contour>
      <contour>
        <pt x="236" y="739" on="1"/>
        <pt x="203" y="769" on="1"/>
        <pt x="319" y="868" on="1"/>
        <pt x="370" y="821" on="1"/>
      </contour>
    </TTGlyph>
    <TTGlyph name="Acircumflex" xMin="20" yMin="0" xMax="463" yMax="868">
      <contour>
        <pt x="248" y="868" on="1"/>
        <pt x="364" y="769" on="1"/>
        <pt x="331" y="739" on="1"/>
        <pt x="248" y="790" on="1"/>
        <pt x="165" y="739" on="1"/>
        <pt x="132" y="769" on="1"/>
      </contour>
      <contour>
        <pt x="178" y="700" on="1"/>
        <pt x="311" y="700" on="1"/>
        <pt x="463" y="0" on="1"/>
        <pt x="381" y="0" on="1"/>
        <pt x="332" y="206" on="1"/>
        <pt x="150" y="206" on="1"/>
        <pt x="105" y="0" on="1"/>
        <pt x="20" y="0" on="1"/>
      </contour>
      <contour>
        <pt x="317" y="274" on="1"/>
        <pt x="245" y="634" on="1"/>
        <pt x="238" y="634" on="1"/>
        <pt x="165" y="274" on="1"/>
      </contour>
    </TTGlyph>
    <TTGlyph name="Adieresis" xMin="20" yMin="0" xMax="463" yMax="859">
      <contour>
        <pt x="178" y="700" on="1"/>
        <pt x="311" y="700" on="1"/>
        <pt x="463" y="0" on="1"/>
        <pt x="381" y="0" on="1"/>
        <pt x="332" y="206" on="1"/>
        <pt x="150" y="206" on="1"/>
        <pt x="105" y="0" on="1"/>
        <pt x="20" y="0" on="1"/>
      </contour>
      <contour>
        <pt x="317" y="274" on="1"/>
        <pt x="245" y="634" on="1"/>
        <pt x="238" y="634" on="1"/>
        <pt x="165" y="274" on="1"/>
      </contour>
      <contour>
        <pt x="127" y="778" on="1"/>
        <pt x="127" y="859" on="1"/>
        <pt x="207" y="859" on="1"/>
        <pt x="207" y="778" on="1"/>
      </contour>
      <contour>
        <pt x="272" y="778" on="1"/>
        <pt x="272" y="859" on="1"/>
        <pt x="352" y="859" on="1"/>
        <pt x="352" y="778" on="1"/>
      </contour>
    </TTGlyph>
    <TTGlyph name="Agrave" xMin="20" yMin="0" xMax="463" yMax="868">
      <contour>
        <pt x="178" y="700" on="1"/>
        <pt x="311" y="700" on="1"/>
        <pt x="463" y="0" on="1"/>
        <pt x="381" y="0" on="1"/>
        <pt x="332" y="206" on="1"/>
        <pt x="150" y="206" on="1"/>
        <pt x="105" y="0" on="1"/>
        <pt x="20" y="0" on="1"/>
      </contour>
      <contour>
        <pt x="317" y="274" on="1"/>
        <pt x="245" y="634" on="1"/>
        <pt x="238" y="634" on="1"/>
        <pt x="165" y="274" on="1"/>
      </contour>
      <contour>
        <pt x="278" y="769" on="1"/>
        <pt x="245" y="739" on="1"/>
        <pt x="111" y="821" on="1"/>
        <pt x="162" y="868" on="1"/>
      </contour>
    </TTGlyph>
    <TTGlyph name="Aring" xMin="20" yMin="0" xMax="463" yMax="892">
      <contour>
        <pt x="314" y="815" on="1"/>
        <pt x="314" y="789" on="0"/>
        <pt x="274" y="758" on="0"/>
        <pt x="213" y="758" on="0"/>
        <pt x="172" y="789" on="0"/>
        <pt x="172" y="815" on="1"/>
        <pt x="172" y="839" on="1"/>
        <pt x="172" y="864" on="0"/>
        <pt x="212" y="892" on="0"/>
        <pt x="274" y="892" on="0"/>
        <pt x="314" y="864" on="0"/>
        <pt x="314" y="839" on="1"/>
      </contour>
      <contour>
        <pt x="214" y="832" on="1"/>
        <pt x="214" y="818" on="1"/>
        <pt x="214" y="793" on="0"/>
        <pt x="272" y="793" on="0"/>
        <pt x="272" y="818" on="1"/>
        <pt x="272" y="832" on="1"/>
        <pt x="272" y="858" on="0"/>
        <pt x="214" y="858" on="0"/>
      </contour>
      <contour>
        <pt x="178" y="700" on="1"/>
        <pt x="311" y="700" on="1"/>
        <pt x="463" y="0" on="1"/>
        <pt x="381" y="0" on="1"/>
        <pt x="332" y="206" on="1"/>
        <pt x="150" y="206" on="1"/>
        <pt x="105" y="0" on="1"/>
        <pt x="20" y="0" on="1"/>
      </contour>
      <contour>
        <pt x="317" y="274" on="1"/>
        <pt x="245" y="634" on="1"/>
        <pt x="238" y="634" on="1"/>
        <pt x="165" y="274" on="1"/>
      </contour>
    </TTGlyph>
    <TTGlyph name="Atilde" xMin="20" yMin="0" xMax="463" yMax="862">
      <contour>
        <pt x="178" y="700" on="1"/>
        <pt x="311" y="700" on="1"/>
        <pt x="463" y="0" on="1"/>
        <pt x="381" y="0" on="1"/>
        <pt x="332" y="206" on="1"/>
        <pt x="150" y="206" on="1"/>
        <pt x="105" y="0" on="1"/>
        <pt x="20" y="0" on="1"/>
      </contour>
      <contour>
        <pt x="317" y="274" on="1"/>
        <pt x="245" y="634" on="1"/>
        <pt x="238" y="634" on="1"/>
        <pt x="165" y="274" on="1"/>
      </contour>
      <contour>
        <pt x="280" y="760" on="0"/>
        <pt x="190" y="793" on="0"/>
        <pt x="172" y="793" on="0"/>
        <pt x="164" y="791" on="0"/>
        <pt x="159" y="783" on="0"/>
        <pt x="158" y="778" on="0"/>
        <pt x="156" y="763" on="0"/>
        <pt x="155" y="760" on="1"/>
        <pt x="92" y="760" on="1"/>
        <pt x="93" y="805" on="0"/>
        <pt x="125" y="852" on="0"/>
        <pt x="167" y="852" on="1"/>
        <pt x="178" y="852" on="0"/>
        <pt x="268" y="819" on="0"/>
        <pt x="288" y="819" on="0"/>
        <pt x="298" y="828" on="0"/>
        <pt x="300" y="837" on="0"/>
        <pt x="303" y="858" on="0"/>
        <pt x="304" y="862" on="1"/>
        <pt x="367" y="862" on="1"/>
        <pt x="367" y="783" on="0"/>
        <pt x="333" y="768" on="1"/>
        <pt x="317" y="760" on="0"/>
      </contour>
    </TTGlyph>
    <TTGlyph name="B" xMin="73" yMin="0" xMax="453" yMax="700">
      <contour>
        <pt x="161" y="634" on="1"/>
        <pt x="161" y="407" on="1"/>
        <pt x="224" y="407" on="1"/>
        <pt x="284" y="407" on="0"/>
        <pt x="350" y="468" on="0"/>
        <pt x="350" y="526" on="1"/>
        <pt x="350" y="634" on="0"/>
        <pt x="224" y="634" on="1"/>
      </contour>
      <contour>
        <pt x="402" y="351" on="0"/>
        <pt x="453" y="267" on="0"/>
        <pt x="453" y="181" on="0"/>
        <pt x="445" y="129" on="0"/>
        <pt x="418" y="68" on="0"/>
        <pt x="394" y="48" on="1"/>
        <pt x="340" y="0" on="0"/>
        <pt x="228" y="0" on="1"/>
        <pt x="73" y="0" on="1"/>
        <pt x="73" y="700" on="1"/>
        <pt x="243" y="700" on="1"/>
        <pt x="336" y="700" on="0"/>
        <pt x="428" y="615" on="0"/>
        <pt x="428" y="524" on="1"/>
        <pt x="428" y="474" on="0"/>
        <pt x="391" y="391" on="0"/>
        <pt x="363" y="372" on="1"/>
      </contour>
      <contour>
        <pt x="223" y="66" on="1"/>
        <pt x="369" y="66" on="0"/>
        <pt x="369" y="206" on="1"/>
        <pt x="369" y="277" on="0"/>
        <pt x="283" y="339" on="0"/>
        <pt x="224" y="339" on="1"/>
        <pt x="161" y="339" on="1"/>
        <pt x="161" y="66" on="1"/>
      </contour>
    </TTGlyph>
    <TTGlyph name="C" xMin="43" yMin="0" xMax="368" yMax="700">
      <contour>
        <pt x="368" y="66" on="1"/>
        <pt x="368" y="0" on="1"/>
        <pt x="234" y="0" on="1"/>
        <pt x="143" y="0" on="0"/>
        <pt x="43" y="92" on="0"/>
        <pt x="43" y="181" on="1"/>
        <pt x="43" y="519" on="1"/>
        <pt x="43" y="608" on="0"/>
        <pt x="143" y="700" on="0"/>
        <pt x="234" y="700" on="1"/>
        <pt x="368" y="700" on="1"/>
        <pt x="368" y="634" on="1"/>
        <pt x="234" y="634" on="1"/>
        <pt x="188" y="634" on="0"/>
        <pt x="131" y="581" on="0"/>
        <pt x="131" y="537" on="1"/>
        <pt x="131" y="163" on="1"/>
        <pt x="131" y="119" on="0"/>
        <pt x="188" y="66" on="0"/>
        <pt x="234" y="66" on="1"/>
      </contour>
    </TTGlyph>
    <TTGlyph name="Ccedilla" xMin="43" yMin="-160" xMax="368" yMax="700">
      <contour>
        <pt x="340" y="-92" on="1"/>
        <pt x="340" y="-160" on="0"/>
        <pt x="262" y="-160" on="1"/>
        <pt x="155" y="-160" on="1"/>
        <pt x="155" y="-113" on="1"/>
        <pt x="235" y="-113" on="1"/>
        <pt x="280" y="-113" on="0"/>
        <pt x="280" y="-70" on="0"/>
        <pt x="246" y="-70" on="1"/>
        <pt x="194" y="-70" on="1"/>
        <pt x="215" y="11" on="1"/>
        <pt x="277" y="11" on="1"/>
        <pt x="266" y="-32" on="1"/>
        <pt x="302" y="-32" on="0"/>
        <pt x="340" y="-58" on="0"/>
      </contour>
      <contour>
        <pt x="368" y="66" on="1"/>
        <pt x="368" y="0" on="1"/>
        <pt x="234" y="0" on="1"/>
        <pt x="143" y="0" on="0"/>
        <pt x="43" y="92" on="0"/>
        <pt x="43" y="181" on="1"/>
        <pt x="43" y="519" on="1"/>
        <pt x="43" y="608" on="0"/>
        <pt x="143" y="700" on="0"/>
        <pt x="234" y="700" on="1"/>
        <pt x="368" y="700" on="1"/>
        <pt x="368" y="634" on="1"/>
        <pt x="234" y="634" on="1"/>
        <pt x="188" y="634" on="0"/>
        <pt x="131" y="581" on="0"/>
        <pt x="131" y="537" on="1"/>
        <pt x="131" y="163" on="1"/>
        <pt x="131" y="119" on="0"/>
        <pt x="188" y="66" on="0"/>
        <pt x="234" y="66" on="1"/>
      </contour>
    </TTGlyph>
    <TTGlyph name="D" xMin="72" yMin="0" xMax="437" yMax="700">
      <contour>
        <pt x="161" y="68" on="1"/>
        <pt x="246" y="68" on="1"/>
        <pt x="292" y="68" on="0"/>
        <pt x="349" y="121" on="0"/>
        <pt x="349" y="165" on="1"/>
        <pt x="349" y="535" on="1"/>
        <pt x="349" y="579" on="0"/>
        <pt x="292" y="632" on="0"/>
        <pt x="246" y="632" on="1"/>
        <pt x="161" y="632" on="1"/>
      </contour>
      <contour>
        <pt x="72" y="0" on="1"/>
        <pt x="72" y="700" on="1"/>
        <pt x="246" y="700" on="1"/>
        <pt x="337" y="700" on="0"/>
        <pt x="437" y="608" on="0"/>
        <pt x="437" y="519" on="1"/>
        <pt x="437" y="181" on="1"/>
        <pt x="437" y="92" on="0"/>
        <pt x="337" y="1" on="0"/>
        <pt x="246" y="0" on="1"/>
      </contour>
    </TTGlyph>
    <TTGlyph name="E" xMin="73" yMin="0" xMax="388" yMax="700">
      <contour>
        <pt x="73" y="0" on="1"/>
        <pt x="73" y="700" on="1"/>
        <pt x="378" y="700" on="1"/>
        <pt x="378" y="632" on="1"/>
        <pt x="161" y="632" on="1"/>
        <pt x="161" y="408" on="1"/>
        <pt x="337" y="408" on="1"/>
        <pt x="337" y="340" on="1"/>
        <pt x="161" y="340" on="1"/>
        <pt x="161" y="68" on="1"/>
        <pt x="388" y="68" on="1"/>
        <pt x="388" y="0" on="1"/>
      </contour>
    </TTGlyph>
    <TTGlyph name="Eacute" xMin="73" yMin="0" xMax="388" yMax="868">
      <contour>
        <pt x="73" y="0" on="1"/>
        <pt x="73" y="700" on="1"/>
        <pt x="378" y="700" on="1"/>
        <pt x="378" y="632" on="1"/>
        <pt x="161" y="632" on="1"/>
        <pt x="161" y="408" on="1"/>
        <pt x="337" y="408" on="1"/>
        <pt x="337" y="340" on="1"/>
        <pt x="161" y="340" on="1"/>
        <pt x="161" y="68" on="1"/>
        <pt x="388" y="68" on="1"/>
        <pt x="388" y="0" on="1"/>
      </contour>
      <contour>
        <pt x="182" y="739" on="1"/>
        <pt x="149" y="769" on="1"/>
        <pt x="265" y="868" on="1"/>
        <pt x="316" y="821" on="1"/>
      </contour>
    </TTGlyph>
    <TTGlyph name="Ecircumflex" xMin="73" yMin="0" xMax="388" yMax="868">
      <contour>
        <pt x="215" y="868" on="1"/>
        <pt x="331" y="769" on="1"/>
        <pt x="298" y="739" on="1"/>
        <pt x="215" y="790" on="1"/>
        <pt x="132" y="739" on="1"/>
        <pt x="99" y="769" on="1"/>
      </contour>
      <contour>
        <pt x="73" y="0" on="1"/>
        <pt x="73" y="700" on="1"/>
        <pt x="378" y="700" on="1"/>
        <pt x="378" y="632" on="1"/>
        <pt x="161" y="632" on="1"/>
        <pt x="161" y="408" on="1"/>
        <pt x="337" y="408" on="1"/>
        <pt x="337" y="340" on="1"/>
        <pt x="161" y="340" on="1"/>
        <pt x="161" y="68" on="1"/>
        <pt x="388" y="68" on="1"/>
        <pt x="388" y="0" on="1"/>
      </contour>
    </TTGlyph>
    <TTGlyph name="Edieresis" xMin="73" yMin="0" xMax="388" yMax="859">
      <contour>
        <pt x="73" y="0" on="1"/>
        <pt x="73" y="700" on="1"/>
        <pt x="378" y="700" on="1"/>
        <pt x="378" y="632" on="1"/>
        <pt x="161" y="632" on="1"/>
        <pt x="161" y="408" on="1"/>
        <pt x="337" y="408" on="1"/>
        <pt x="337" y="340" on="1"/>
        <pt x="161" y="340" on="1"/>
        <pt x="161" y="68" on="1"/>
        <pt x="388" y="68" on="1"/>
        <pt x="388" y="0" on="1"/>
      </contour>
      <contour>
        <pt x="103" y="778" on="1"/>
        <pt x="103" y="859" on="1"/>
        <pt x="183" y="859" on="1"/>
        <pt x="183" y="778" on="1"/>
      </contour>
      <contour>
        <pt x="248" y="778" on="1"/>
        <pt x="248" y="859" on="1"/>
        <pt x="328" y="859" on="1"/>
        <pt x="328" y="778" on="1"/>
      </contour>
    </TTGlyph>
    <TTGlyph name="Egrave" xMin="73" yMin="0" xMax="388" yMax="868">
      <contour>
        <pt x="73" y="0" on="1"/>
        <pt x="73" y="700" on="1"/>
        <pt x="378" y="700" on="1"/>
        <pt x="378" y="632" on="1"/>
        <pt x="161" y="632" on="1"/>
        <pt x="161" y="408" on="1"/>
        <pt x="337" y="408" on="1"/>
        <pt x="337" y="340" on="1"/>
        <pt x="161" y="340" on="1"/>
        <pt x="161" y="68" on="1"/>
        <pt x="388" y="68" on="1"/>
        <pt x="388" y="0" on="1"/>
      </contour>
      <contour>
        <pt x="272" y="769" on="1"/>
        <pt x="239" y="739" on="1"/>
        <pt x="105" y="821" on="1"/>
        <pt x="156" y="868" on="1"/>
      </contour>
    </TTGlyph>
    <TTGlyph name="Eth" xMin="44" yMin="0" xMax="477" yMax="700">
      <contour>
        <pt x="44" y="324" on="1"/>
        <pt x="44" y="390" on="1"/>
        <pt x="113" y="390" on="1"/>
        <pt x="113" y="700" on="1"/>
        <pt x="286" y="700" on="1"/>
        <pt x="377" y="700" on="0"/>
        <pt x="477" y="608" on="0"/>
        <pt x="477" y="519" on="1"/>
        <pt x="477" y="181" on="1"/>
        <pt x="477" y="92" on="0"/>
        <pt x="377" y="0" on="0"/>
        <pt x="286" y="0" on="1"/>
        <pt x="113" y="0" on="1"/>
        <pt x="113" y="324" on="1"/>
      </contour>
      <contour>
        <pt x="201" y="68" on="1"/>
        <pt x="286" y="68" on="1"/>
        <pt x="332" y="68" on="0"/>
        <pt x="389" y="121" on="0"/>
        <pt x="389" y="165" on="1"/>
        <pt x="389" y="535" on="1"/>
        <pt x="389" y="579" on="0"/>
        <pt x="332" y="632" on="0"/>
        <pt x="286" y="632" on="1"/>
        <pt x="201" y="632" on="1"/>
        <pt x="201" y="390" on="1"/>
        <pt x="309" y="390" on="1"/>
        <pt x="309" y="324" on="1"/>
        <pt x="201" y="324" on="1"/>
      </contour>
    </TTGlyph>
    <TTGlyph name="Euro" xMin="75" yMin="0" xMax="542" yMax="700">
      <contour>
        <pt x="227" y="245" on="1"/>
        <pt x="227" y="163" on="1"/>
        <pt x="227" y="119" on="0"/>
        <pt x="285" y="66" on="0"/>
        <pt x="331" y="66" on="1"/>
        <pt x="542" y="66" on="1"/>
        <pt x="542" y="0" on="1"/>
        <pt x="338" y="0" on="1"/>
        <pt x="247" y="0" on="0"/>
        <pt x="147" y="92" on="0"/>
        <pt x="147" y="181" on="1"/>
        <pt x="147" y="245" on="1"/>
        <pt x="76" y="245" on="1"/>
        <pt x="76" y="311" on="1"/>
        <pt x="147" y="311" on="1"/>
        <pt x="147" y="423" on="1"/>
        <pt x="75" y="423" on="1"/>
        <pt x="75" y="489" on="1"/>
        <pt x="147" y="489" on="1"/>
        <pt x="147" y="519" on="1"/>
        <pt x="147" y="608" on="0"/>
        <pt x="247" y="700" on="0"/>
        <pt x="338" y="700" on="1"/>
        <pt x="541" y="700" on="1"/>
        <pt x="541" y="634" on="1"/>
        <pt x="330" y="634" on="1"/>
        <pt x="284" y="634" on="0"/>
        <pt x="227" y="581" on="0"/>
        <pt x="227" y="537" on="1"/>
        <pt x="227" y="489" on="1"/>
        <pt x="528" y="489" on="1"/>
        <pt x="528" y="423" on="1"/>
        <pt x="227" y="423" on="1"/>
        <pt x="227" y="311" on="1"/>
        <pt x="526" y="311" on="1"/>
        <pt x="526" y="245" on="1"/>
      </contour>
    </TTGlyph>
    <TTGlyph name="F" xMin="73" yMin="0" xMax="368" yMax="700">
      <contour>
        <pt x="73" y="0" on="1"/>
        <pt x="73" y="700" on="1"/>
        <pt x="368" y="700" on="1"/>
        <pt x="368" y="632" on="1"/>
        <pt x="161" y="632" on="1"/>
        <pt x="161" y="392" on="1"/>
        <pt x="317" y="392" on="1"/>
        <pt x="317" y="324" on="1"/>
        <pt x="161" y="324" on="1"/>
        <pt x="161" y="0" on="1"/>
      </contour>
    </TTGlyph>
    <TTGlyph name="G" xMin="43" yMin="0" xMax="411" yMax="700">
      <contour>
        <pt x="411" y="0" on="1"/>
        <pt x="234" y="0" on="1"/>
        <pt x="143" y="0" on="0"/>
        <pt x="43" y="92" on="0"/>
        <pt x="43" y="181" on="1"/>
        <pt x="43" y="520" on="1"/>
        <pt x="43" y="608" on="0"/>
        <pt x="151" y="700" on="0"/>
        <pt x="244" y="700" on="1"/>
        <pt x="391" y="700" on="1"/>
        <pt x="391" y="633" on="1"/>
        <pt x="234" y="633" on="1"/>
        <pt x="188" y="633" on="0"/>
        <pt x="131" y="580" on="0"/>
        <pt x="131" y="536" on="1"/>
        <pt x="131" y="163" on="1"/>
        <pt x="131" y="118" on="0"/>
        <pt x="185" y="66" on="0"/>
        <pt x="230" y="66" on="1"/>
        <pt x="323" y="66" on="1"/>
        <pt x="323" y="341" on="1"/>
        <pt x="233" y="341" on="1"/>
        <pt x="233" y="407" on="1"/>
        <pt x="411" y="407" on="1"/>
      </contour>
    </TTGlyph>
    <TTGlyph name="H" xMin="73" yMin="0" xMax="448" yMax="700">
      <contour>
        <pt x="360" y="338" on="1"/>
        <pt x="161" y="338" on="1"/>
        <pt x="161" y="0" on="1"/>
        <pt x="73" y="0" on="1"/>
        <pt x="73" y="700" on="1"/>
        <pt x="161" y="700" on="1"/>
        <pt x="161" y="404" on="1"/>
        <pt x="360" y="404" on="1"/>
        <pt x="360" y="700" on="1"/>
        <pt x="448" y="700" on="1"/>
        <pt x="448" y="0" on="1"/>
        <pt x="360" y="0" on="1"/>
      </contour>
    </TTGlyph>
    <TTGlyph name="I" xMin="73" yMin="0" xMax="161" yMax="700">
      <contour>
        <pt x="73" y="0" on="1"/>
        <pt x="73" y="700" on="1"/>
        <pt x="161" y="700" on="1"/>
        <pt x="161" y="0" on="1"/>
      </contour>
    </TTGlyph>
    <TTGlyph name="IJ" xMin="73" yMin="0" xMax="432" yMax="700">
      <contour>
        <pt x="73" y="0" on="1"/>
        <pt x="73" y="700" on="1"/>
        <pt x="161" y="700" on="1"/>
        <pt x="161" y="0" on="1"/>
      </contour>
      <contour>
        <pt x="344" y="141" on="1"/>
        <pt x="344" y="700" on="1"/>
        <pt x="432" y="700" on="1"/>
        <pt x="432" y="137" on="1"/>
        <pt x="432" y="80" on="0"/>
        <pt x="364" y="0" on="0"/>
        <pt x="310" y="0" on="1"/>
        <pt x="254" y="0" on="1"/>
        <pt x="254" y="68" on="1"/>
        <pt x="278" y="68" on="1"/>
        <pt x="344" y="68" on="0"/>
      </contour>
    </TTGlyph>
    <TTGlyph name="Iacute" xMin="73" yMin="0" xMax="247" yMax="868">
      <contour>
        <pt x="73" y="0" on="1"/>
        <pt x="73" y="700" on="1"/>
        <pt x="161" y="700" on="1"/>
        <pt x="161" y="0" on="1"/>
      </contour>
      <contour>
        <pt x="113" y="739" on="1"/>
        <pt x="80" y="769" on="1"/>
        <pt x="196" y="868" on="1"/>
        <pt x="247" y="821" on="1"/>
      </contour>
    </TTGlyph>
    <TTGlyph name="Icircumflex" xMin="1" yMin="0" xMax="233" yMax="868">
      <contour>
        <pt x="117" y="868" on="1"/>
        <pt x="233" y="769" on="1"/>
        <pt x="200" y="739" on="1"/>
        <pt x="117" y="790" on="1"/>
        <pt x="34" y="739" on="1"/>
        <pt x="1" y="769" on="1"/>
      </contour>
      <contour>
        <pt x="73" y="0" on="1"/>
        <pt x="73" y="700" on="1"/>
        <pt x="161" y="700" on="1"/>
        <pt x="161" y="0" on="1"/>
      </contour>
    </TTGlyph>
    <TTGlyph name="Idieresis" xMin="5" yMin="0" xMax="230" yMax="859">
      <contour>
        <pt x="73" y="0" on="1"/>
        <pt x="73" y="700" on="1"/>
        <pt x="161" y="700" on="1"/>
        <pt x="161" y="0" on="1"/>
      </contour>
      <contour>
        <pt x="5" y="778" on="1"/>
        <pt x="5" y="859" on="1"/>
        <pt x="85" y="859" on="1"/>
        <pt x="85" y="778" on="1"/>
      </contour>
      <contour>
        <pt x="150" y="778" on="1"/>
        <pt x="150" y="859" on="1"/>
        <pt x="230" y="859" on="1"/>
        <pt x="230" y="778" on="1"/>
      </contour>
    </TTGlyph>
    <TTGlyph name="Igrave" xMin="-11" yMin="0" xMax="161" yMax="868">
      <contour>
        <pt x="73" y="0" on="1"/>
        <pt x="73" y="700" on="1"/>
        <pt x="161" y="700" on="1"/>
        <pt x="161" y="0" on="1"/>
      </contour>
      <contour>
        <pt x="156" y="769" on="1"/>
        <pt x="123" y="739" on="1"/>
        <pt x="-11" y="821" on="1"/>
        <pt x="40" y="868" on="1"/>
      </contour>
    </TTGlyph>
    <TTGlyph name="Itilde" xMin="-20" yMin="0" xMax="255" yMax="863">
      <contour>
        <pt x="73" y="0" on="1"/>
        <pt x="73" y="700" on="1"/>
        <pt x="161" y="700" on="1"/>
        <pt x="161" y="0" on="1"/>
      </contour>
      <contour>
        <pt x="168" y="761" on="0"/>
        <pt x="78" y="794" on="0"/>
        <pt x="60" y="794" on="0"/>
        <pt x="52" y="792" on="0"/>
        <pt x="47" y="784" on="0"/>
        <pt x="46" y="779" on="0"/>
        <pt x="44" y="764" on="0"/>
        <pt x="43" y="761" on="1"/>
        <pt x="-20" y="761" on="1"/>
        <pt x="-19" y="806" on="0"/>
        <pt x="13" y="853" on="0"/>
        <pt x="55" y="853" on="1"/>
        <pt x="66" y="853" on="0"/>
        <pt x="156" y="820" on="0"/>
        <pt x="176" y="820" on="0"/>
        <pt x="186" y="829" on="0"/>
        <pt x="188" y="838" on="0"/>
        <pt x="191" y="859" on="0"/>
        <pt x="192" y="863" on="1"/>
        <pt x="255" y="863" on="1"/>
        <pt x="255" y="784" on="0"/>
        <pt x="221" y="768" on="1"/>
        <pt x="205" y="761" on="0"/>
      </contour>
    </TTGlyph>
    <TTGlyph name="J" xMin="12" yMin="0" xMax="190" yMax="700">
      <contour>
        <pt x="102" y="141" on="1"/>
        <pt x="102" y="700" on="1"/>
        <pt x="190" y="700" on="1"/>
        <pt x="190" y="137" on="1"/>
        <pt x="190" y="80" on="0"/>
        <pt x="122" y="0" on="0"/>
        <pt x="68" y="0" on="1"/>
        <pt x="12" y="0" on="1"/>
        <pt x="12" y="68" on="1"/>
        <pt x="36" y="68" on="1"/>
        <pt x="102" y="68" on="0"/>
      </contour>
    </TTGlyph>
    <TTGlyph name="Jcircumflex" xMin="12" yMin="0" xMax="262" yMax="869">
      <contour>
        <pt x="102" y="141" on="1"/>
        <pt x="102" y="700" on="1"/>
        <pt x="190" y="700" on="1"/>
        <pt x="190" y="137" on="1"/>
        <pt x="190" y="80" on="0"/>
        <pt x="122" y="0" on="0"/>
        <pt x="68" y="0" on="1"/>
        <pt x="12" y="0" on="1"/>
        <pt x="12" y="68" on="1"/>
        <pt x="36" y="68" on="1"/>
        <pt x="102" y="68" on="0"/>
      </contour>
      <contour>
        <pt x="146" y="869" on="1"/>
        <pt x="262" y="770" on="1"/>
        <pt x="229" y="740" on="1"/>
        <pt x="146" y="791" on="1"/>
        <pt x="63" y="740" on="1"/>
        <pt x="30" y="770" on="1"/>
      </contour>
    </TTGlyph>
    <TTGlyph name="K" xMin="73" yMin="0" xMax="482" yMax="700">
      <contour>
        <pt x="158" y="0" on="1"/>
        <pt x="73" y="0" on="1"/>
        <pt x="73" y="700" on="1"/>
        <pt x="158" y="700" on="1"/>
        <pt x="158" y="394" on="1"/>
        <pt x="365" y="700" on="1"/>
        <pt x="452" y="700" on="1"/>
        <pt x="248" y="388" on="1"/>
        <pt x="482" y="0" on="1"/>
        <pt x="393" y="0" on="1"/>
        <pt x="197" y="326" on="1"/>
        <pt x="158" y="276" on="1"/>
      </contour>
    </TTGlyph>
    <TTGlyph name="L" xMin="73" yMin="0" xMax="366" yMax="700">
      <contour>
        <pt x="73" y="0" on="1"/>
        <pt x="73" y="700" on="1"/>
        <pt x="161" y="700" on="1"/>
        <pt x="161" y="66" on="1"/>
        <pt x="366" y="66" on="1"/>
        <pt x="366" y="0" on="1"/>
      </contour>
    </TTGlyph>
    <TTGlyph name="Ldotaccent" xMin="73" yMin="0" xMax="366" yMax="700">
      <contour>
        <pt x="224" y="328" on="1"/>
        <pt x="224" y="431" on="1"/>
        <pt x="304" y="431" on="1"/>
        <pt x="304" y="328" on="1"/>
      </contour>
      <contour>
        <pt x="73" y="0" on="1"/>
        <pt x="73" y="700" on="1"/>
        <pt x="161" y="700" on="1"/>
        <pt x="161" y="66" on="1"/>
        <pt x="366" y="66" on="1"/>
        <pt x="366" y="0" on="1"/>
      </contour>
    </TTGlyph>
    <TTGlyph name="Lslash" xMin="-46" yMin="0" xMax="366" yMax="700">
      <contour>
        <pt x="73" y="700" on="1"/>
        <pt x="153" y="700" on="1"/>
        <pt x="153" y="416" on="1"/>
        <pt x="257" y="440" on="1"/>
        <pt x="272" y="375" on="1"/>
        <pt x="153" y="347" on="1"/>
        <pt x="153" y="66" on="1"/>
        <pt x="366" y="66" on="1"/>
        <pt x="366" y="0" on="1"/>
        <pt x="73" y="0" on="1"/>
        <pt x="73" y="329" on="1"/>
        <pt x="-31" y="305" on="1"/>
        <pt x="-46" y="370" on="1"/>
        <pt x="73" y="397" on="1"/>
      </contour>
    </TTGlyph>
    <TTGlyph name="M" xMin="63" yMin="0" xMax="602" yMax="700">
      <contour>
        <pt x="151" y="0" on="1"/>
        <pt x="63" y="0" on="1"/>
        <pt x="63" y="700" on="1"/>
        <pt x="196" y="700" on="1"/>
        <pt x="330" y="286" on="1"/>
        <pt x="337" y="286" on="1"/>
        <pt x="474" y="700" on="1"/>
        <pt x="602" y="700" on="1"/>
        <pt x="602" y="0" on="1"/>
        <pt x="514" y="0" on="1"/>
        <pt x="514" y="595" on="1"/>
        <pt x="380" y="186" on="1"/>
        <pt x="285" y="186" on="1"/>
        <pt x="151" y="596" on="1"/>
      </contour>
    </TTGlyph>
    <TTGlyph name="N" xMin="65" yMin="0" xMax="464" yMax="700">
      <contour>
        <pt x="464" y="0" on="1"/>
        <pt x="338" y="0" on="1"/>
        <pt x="153" y="636" on="1"/>
        <pt x="153" y="0" on="1"/>
        <pt x="65" y="0" on="1"/>
        <pt x="65" y="700" on="1"/>
        <pt x="212" y="700" on="1"/>
        <pt x="375" y="95" on="1"/>
        <pt x="375" y="700" on="1"/>
        <pt x="464" y="700" on="1"/>
      </contour>
    </TTGlyph>
    <TTGlyph name="Nacute" xMin="65" yMin="0" xMax="464" yMax="869">
      <contour>
        <pt x="464" y="0" on="1"/>
        <pt x="338" y="0" on="1"/>
        <pt x="153" y="636" on="1"/>
        <pt x="153" y="0" on="1"/>
        <pt x="65" y="0" on="1"/>
        <pt x="65" y="700" on="1"/>
        <pt x="212" y="700" on="1"/>
        <pt x="375" y="95" on="1"/>
        <pt x="375" y="700" on="1"/>
        <pt x="464" y="700" on="1"/>
      </contour>
      <contour>
        <pt x="274" y="740" on="1"/>
        <pt x="241" y="770" on="1"/>
        <pt x="357" y="869" on="1"/>
        <pt x="408" y="822" on="1"/>
      </contour>
    </TTGlyph>
    <TTGlyph name="Ntilde" xMin="65" yMin="0" xMax="464" yMax="862">
      <contour>
        <pt x="328" y="760" on="0"/>
        <pt x="238" y="793" on="0"/>
        <pt x="220" y="793" on="0"/>
        <pt x="212" y="791" on="0"/>
        <pt x="207" y="783" on="0"/>
        <pt x="206" y="778" on="0"/>
        <pt x="204" y="763" on="0"/>
        <pt x="203" y="760" on="1"/>
        <pt x="140" y="760" on="1"/>
        <pt x="141" y="805" on="0"/>
        <pt x="173" y="852" on="0"/>
        <pt x="215" y="852" on="1"/>
        <pt x="226" y="852" on="0"/>
        <pt x="316" y="819" on="0"/>
        <pt x="336" y="819" on="0"/>
        <pt x="346" y="828" on="0"/>
        <pt x="348" y="837" on="0"/>
        <pt x="351" y="858" on="0"/>
        <pt x="352" y="862" on="1"/>
        <pt x="415" y="862" on="1"/>
        <pt x="415" y="783" on="0"/>
        <pt x="381" y="768" on="1"/>
        <pt x="365" y="760" on="0"/>
      </contour>
      <contour>
        <pt x="464" y="0" on="1"/>
        <pt x="338" y="0" on="1"/>
        <pt x="153" y="636" on="1"/>
        <pt x="153" y="0" on="1"/>
        <pt x="65" y="0" on="1"/>
        <pt x="65" y="700" on="1"/>
        <pt x="212" y="700" on="1"/>
        <pt x="375" y="95" on="1"/>
        <pt x="375" y="700" on="1"/>
        <pt x="464" y="700" on="1"/>
      </contour>
    </TTGlyph>
    <TTGlyph name="O" xMin="43" yMin="-7" xMax="426" yMax="707">
      <contour>
        <pt x="426" y="173" on="1"/>
        <pt x="426" y="88" on="0"/>
        <pt x="328" y="-7" on="0"/>
        <pt x="141" y="-7" on="0"/>
        <pt x="43" y="88" on="0"/>
        <pt x="43" y="173" on="1"/>
        <pt x="43" y="527" on="1"/>
        <pt x="43" y="612" on="0"/>
        <pt x="141" y="707" on="0"/>
        <pt x="328" y="707" on="0"/>
        <pt x="426" y="612" on="0"/>
        <pt x="426" y="527" on="1"/>
      </contour>
      <contour>
        <pt x="131" y="156" on="1"/>
        <pt x="131" y="110" on="0"/>
        <pt x="190" y="59" on="0"/>
        <pt x="278" y="59" on="0"/>
        <pt x="338" y="110" on="0"/>
        <pt x="338" y="156" on="1"/>
        <pt x="338" y="544" on="1"/>
        <pt x="338" y="590" on="0"/>
        <pt x="278" y="641" on="0"/>
        <pt x="190" y="641" on="0"/>
        <pt x="131" y="590" on="0"/>
        <pt x="131" y="544" on="1"/>
      </contour>
    </TTGlyph>
    <TTGlyph name="OE" xMin="43" yMin="-7" xMax="653" yMax="709">
      <contour>
        <pt x="643" y="700" on="1"/>
        <pt x="643" y="632" on="1"/>
        <pt x="426" y="632" on="1"/>
        <pt x="426" y="408" on="1"/>
        <pt x="602" y="408" on="1"/>
        <pt x="602" y="340" on="1"/>
        <pt x="426" y="340" on="1"/>
        <pt x="426" y="68" on="1"/>
        <pt x="653" y="68" on="1"/>
        <pt x="653" y="0" on="1"/>
        <pt x="338" y="0" on="1"/>
        <pt x="305" y="-7" on="0"/>
        <pt x="234" y="-7" on="1"/>
        <pt x="141" y="-7" on="0"/>
        <pt x="43" y="88" on="0"/>
        <pt x="43" y="173" on="1"/>
        <pt x="43" y="529" on="1"/>
        <pt x="43" y="614" on="0"/>
        <pt x="141" y="709" on="0"/>
        <pt x="234" y="709" on="1"/>
        <pt x="284" y="709" on="0"/>
        <pt x="338" y="700" on="1"/>
      </contour>
      <contour>
        <pt x="131" y="544" on="1"/>
        <pt x="131" y="158" on="1"/>
        <pt x="131" y="112" on="0"/>
        <pt x="190" y="61" on="0"/>
        <pt x="234" y="61" on="1"/>
        <pt x="304" y="61" on="0"/>
        <pt x="338" y="78" on="1"/>
        <pt x="338" y="624" on="1"/>
        <pt x="304" y="641" on="0"/>
        <pt x="234" y="641" on="1"/>
        <pt x="190" y="641" on="0"/>
        <pt x="131" y="590" on="0"/>
      </contour>
    </TTGlyph>
    <TTGlyph name="Oacute" xMin="43" yMin="-7" xMax="426" yMax="868">
      <contour>
        <pt x="426" y="173" on="1"/>
        <pt x="426" y="88" on="0"/>
        <pt x="328" y="-7" on="0"/>
        <pt x="141" y="-7" on="0"/>
        <pt x="43" y="88" on="0"/>
        <pt x="43" y="173" on="1"/>
        <pt x="43" y="527" on="1"/>
        <pt x="43" y="612" on="0"/>
        <pt x="141" y="707" on="0"/>
        <pt x="328" y="707" on="0"/>
        <pt x="426" y="612" on="0"/>
        <pt x="426" y="527" on="1"/>
      </contour>
      <contour>
        <pt x="131" y="156" on="1"/>
        <pt x="131" y="110" on="0"/>
        <pt x="190" y="59" on="0"/>
        <pt x="278" y="59" on="0"/>
        <pt x="338" y="110" on="0"/>
        <pt x="338" y="156" on="1"/>
        <pt x="338" y="544" on="1"/>
        <pt x="338" y="590" on="0"/>
        <pt x="278" y="641" on="0"/>
        <pt x="190" y="641" on="0"/>
        <pt x="131" y="590" on="0"/>
        <pt x="131" y="544" on="1"/>
      </contour>
      <contour>
        <pt x="222" y="739" on="1"/>
        <pt x="189" y="769" on="1"/>
        <pt x="305" y="868" on="1"/>
        <pt x="356" y="821" on="1"/>
      </contour>
    </TTGlyph>
    <TTGlyph name="Ocircumflex" xMin="43" yMin="-7" xMax="426" yMax="868">
      <contour>
        <pt x="230" y="868" on="1"/>
        <pt x="346" y="769" on="1"/>
        <pt x="313" y="739" on="1"/>
        <pt x="230" y="790" on="1"/>
        <pt x="147" y="739" on="1"/>
        <pt x="114" y="769" on="1"/>
      </contour>
      <contour>
        <pt x="426" y="173" on="1"/>
        <pt x="426" y="88" on="0"/>
        <pt x="328" y="-7" on="0"/>
        <pt x="141" y="-7" on="0"/>
        <pt x="43" y="88" on="0"/>
        <pt x="43" y="173" on="1"/>
        <pt x="43" y="527" on="1"/>
        <pt x="43" y="612" on="0"/>
        <pt x="141" y="707" on="0"/>
        <pt x="328" y="707" on="0"/>
        <pt x="426" y="612" on="0"/>
        <pt x="426" y="527" on="1"/>
      </contour>
      <contour>
        <pt x="131" y="156" on="1"/>
        <pt x="131" y="110" on="0"/>
        <pt x="190" y="59" on="0"/>
        <pt x="278" y="59" on="0"/>
        <pt x="338" y="110" on="0"/>
        <pt x="338" y="156" on="1"/>
        <pt x="338" y="544" on="1"/>
        <pt x="338" y="590" on="0"/>
        <pt x="278" y="641" on="0"/>
        <pt x="190" y="641" on="0"/>
        <pt x="131" y="590" on="0"/>
        <pt x="131" y="544" on="1"/>
      </contour>
    </TTGlyph>
    <TTGlyph name="Odieresis" xMin="43" yMin="-7" xMax="426" yMax="859">
      <contour>
        <pt x="426" y="173" on="1"/>
        <pt x="426" y="88" on="0"/>
        <pt x="328" y="-7" on="0"/>
        <pt x="141" y="-7" on="0"/>
        <pt x="43" y="88" on="0"/>
        <pt x="43" y="173" on="1"/>
        <pt x="43" y="527" on="1"/>
        <pt x="43" y="612" on="0"/>
        <pt x="141" y="707" on="0"/>
        <pt x="328" y="707" on="0"/>
        <pt x="426" y="612" on="0"/>
        <pt x="426" y="527" on="1"/>
      </contour>
      <contour>
        <pt x="131" y="156" on="1"/>
        <pt x="131" y="110" on="0"/>
        <pt x="190" y="59" on="0"/>
        <pt x="278" y="59" on="0"/>
        <pt x="338" y="110" on="0"/>
        <pt x="338" y="156" on="1"/>
        <pt x="338" y="544" on="1"/>
        <pt x="338" y="590" on="0"/>
        <pt x="278" y="641" on="0"/>
        <pt x="190" y="641" on="0"/>
        <pt x="131" y="590" on="0"/>
        <pt x="131" y="544" on="1"/>
      </contour>
      <contour>
        <pt x="118" y="778" on="1"/>
        <pt x="118" y="859" on="1"/>
        <pt x="198" y="859" on="1"/>
        <pt x="198" y="778" on="1"/>
      </contour>
      <contour>
        <pt x="263" y="778" on="1"/>
        <pt x="263" y="859" on="1"/>
        <pt x="343" y="859" on="1"/>
        <pt x="343" y="778" on="1"/>
      </contour>
    </TTGlyph>
    <TTGlyph name="Ograve" xMin="43" yMin="-7" xMax="426" yMax="868">
      <contour>
        <pt x="426" y="173" on="1"/>
        <pt x="426" y="88" on="0"/>
        <pt x="328" y="-7" on="0"/>
        <pt x="141" y="-7" on="0"/>
        <pt x="43" y="88" on="0"/>
        <pt x="43" y="173" on="1"/>
        <pt x="43" y="527" on="1"/>
        <pt x="43" y="612" on="0"/>
        <pt x="141" y="707" on="0"/>
        <pt x="328" y="707" on="0"/>
        <pt x="426" y="612" on="0"/>
        <pt x="426" y="527" on="1"/>
      </contour>
      <contour>
        <pt x="131" y="156" on="1"/>
        <pt x="131" y="110" on="0"/>
        <pt x="190" y="59" on="0"/>
        <pt x="278" y="59" on="0"/>
        <pt x="338" y="110" on="0"/>
        <pt x="338" y="156" on="1"/>
        <pt x="338" y="544" on="1"/>
        <pt x="338" y="590" on="0"/>
        <pt x="278" y="641" on="0"/>
        <pt x="190" y="641" on="0"/>
        <pt x="131" y="590" on="0"/>
        <pt x="131" y="544" on="1"/>
      </contour>
      <contour>
        <pt x="314" y="769" on="1"/>
        <pt x="281" y="739" on="1"/>
        <pt x="147" y="821" on="1"/>
        <pt x="198" y="868" on="1"/>
      </contour>
    </TTGlyph>
    <TTGlyph name="Oslash" xMin="15" yMin="-8" xMax="451" yMax="709">
      <contour>
        <pt x="426" y="173" on="1"/>
        <pt x="426" y="88" on="0"/>
        <pt x="328" y="-7" on="0"/>
        <pt x="151" y="-7" on="0"/>
        <pt x="103" y="30" on="1"/>
        <pt x="82" y="-8" on="1"/>
        <pt x="15" y="30" on="1"/>
        <pt x="54" y="101" on="1"/>
        <pt x="43" y="130" on="0"/>
        <pt x="43" y="173" on="1"/>
        <pt x="43" y="527" on="1"/>
        <pt x="43" y="612" on="0"/>
        <pt x="141" y="707" on="0"/>
        <pt x="314" y="707" on="0"/>
        <pt x="363" y="671" on="1"/>
        <pt x="384" y="709" on="1"/>
        <pt x="451" y="670" on="1"/>
        <pt x="414" y="602" on="1"/>
        <pt x="426" y="569" on="0"/>
        <pt x="426" y="527" on="1"/>
      </contour>
      <contour>
        <pt x="234" y="55" on="1"/>
        <pt x="280" y="55" on="0"/>
        <pt x="342" y="107" on="0"/>
        <pt x="342" y="156" on="1"/>
        <pt x="342" y="491" on="1"/>
        <pt x="138" y="106" on="1"/>
        <pt x="164" y="55" on="0"/>
      </contour>
      <contour>
        <pt x="127" y="544" on="1"/>
        <pt x="127" y="215" on="1"/>
        <pt x="328" y="597" on="1"/>
        <pt x="300" y="645" on="0"/>
        <pt x="234" y="645" on="1"/>
        <pt x="188" y="645" on="0"/>
        <pt x="127" y="593" on="0"/>
      </contour>
    </TTGlyph>
    <TTGlyph name="Otilde" xMin="43" yMin="-7" xMax="426" yMax="862">
      <contour>
        <pt x="426" y="173" on="1"/>
        <pt x="426" y="88" on="0"/>
        <pt x="328" y="-7" on="0"/>
        <pt x="141" y="-7" on="0"/>
        <pt x="43" y="88" on="0"/>
        <pt x="43" y="173" on="1"/>
        <pt x="43" y="527" on="1"/>
        <pt x="43" y="612" on="0"/>
        <pt x="141" y="707" on="0"/>
        <pt x="328" y="707" on="0"/>
        <pt x="426" y="612" on="0"/>
        <pt x="426" y="527" on="1"/>
      </contour>
      <contour>
        <pt x="131" y="156" on="1"/>
        <pt x="131" y="110" on="0"/>
        <pt x="190" y="59" on="0"/>
        <pt x="278" y="59" on="0"/>
        <pt x="338" y="110" on="0"/>
        <pt x="338" y="156" on="1"/>
        <pt x="338" y="544" on="1"/>
        <pt x="338" y="590" on="0"/>
        <pt x="278" y="641" on="0"/>
        <pt x="190" y="641" on="0"/>
        <pt x="131" y="590" on="0"/>
        <pt x="131" y="544" on="1"/>
      </contour>
      <contour>
        <pt x="281" y="760" on="0"/>
        <pt x="191" y="793" on="0"/>
        <pt x="173" y="793" on="0"/>
        <pt x="165" y="791" on="0"/>
        <pt x="160" y="783" on="0"/>
        <pt x="159" y="778" on="0"/>
        <pt x="157" y="763" on="0"/>
        <pt x="156" y="760" on="1"/>
        <pt x="93" y="760" on="1"/>
        <pt x="94" y="805" on="0"/>
        <pt x="126" y="852" on="0"/>
        <pt x="168" y="852" on="1"/>
        <pt x="179" y="852" on="0"/>
        <pt x="269" y="819" on="0"/>
        <pt x="289" y="819" on="0"/>
        <pt x="299" y="828" on="0"/>
        <pt x="301" y="837" on="0"/>
        <pt x="304" y="858" on="0"/>
        <pt x="305" y="862" on="1"/>
        <pt x="368" y="862" on="1"/>
        <pt x="368" y="783" on="0"/>
        <pt x="334" y="768" on="1"/>
        <pt x="318" y="760" on="0"/>
      </contour>
    </TTGlyph>
    <TTGlyph name="P" xMin="73" yMin="0" xMax="433" yMax="700">
      <contour>
        <pt x="161" y="634" on="1"/>
        <pt x="161" y="374" on="1"/>
        <pt x="225" y="374" on="1"/>
        <pt x="282" y="374" on="0"/>
        <pt x="345" y="452" on="0"/>
        <pt x="345" y="514" on="1"/>
        <pt x="345" y="634" on="0"/>
        <pt x="225" y="634" on="1"/>
      </contour>
      <contour>
        <pt x="433" y="514" on="1"/>
        <pt x="433" y="417" on="0"/>
        <pt x="328" y="308" on="0"/>
        <pt x="231" y="308" on="1"/>
        <pt x="161" y="308" on="1"/>
        <pt x="161" y="0" on="1"/>
        <pt x="73" y="0" on="1"/>
        <pt x="73" y="700" on="1"/>
        <pt x="250" y="700" on="1"/>
        <pt x="433" y="700" on="0"/>
      </contour>
    </TTGlyph>
    <TTGlyph name="Q" xMin="43" yMin="-161" xMax="410" yMax="707">
      <contour>
        <pt x="410" y="171" on="1"/>
        <pt x="410" y="13" on="0"/>
        <pt x="267" y="-6" on="1"/>
        <pt x="267" y="-26" on="1"/>
        <pt x="267" y="-69" on="0"/>
        <pt x="290" y="-98" on="0"/>
        <pt x="316" y="-98" on="1"/>
        <pt x="363" y="-98" on="1"/>
        <pt x="363" y="-161" on="1"/>
        <pt x="304" y="-161" on="1"/>
        <pt x="249" y="-161" on="0"/>
        <pt x="185" y="-95" on="0"/>
        <pt x="185" y="-39" on="1"/>
        <pt x="185" y="-6" on="1"/>
        <pt x="43" y="13" on="0"/>
        <pt x="43" y="171" on="1"/>
        <pt x="43" y="527" on="1"/>
        <pt x="43" y="613" on="0"/>
        <pt x="134" y="707" on="0"/>
        <pt x="319" y="707" on="0"/>
        <pt x="410" y="613" on="0"/>
        <pt x="410" y="527" on="1"/>
      </contour>
      <contour>
        <pt x="131" y="154" on="1"/>
        <pt x="131" y="107" on="0"/>
        <pt x="183" y="57" on="0"/>
        <pt x="269" y="57" on="0"/>
        <pt x="322" y="107" on="0"/>
        <pt x="322" y="154" on="1"/>
        <pt x="322" y="544" on="1"/>
        <pt x="322" y="591" on="0"/>
        <pt x="269" y="641" on="0"/>
        <pt x="183" y="641" on="0"/>
        <pt x="131" y="591" on="0"/>
        <pt x="131" y="544" on="1"/>
      </contour>
    </TTGlyph>
    <TTGlyph name="R" xMin="73" yMin="0" xMax="473" yMax="700">
      <contour>
        <pt x="161" y="634" on="1"/>
        <pt x="161" y="373" on="1"/>
        <pt x="232" y="373" on="1"/>
        <pt x="289" y="373" on="0"/>
        <pt x="352" y="452" on="0"/>
        <pt x="352" y="514" on="1"/>
        <pt x="352" y="634" on="0"/>
        <pt x="232" y="634" on="1"/>
      </contour>
      <contour>
        <pt x="159" y="307" on="1"/>
        <pt x="159" y="0" on="1"/>
        <pt x="73" y="0" on="1"/>
        <pt x="73" y="700" on="1"/>
        <pt x="258" y="700" on="1"/>
        <pt x="438" y="700" on="0"/>
        <pt x="438" y="514" on="1"/>
        <pt x="438" y="444" on="0"/>
        <pt x="384" y="340" on="0"/>
        <pt x="334" y="320" on="1"/>
        <pt x="473" y="0" on="1"/>
        <pt x="387" y="0" on="1"/>
        <pt x="251" y="307" on="1"/>
      </contour>
    </TTGlyph>
    <TTGlyph name="Racute" xMin="73" yMin="0" xMax="473" yMax="869">
      <contour>
        <pt x="161" y="634" on="1"/>
        <pt x="161" y="373" on="1"/>
        <pt x="232" y="373" on="1"/>
        <pt x="289" y="373" on="0"/>
        <pt x="352" y="452" on="0"/>
        <pt x="352" y="514" on="1"/>
        <pt x="352" y="634" on="0"/>
        <pt x="232" y="634" on="1"/>
      </contour>
      <contour>
        <pt x="159" y="307" on="1"/>
        <pt x="159" y="0" on="1"/>
        <pt x="73" y="0" on="1"/>
        <pt x="73" y="700" on="1"/>
        <pt x="258" y="700" on="1"/>
        <pt x="438" y="700" on="0"/>
        <pt x="438" y="514" on="1"/>
        <pt x="438" y="444" on="0"/>
        <pt x="384" y="340" on="0"/>
        <pt x="334" y="320" on="1"/>
        <pt x="473" y="0" on="1"/>
        <pt x="387" y="0" on="1"/>
        <pt x="251" y="307" on="1"/>
      </contour>
      <contour>
        <pt x="241" y="740" on="1"/>
        <pt x="208" y="770" on="1"/>
        <pt x="324" y="869" on="1"/>
        <pt x="375" y="822" on="1"/>
      </contour>
    </TTGlyph>
    <TTGlyph name="Rcaron" xMin="73" yMin="0" xMax="473" yMax="855">
      <contour>
        <pt x="161" y="634" on="1"/>
        <pt x="161" y="373" on="1"/>
        <pt x="232" y="373" on="1"/>
        <pt x="289" y="373" on="0"/>
        <pt x="352" y="452" on="0"/>
        <pt x="352" y="514" on="1"/>
        <pt x="352" y="634" on="0"/>
        <pt x="232" y="634" on="1"/>
      </contour>
      <contour>
        <pt x="159" y="307" on="1"/>
        <pt x="159" y="0" on="1"/>
        <pt x="73" y="0" on="1"/>
        <pt x="73" y="700" on="1"/>
        <pt x="258" y="700" on="1"/>
        <pt x="438" y="700" on="0"/>
        <pt x="438" y="514" on="1"/>
        <pt x="438" y="444" on="0"/>
        <pt x="384" y="340" on="0"/>
        <pt x="334" y="320" on="1"/>
        <pt x="473" y="0" on="1"/>
        <pt x="387" y="0" on="1"/>
        <pt x="251" y="307" on="1"/>
      </contour>
      <contour>
        <pt x="221" y="726" on="1"/>
        <pt x="105" y="825" on="1"/>
        <pt x="138" y="855" on="1"/>
        <pt x="221" y="804" on="1"/>
        <pt x="304" y="855" on="1"/>
        <pt x="337" y="825" on="1"/>
      </contour>
    </TTGlyph>
    <TTGlyph name="Rcommaaccent" xMin="73" yMin="-204" xMax="473" yMax="700">
      <contour>
        <pt x="210" y="-204" on="1"/>
        <pt x="210" y="-50" on="1"/>
        <pt x="282" y="-50" on="1"/>
        <pt x="277" y="-204" on="1"/>
      </contour>
      <contour>
        <pt x="161" y="634" on="1"/>
        <pt x="161" y="373" on="1"/>
        <pt x="232" y="373" on="1"/>
        <pt x="289" y="373" on="0"/>
        <pt x="352" y="452" on="0"/>
        <pt x="352" y="514" on="1"/>
        <pt x="352" y="634" on="0"/>
        <pt x="232" y="634" on="1"/>
      </contour>
      <contour>
        <pt x="159" y="307" on="1"/>
        <pt x="159" y="0" on="1"/>
        <pt x="73" y="0" on="1"/>
        <pt x="73" y="700" on="1"/>
        <pt x="258" y="700" on="1"/>
        <pt x="438" y="700" on="0"/>
        <pt x="438" y="514" on="1"/>
        <pt x="438" y="444" on="0"/>
        <pt x="384" y="340" on="0"/>
        <pt x="334" y="320" on="1"/>
        <pt x="473" y="0" on="1"/>
        <pt x="387" y="0" on="1"/>
        <pt x="251" y="307" on="1"/>
      </contour>
    </TTGlyph>
    <TTGlyph name="S" xMin="54" yMin="0" xMax="366" yMax="700">
      <contour>
        <pt x="227" y="66" on="0"/>
        <pt x="278" y="134" on="0"/>
        <pt x="278" y="224" on="0"/>
        <pt x="245" y="287" on="0"/>
        <pt x="195" y="324" on="0"/>
        <pt x="137" y="368" on="0"/>
        <pt x="87" y="409" on="0"/>
        <pt x="54" y="479" on="0"/>
        <pt x="54" y="524" on="1"/>
        <pt x="54" y="604" on="0"/>
        <pt x="150" y="700" on="0"/>
        <pt x="235" y="700" on="1"/>
        <pt x="316" y="700" on="1"/>
        <pt x="316" y="634" on="1"/>
        <pt x="239" y="634" on="1"/>
        <pt x="191" y="634" on="0"/>
        <pt x="141" y="572" on="0"/>
        <pt x="141" y="500" on="0"/>
        <pt x="174" y="448" on="0"/>
        <pt x="224" y="414" on="0"/>
        <pt x="283" y="368" on="0"/>
        <pt x="333" y="321" on="0"/>
        <pt x="366" y="241" on="0"/>
        <pt x="366" y="190" on="1"/>
        <pt x="366" y="96" on="0"/>
        <pt x="259" y="0" on="0"/>
        <pt x="166" y="0" on="1"/>
        <pt x="61" y="0" on="1"/>
        <pt x="61" y="66" on="1"/>
        <pt x="170" y="66" on="1"/>
      </contour>
    </TTGlyph>
    <TTGlyph name="T" xMin="20" yMin="0" xMax="388" yMax="700">
      <contour>
        <pt x="160" y="0" on="1"/>
        <pt x="160" y="634" on="1"/>
        <pt x="20" y="634" on="1"/>
        <pt x="20" y="700" on="1"/>
        <pt x="388" y="700" on="1"/>
        <pt x="388" y="634" on="1"/>
        <pt x="248" y="634" on="1"/>
        <pt x="248" y="0" on="1"/>
      </contour>
    </TTGlyph>
    <TTGlyph name="Thorn" xMin="73" yMin="0" xMax="433" yMax="700">
      <contour>
        <pt x="161" y="583" on="1"/>
        <pt x="271" y="583" on="1"/>
        <pt x="340" y="583" on="0"/>
        <pt x="433" y="484" on="0"/>
        <pt x="433" y="407" on="1"/>
        <pt x="433" y="290" on="1"/>
        <pt x="433" y="213" on="0"/>
        <pt x="341" y="114" on="0"/>
        <pt x="272" y="114" on="1"/>
        <pt x="161" y="114" on="1"/>
        <pt x="161" y="0" on="1"/>
        <pt x="73" y="0" on="1"/>
        <pt x="73" y="700" on="1"/>
        <pt x="161" y="700" on="1"/>
      </contour>
      <contour>
        <pt x="256" y="517" on="1"/>
        <pt x="161" y="517" on="1"/>
        <pt x="161" y="180" on="1"/>
        <pt x="256" y="180" on="1"/>
        <pt x="292" y="180" on="0"/>
        <pt x="344" y="242" on="0"/>
        <pt x="344" y="290" on="1"/>
        <pt x="344" y="407" on="1"/>
        <pt x="344" y="455" on="0"/>
        <pt x="292" y="517" on="0"/>
      </contour>
    </TTGlyph>
    <TTGlyph name="U" xMin="43" yMin="-7" xMax="398" yMax="700">
      <contour>
        <pt x="43" y="700" on="1"/>
        <pt x="131" y="700" on="1"/>
        <pt x="131" y="156" on="1"/>
        <pt x="131" y="108" on="0"/>
        <pt x="178" y="59" on="0"/>
        <pt x="262" y="59" on="0"/>
        <pt x="310" y="108" on="0"/>
        <pt x="310" y="156" on="1"/>
        <pt x="310" y="700" on="1"/>
        <pt x="398" y="700" on="1"/>
        <pt x="398" y="173" on="1"/>
        <pt x="398" y="-7" on="0"/>
        <pt x="43" y="-7" on="0"/>
        <pt x="43" y="173" on="1"/>
      </contour>
    </TTGlyph>
    <TTGlyph name="Uacute" xMin="43" yMin="-7" xMax="398" yMax="868">
      <contour>
        <pt x="43" y="700" on="1"/>
        <pt x="131" y="700" on="1"/>
        <pt x="131" y="156" on="1"/>
        <pt x="131" y="108" on="0"/>
        <pt x="178" y="59" on="0"/>
        <pt x="262" y="59" on="0"/>
        <pt x="310" y="108" on="0"/>
        <pt x="310" y="156" on="1"/>
        <pt x="310" y="700" on="1"/>
        <pt x="398" y="700" on="1"/>
        <pt x="398" y="173" on="1"/>
        <pt x="398" y="-7" on="0"/>
        <pt x="43" y="-7" on="0"/>
        <pt x="43" y="173" on="1"/>
      </contour>
      <contour>
        <pt x="203" y="739" on="1"/>
        <pt x="170" y="769" on="1"/>
        <pt x="286" y="868" on="1"/>
        <pt x="337" y="821" on="1"/>
      </contour>
    </TTGlyph>
    <TTGlyph name="Ucircumflex" xMin="43" yMin="-7" xMax="398" yMax="868">
      <contour>
        <pt x="220" y="868" on="1"/>
        <pt x="336" y="769" on="1"/>
        <pt x="303" y="739" on="1"/>
        <pt x="220" y="790" on="1"/>
        <pt x="137" y="739" on="1"/>
        <pt x="104" y="769" on="1"/>
      </contour>
      <contour>
        <pt x="131" y="700" on="1"/>
        <pt x="131" y="156" on="1"/>
        <pt x="131" y="108" on="0"/>
        <pt x="178" y="59" on="0"/>
        <pt x="262" y="59" on="0"/>
        <pt x="310" y="108" on="0"/>
        <pt x="310" y="156" on="1"/>
        <pt x="310" y="700" on="1"/>
        <pt x="398" y="700" on="1"/>
        <pt x="398" y="173" on="1"/>
        <pt x="398" y="-7" on="0"/>
        <pt x="43" y="-7" on="0"/>
        <pt x="43" y="173" on="1"/>
        <pt x="43" y="700" on="1"/>
      </contour>
    </TTGlyph>
    <TTGlyph name="Udieresis" xMin="43" yMin="-7" xMax="398" yMax="859">
      <contour>
        <pt x="131" y="700" on="1"/>
        <pt x="131" y="156" on="1"/>
        <pt x="131" y="108" on="0"/>
        <pt x="178" y="59" on="0"/>
        <pt x="262" y="59" on="0"/>
        <pt x="310" y="108" on="0"/>
        <pt x="310" y="156" on="1"/>
        <pt x="310" y="700" on="1"/>
        <pt x="398" y="700" on="1"/>
        <pt x="398" y="173" on="1"/>
        <pt x="398" y="-7" on="0"/>
        <pt x="43" y="-7" on="0"/>
        <pt x="43" y="173" on="1"/>
        <pt x="43" y="700" on="1"/>
      </contour>
      <contour>
        <pt x="108" y="778" on="1"/>
        <pt x="108" y="859" on="1"/>
        <pt x="188" y="859" on="1"/>
        <pt x="188" y="778" on="1"/>
      </contour>
      <contour>
        <pt x="253" y="778" on="1"/>
        <pt x="253" y="859" on="1"/>
        <pt x="333" y="859" on="1"/>
        <pt x="333" y="778" on="1"/>
      </contour>
    </TTGlyph>
    <TTGlyph name="Ugrave" xMin="43" yMin="-7" xMax="398" yMax="868">
      <contour>
        <pt x="131" y="700" on="1"/>
        <pt x="131" y="156" on="1"/>
        <pt x="131" y="108" on="0"/>
        <pt x="178" y="59" on="0"/>
        <pt x="262" y="59" on="0"/>
        <pt x="310" y="108" on="0"/>
        <pt x="310" y="156" on="1"/>
        <pt x="310" y="700" on="1"/>
        <pt x="398" y="700" on="1"/>
        <pt x="398" y="173" on="1"/>
        <pt x="398" y="-7" on="0"/>
        <pt x="43" y="-7" on="0"/>
        <pt x="43" y="173" on="1"/>
        <pt x="43" y="700" on="1"/>
      </contour>
      <contour>
        <pt x="263" y="769" on="1"/>
        <pt x="230" y="739" on="1"/>
        <pt x="96" y="821" on="1"/>
        <pt x="147" y="868" on="1"/>
      </contour>
    </TTGlyph>
    <TTGlyph name="V" xMin="30" yMin="0" xMax="481" yMax="700">
      <contour>
        <pt x="256" y="80" on="1"/>
        <pt x="394" y="700" on="1"/>
        <pt x="481" y="700" on="1"/>
        <pt x="316" y="0" on="1"/>
        <pt x="198" y="0" on="1"/>
        <pt x="30" y="700" on="1"/>
        <pt x="117" y="700" on="1"/>
      </contour>
    </TTGlyph>
    <TTGlyph name="W" xMin="41" yMin="0" xMax="733" yMax="700">
      <contour>
        <pt x="340" y="518" on="1"/>
        <pt x="434" y="518" on="1"/>
        <pt x="528" y="85" on="1"/>
        <pt x="646" y="700" on="1"/>
        <pt x="733" y="700" on="1"/>
        <pt x="588" y="0" on="1"/>
        <pt x="470" y="0" on="1"/>
        <pt x="388" y="419" on="1"/>
        <pt x="307" y="0" on="1"/>
        <pt x="189" y="0" on="1"/>
        <pt x="41" y="700" on="1"/>
        <pt x="128" y="700" on="1"/>
        <pt x="247" y="85" on="1"/>
      </contour>
    </TTGlyph>
    <TTGlyph name="X" xMin="30" yMin="0" xMax="445" yMax="700">
      <contour>
        <pt x="238" y="280" on="1"/>
        <pt x="118" y="0" on="1"/>
        <pt x="30" y="0" on="1"/>
        <pt x="188" y="368" on="1"/>
        <pt x="50" y="700" on="1"/>
        <pt x="138" y="700" on="1"/>
        <pt x="238" y="459" on="1"/>
        <pt x="340" y="700" on="1"/>
        <pt x="428" y="700" on="1"/>
        <pt x="283" y="368" on="1"/>
        <pt x="445" y="0" on="1"/>
        <pt x="356" y="0" on="1"/>
      </contour>
    </TTGlyph>
    <TTGlyph name="Y" xMin="-7" yMin="0" xMax="371" yMax="700">
      <contour>
        <pt x="222" y="0" on="1"/>
        <pt x="134" y="0" on="1"/>
        <pt x="134" y="278" on="1"/>
        <pt x="-7" y="700" on="1"/>
        <pt x="81" y="700" on="1"/>
        <pt x="181" y="369" on="1"/>
        <pt x="283" y="700" on="1"/>
        <pt x="371" y="700" on="1"/>
        <pt x="222" y="278" on="1"/>
      </contour>
    </TTGlyph>
    <TTGlyph name="Yacute" xMin="-7" yMin="0" xMax="371" yMax="868">
      <contour>
        <pt x="222" y="0" on="1"/>
        <pt x="134" y="0" on="1"/>
        <pt x="134" y="278" on="1"/>
        <pt x="-7" y="700" on="1"/>
        <pt x="81" y="700" on="1"/>
        <pt x="181" y="369" on="1"/>
        <pt x="283" y="700" on="1"/>
        <pt x="371" y="700" on="1"/>
        <pt x="222" y="278" on="1"/>
      </contour>
      <contour>
        <pt x="189" y="739" on="1"/>
        <pt x="156" y="769" on="1"/>
        <pt x="272" y="868" on="1"/>
        <pt x="323" y="821" on="1"/>
      </contour>
    </TTGlyph>
    <TTGlyph name="Ydieresis" xMin="-7" yMin="0" xMax="371" yMax="859">
      <contour>
        <pt x="222" y="0" on="1"/>
        <pt x="134" y="0" on="1"/>
        <pt x="134" y="278" on="1"/>
        <pt x="-7" y="700" on="1"/>
        <pt x="81" y="700" on="1"/>
        <pt x="181" y="369" on="1"/>
        <pt x="283" y="700" on="1"/>
        <pt x="371" y="700" on="1"/>
        <pt x="222" y="278" on="1"/>
      </contour>
      <contour>
        <pt x="69" y="778" on="1"/>
        <pt x="69" y="859" on="1"/>
        <pt x="149" y="859" on="1"/>
        <pt x="149" y="778" on="1"/>
      </contour>
      <contour>
        <pt x="214" y="778" on="1"/>
        <pt x="214" y="859" on="1"/>
        <pt x="294" y="859" on="1"/>
        <pt x="294" y="778" on="1"/>
      </contour>
    </TTGlyph>
    <TTGlyph name="Z" xMin="20" yMin="0" xMax="332" yMax="700">
      <contour>
        <pt x="331" y="0" on="1"/>
        <pt x="20" y="0" on="1"/>
        <pt x="20" y="66" on="1"/>
        <pt x="235" y="634" on="1"/>
        <pt x="45" y="634" on="1"/>
        <pt x="45" y="700" on="1"/>
        <pt x="332" y="700" on="1"/>
        <pt x="332" y="635" on="1"/>
        <pt x="112" y="66" on="1"/>
        <pt x="331" y="66" on="1"/>
      </contour>
    </TTGlyph>
    <TTGlyph name="a" xMin="34" yMin="0" xMax="315" yMax="520">
      <contour>
        <pt x="75" y="520" on="1"/>
        <pt x="195" y="520" on="1"/>
        <pt x="250" y="520" on="0"/>
        <pt x="315" y="455" on="0"/>
        <pt x="315" y="399" on="1"/>
        <pt x="315" y="0" on="1"/>
        <pt x="166" y="0" on="1"/>
        <pt x="111" y="0" on="0"/>
        <pt x="34" y="78" on="0"/>
        <pt x="34" y="137" on="1"/>
        <pt x="34" y="189" on="1"/>
        <pt x="34" y="236" on="0"/>
        <pt x="81" y="300" on="0"/>
        <pt x="116" y="313" on="1"/>
        <pt x="240" y="359" on="1"/>
        <pt x="240" y="406" on="1"/>
        <pt x="240" y="430" on="0"/>
        <pt x="211" y="461" on="0"/>
        <pt x="188" y="461" on="1"/>
        <pt x="75" y="461" on="1"/>
      </contour>
      <contour>
        <pt x="105" y="182" on="1"/>
        <pt x="105" y="126" on="1"/>
        <pt x="105" y="99" on="0"/>
        <pt x="145" y="61" on="0"/>
        <pt x="173" y="61" on="1"/>
        <pt x="240" y="61" on="1"/>
        <pt x="240" y="296" on="1"/>
        <pt x="152" y="263" on="1"/>
        <pt x="126" y="253" on="0"/>
        <pt x="105" y="219" on="0"/>
      </contour>
    </TTGlyph>
    <TTGlyph name="aacute" xMin="34" yMin="0" xMax="315" yMax="688">
      <contour>
        <pt x="75" y="520" on="1"/>
        <pt x="195" y="520" on="1"/>
        <pt x="250" y="520" on="0"/>
        <pt x="315" y="455" on="0"/>
        <pt x="315" y="399" on="1"/>
        <pt x="315" y="0" on="1"/>
        <pt x="166" y="0" on="1"/>
        <pt x="111" y="0" on="0"/>
        <pt x="34" y="78" on="0"/>
        <pt x="34" y="137" on="1"/>
        <pt x="34" y="189" on="1"/>
        <pt x="34" y="236" on="0"/>
        <pt x="81" y="300" on="0"/>
        <pt x="116" y="313" on="1"/>
        <pt x="240" y="359" on="1"/>
        <pt x="240" y="406" on="1"/>
        <pt x="240" y="430" on="0"/>
        <pt x="211" y="461" on="0"/>
        <pt x="188" y="461" on="1"/>
        <pt x="75" y="461" on="1"/>
      </contour>
      <contour>
        <pt x="105" y="182" on="1"/>
        <pt x="105" y="126" on="1"/>
        <pt x="105" y="99" on="0"/>
        <pt x="145" y="61" on="0"/>
        <pt x="173" y="61" on="1"/>
        <pt x="240" y="61" on="1"/>
        <pt x="240" y="296" on="1"/>
        <pt x="152" y="263" on="1"/>
        <pt x="126" y="253" on="0"/>
        <pt x="105" y="219" on="0"/>
      </contour>
      <contour>
        <pt x="156" y="559" on="1"/>
        <pt x="123" y="589" on="1"/>
        <pt x="239" y="688" on="1"/>
        <pt x="290" y="641" on="1"/>
      </contour>
    </TTGlyph>
    <TTGlyph name="acircumflex" xMin="34" yMin="0" xMax="315" yMax="701">
      <contour>
        <pt x="83" y="614" on="1"/>
        <pt x="197" y="701" on="1"/>
        <pt x="311" y="614" on="1"/>
        <pt x="262" y="576" on="1"/>
        <pt x="197" y="628" on="1"/>
        <pt x="132" y="576" on="1"/>
      </contour>
      <contour>
        <pt x="75" y="520" on="1"/>
        <pt x="195" y="520" on="1"/>
        <pt x="250" y="520" on="0"/>
        <pt x="315" y="455" on="0"/>
        <pt x="315" y="399" on="1"/>
        <pt x="315" y="0" on="1"/>
        <pt x="166" y="0" on="1"/>
        <pt x="111" y="0" on="0"/>
        <pt x="34" y="78" on="0"/>
        <pt x="34" y="137" on="1"/>
        <pt x="34" y="189" on="1"/>
        <pt x="34" y="236" on="0"/>
        <pt x="81" y="300" on="0"/>
        <pt x="116" y="313" on="1"/>
        <pt x="240" y="359" on="1"/>
        <pt x="240" y="406" on="1"/>
        <pt x="240" y="430" on="0"/>
        <pt x="211" y="461" on="0"/>
        <pt x="188" y="461" on="1"/>
        <pt x="75" y="461" on="1"/>
      </contour>
      <contour>
        <pt x="105" y="182" on="1"/>
        <pt x="105" y="126" on="1"/>
        <pt x="105" y="99" on="0"/>
        <pt x="145" y="61" on="0"/>
        <pt x="173" y="61" on="1"/>
        <pt x="240" y="61" on="1"/>
        <pt x="240" y="296" on="1"/>
        <pt x="152" y="263" on="1"/>
        <pt x="126" y="253" on="0"/>
        <pt x="105" y="219" on="0"/>
      </contour>
    </TTGlyph>
    <TTGlyph name="acute" xMin="78" yMin="559" xMax="245" yMax="688">
      <contour>
        <pt x="111" y="559" on="1"/>
        <pt x="78" y="589" on="1"/>
        <pt x="194" y="688" on="1"/>
        <pt x="245" y="641" on="1"/>
      </contour>
    </TTGlyph>
    <TTGlyph name="adieresis" xMin="34" yMin="0" xMax="315" yMax="679">
      <contour>
        <pt x="75" y="599" on="1"/>
        <pt x="75" y="679" on="1"/>
        <pt x="155" y="679" on="1"/>
        <pt x="155" y="599" on="1"/>
      </contour>
      <contour>
        <pt x="220" y="599" on="1"/>
        <pt x="220" y="679" on="1"/>
        <pt x="300" y="679" on="1"/>
        <pt x="300" y="599" on="1"/>
      </contour>
      <contour>
        <pt x="75" y="520" on="1"/>
        <pt x="195" y="520" on="1"/>
        <pt x="250" y="520" on="0"/>
        <pt x="315" y="455" on="0"/>
        <pt x="315" y="399" on="1"/>
        <pt x="315" y="0" on="1"/>
        <pt x="166" y="0" on="1"/>
        <pt x="111" y="0" on="0"/>
        <pt x="34" y="78" on="0"/>
        <pt x="34" y="137" on="1"/>
        <pt x="34" y="189" on="1"/>
        <pt x="34" y="236" on="0"/>
        <pt x="81" y="300" on="0"/>
        <pt x="116" y="313" on="1"/>
        <pt x="240" y="359" on="1"/>
        <pt x="240" y="406" on="1"/>
        <pt x="240" y="430" on="0"/>
        <pt x="211" y="461" on="0"/>
        <pt x="188" y="461" on="1"/>
        <pt x="75" y="461" on="1"/>
      </contour>
      <contour>
        <pt x="105" y="182" on="1"/>
        <pt x="105" y="126" on="1"/>
        <pt x="105" y="99" on="0"/>
        <pt x="145" y="61" on="0"/>
        <pt x="173" y="61" on="1"/>
        <pt x="240" y="61" on="1"/>
        <pt x="240" y="296" on="1"/>
        <pt x="152" y="263" on="1"/>
        <pt x="126" y="253" on="0"/>
        <pt x="105" y="219" on="0"/>
      </contour>
    </TTGlyph>
    <TTGlyph name="ae" xMin="75" yMin="0" xMax="581" yMax="520">
      <contour>
        <pt x="508" y="464" on="0"/>
        <pt x="376" y="464" on="0"/>
        <pt x="376" y="409" on="1"/>
        <pt x="376" y="269" on="1"/>
        <pt x="400" y="276" on="0"/>
        <pt x="451" y="289" on="0"/>
        <pt x="473" y="295" on="0"/>
        <pt x="497" y="303" on="0"/>
        <pt x="500" y="308" on="1"/>
        <pt x="508" y="323" on="0"/>
        <pt x="508" y="343" on="1"/>
        <pt x="508" y="409" on="1"/>
      </contour>
      <contour>
        <pt x="412" y="520" on="1"/>
        <pt x="464" y="520" on="1"/>
        <pt x="515" y="520" on="0"/>
        <pt x="581" y="462" on="0"/>
        <pt x="581" y="414" on="1"/>
        <pt x="581" y="342" on="1"/>
        <pt x="581" y="270" on="0"/>
        <pt x="494" y="246" on="1"/>
        <pt x="376" y="213" on="1"/>
        <pt x="376" y="115" on="1"/>
        <pt x="376" y="91" on="0"/>
        <pt x="405" y="60" on="0"/>
        <pt x="428" y="60" on="1"/>
        <pt x="537" y="60" on="1"/>
        <pt x="537" y="0" on="1"/>
        <pt x="422" y="0" on="1"/>
        <pt x="364" y="0" on="0"/>
        <pt x="329" y="37" on="1"/>
        <pt x="295" y="0" on="0"/>
        <pt x="235" y="0" on="1"/>
        <pt x="207" y="0" on="1"/>
        <pt x="152" y="0" on="0"/>
        <pt x="75" y="73" on="0"/>
        <pt x="75" y="127" on="1"/>
        <pt x="75" y="199" on="1"/>
        <pt x="75" y="242" on="0"/>
        <pt x="122" y="300" on="0"/>
        <pt x="157" y="313" on="1"/>
        <pt x="281" y="359" on="1"/>
        <pt x="281" y="406" on="1"/>
        <pt x="281" y="430" on="0"/>
        <pt x="252" y="461" on="0"/>
        <pt x="229" y="461" on="1"/>
        <pt x="115" y="461" on="1"/>
        <pt x="115" y="520" on="1"/>
        <pt x="235" y="520" on="1"/>
        <pt x="283" y="520" on="0"/>
        <pt x="308" y="502" on="1"/>
        <pt x="316" y="497" on="0"/>
        <pt x="330" y="484" on="1"/>
        <pt x="363" y="520" on="0"/>
      </contour>
      <contour>
        <pt x="281" y="115" on="1"/>
        <pt x="281" y="292" on="1"/>
        <pt x="195" y="259" on="1"/>
        <pt x="169" y="249" on="0"/>
        <pt x="148" y="215" on="0"/>
        <pt x="148" y="178" on="1"/>
        <pt x="148" y="126" on="1"/>
        <pt x="148" y="98" on="0"/>
        <pt x="188" y="60" on="0"/>
        <pt x="216" y="60" on="1"/>
        <pt x="229" y="60" on="1"/>
        <pt x="252" y="60" on="0"/>
        <pt x="281" y="91" on="0"/>
      </contour>
    </TTGlyph>
    <TTGlyph name="agrave" xMin="34" yMin="0" xMax="315" yMax="688">
      <contour>
        <pt x="229" y="589" on="1"/>
        <pt x="196" y="559" on="1"/>
        <pt x="62" y="641" on="1"/>
        <pt x="113" y="688" on="1"/>
      </contour>
      <contour>
        <pt x="75" y="520" on="1"/>
        <pt x="195" y="520" on="1"/>
        <pt x="250" y="520" on="0"/>
        <pt x="315" y="455" on="0"/>
        <pt x="315" y="399" on="1"/>
        <pt x="315" y="0" on="1"/>
        <pt x="166" y="0" on="1"/>
        <pt x="111" y="0" on="0"/>
        <pt x="34" y="78" on="0"/>
        <pt x="34" y="137" on="1"/>
        <pt x="34" y="189" on="1"/>
        <pt x="34" y="236" on="0"/>
        <pt x="81" y="300" on="0"/>
        <pt x="116" y="313" on="1"/>
        <pt x="240" y="359" on="1"/>
        <pt x="240" y="406" on="1"/>
        <pt x="240" y="430" on="0"/>
        <pt x="211" y="461" on="0"/>
        <pt x="188" y="461" on="1"/>
        <pt x="75" y="461" on="1"/>
      </contour>
      <contour>
        <pt x="105" y="182" on="1"/>
        <pt x="105" y="126" on="1"/>
        <pt x="105" y="99" on="0"/>
        <pt x="145" y="61" on="0"/>
        <pt x="173" y="61" on="1"/>
        <pt x="240" y="61" on="1"/>
        <pt x="240" y="296" on="1"/>
        <pt x="152" y="263" on="1"/>
        <pt x="126" y="253" on="0"/>
        <pt x="105" y="219" on="0"/>
      </contour>
    </TTGlyph>
    <TTGlyph name="ampersand" xMin="30" yMin="0" xMax="491" yMax="700">
      <contour>
        <pt x="249" y="404" on="1"/>
        <pt x="331" y="404" on="1"/>
        <pt x="331" y="519" on="1"/>
        <pt x="411" y="519" on="1"/>
        <pt x="411" y="404" on="1"/>
        <pt x="491" y="404" on="1"/>
        <pt x="491" y="344" on="1"/>
        <pt x="411" y="344" on="1"/>
        <pt x="411" y="0" on="1"/>
        <pt x="255" y="0" on="1"/>
        <pt x="95" y="0" on="0"/>
        <pt x="52" y="98" on="1"/>
        <pt x="30" y="147" on="0"/>
        <pt x="30" y="266" on="0"/>
        <pt x="89" y="350" on="0"/>
        <pt x="130" y="372" on="1"/>
        <pt x="45" y="424" on="0"/>
        <pt x="45" y="532" on="1"/>
        <pt x="45" y="616" on="0"/>
        <pt x="146" y="700" on="0"/>
        <pt x="240" y="700" on="1"/>
        <pt x="411" y="700" on="1"/>
        <pt x="411" y="640" on="1"/>
        <pt x="259" y="640" on="1"/>
        <pt x="125" y="640" on="0"/>
        <pt x="125" y="532" on="1"/>
        <pt x="125" y="472" on="0"/>
        <pt x="190" y="404" on="0"/>
      </contour>
      <contour>
        <pt x="331" y="344" on="1"/>
        <pt x="253" y="344" on="1"/>
        <pt x="195" y="344" on="0"/>
        <pt x="110" y="278" on="0"/>
        <pt x="110" y="136" on="0"/>
        <pt x="191" y="60" on="0"/>
        <pt x="264" y="60" on="1"/>
        <pt x="331" y="60" on="1"/>
      </contour>
    </TTGlyph>
    <TTGlyph name="aring" xMin="34" yMin="0" xMax="315" yMax="692">
      <contour>
        <pt x="265" y="615" on="1"/>
        <pt x="265" y="589" on="0"/>
        <pt x="225" y="558" on="0"/>
        <pt x="164" y="558" on="0"/>
        <pt x="123" y="589" on="0"/>
        <pt x="123" y="615" on="1"/>
        <pt x="123" y="639" on="1"/>
        <pt x="123" y="664" on="0"/>
        <pt x="163" y="692" on="0"/>
        <pt x="225" y="692" on="0"/>
        <pt x="265" y="664" on="0"/>
        <pt x="265" y="639" on="1"/>
      </contour>
      <contour>
        <pt x="165" y="632" on="1"/>
        <pt x="165" y="618" on="1"/>
        <pt x="165" y="593" on="0"/>
        <pt x="223" y="593" on="0"/>
        <pt x="223" y="618" on="1"/>
        <pt x="223" y="632" on="1"/>
        <pt x="223" y="658" on="0"/>
        <pt x="165" y="658" on="0"/>
      </contour>
      <contour>
        <pt x="75" y="520" on="1"/>
        <pt x="195" y="520" on="1"/>
        <pt x="250" y="520" on="0"/>
        <pt x="315" y="455" on="0"/>
        <pt x="315" y="399" on="1"/>
        <pt x="315" y="0" on="1"/>
        <pt x="166" y="0" on="1"/>
        <pt x="111" y="0" on="0"/>
        <pt x="34" y="78" on="0"/>
        <pt x="34" y="137" on="1"/>
        <pt x="34" y="189" on="1"/>
        <pt x="34" y="236" on="0"/>
        <pt x="81" y="300" on="0"/>
        <pt x="116" y="313" on="1"/>
        <pt x="240" y="359" on="1"/>
        <pt x="240" y="406" on="1"/>
        <pt x="240" y="430" on="0"/>
        <pt x="211" y="461" on="0"/>
        <pt x="188" y="461" on="1"/>
        <pt x="75" y="461" on="1"/>
      </contour>
      <contour>
        <pt x="105" y="182" on="1"/>
        <pt x="105" y="126" on="1"/>
        <pt x="105" y="99" on="0"/>
        <pt x="145" y="61" on="0"/>
        <pt x="173" y="61" on="1"/>
        <pt x="240" y="61" on="1"/>
        <pt x="240" y="296" on="1"/>
        <pt x="152" y="263" on="1"/>
        <pt x="126" y="253" on="0"/>
        <pt x="105" y="219" on="0"/>
      </contour>
    </TTGlyph>
    <TTGlyph name="asciicircum" xMin="20" yMin="400" xMax="420" yMax="700">
      <contour>
        <pt x="355" y="400" on="1"/>
        <pt x="220" y="612" on="1"/>
        <pt x="85" y="400" on="1"/>
        <pt x="20" y="440" on="1"/>
        <pt x="178" y="700" on="1"/>
        <pt x="262" y="700" on="1"/>
        <pt x="420" y="440" on="1"/>
      </contour>
    </TTGlyph>
    <TTGlyph name="asciitilde" xMin="30" yMin="284" xMax="385" yMax="396">
      <contour>
        <pt x="117" y="337" on="1"/>
        <pt x="93" y="337" on="0"/>
        <pt x="93" y="284" on="1"/>
        <pt x="30" y="284" on="1"/>
        <pt x="30" y="368" on="0"/>
        <pt x="64" y="387" on="1"/>
        <pt x="80" y="396" on="0"/>
        <pt x="120" y="396" on="0"/>
        <pt x="287" y="343" on="0"/>
        <pt x="298" y="343" on="1"/>
        <pt x="319" y="343" on="0"/>
        <pt x="322" y="396" on="1"/>
        <pt x="385" y="396" on="1"/>
        <pt x="385" y="312" on="0"/>
        <pt x="351" y="293" on="1"/>
        <pt x="335" y="284" on="0"/>
        <pt x="292" y="284" on="0"/>
        <pt x="127" y="337" on="0"/>
      </contour>
    </TTGlyph>
    <TTGlyph name="asterisk" xMin="47" yMin="339" xMax="419" yMax="697">
      <contour>
        <pt x="419" y="530" on="1"/>
        <pt x="282" y="502" on="1"/>
        <pt x="361" y="401" on="0"/>
        <pt x="372" y="387" on="1"/>
        <pt x="306" y="339" on="1"/>
        <pt x="230" y="455" on="1"/>
        <pt x="156" y="339" on="1"/>
        <pt x="89" y="383" on="1"/>
        <pt x="183" y="502" on="1"/>
        <pt x="47" y="537" on="1"/>
        <pt x="67" y="605" on="1"/>
        <pt x="198" y="568" on="1"/>
        <pt x="190" y="697" on="1"/>
        <pt x="268" y="697" on="1"/>
        <pt x="263" y="568" on="1"/>
        <pt x="393" y="605" on="1"/>
      </contour>
    </TTGlyph>
    <TTGlyph name="at" xMin="45" yMin="0" xMax="591" yMax="700">
      <contour>
        <pt x="452" y="548" on="1"/>
        <pt x="452" y="215" on="1"/>
        <pt x="486" y="220" on="0"/>
        <pt x="511" y="263" on="0"/>
        <pt x="511" y="315" on="1"/>
        <pt x="511" y="537" on="1"/>
        <pt x="511" y="634" on="0"/>
        <pt x="430" y="634" on="1"/>
        <pt x="218" y="634" on="1"/>
        <pt x="175" y="634" on="0"/>
        <pt x="125" y="584" on="0"/>
        <pt x="125" y="537" on="1"/>
        <pt x="125" y="162" on="1"/>
        <pt x="125" y="115" on="0"/>
        <pt x="175" y="66" on="0"/>
        <pt x="218" y="66" on="1"/>
        <pt x="446" y="66" on="1"/>
        <pt x="446" y="0" on="1"/>
        <pt x="226" y="0" on="1"/>
        <pt x="45" y="0" on="0"/>
        <pt x="45" y="179" on="1"/>
        <pt x="45" y="519" on="1"/>
        <pt x="45" y="700" on="0"/>
        <pt x="226" y="700" on="1"/>
        <pt x="412" y="700" on="1"/>
        <pt x="509" y="700" on="0"/>
        <pt x="591" y="612" on="0"/>
        <pt x="591" y="519" on="1"/>
        <pt x="591" y="335" on="1"/>
        <pt x="591" y="155" on="0"/>
        <pt x="429" y="155" on="1"/>
        <pt x="334" y="155" on="1"/>
        <pt x="278" y="155" on="0"/>
        <pt x="200" y="227" on="0"/>
        <pt x="200" y="281" on="1"/>
        <pt x="200" y="424" on="1"/>
        <pt x="200" y="475" on="0"/>
        <pt x="269" y="548" on="0"/>
        <pt x="336" y="548" on="1"/>
      </contour>
      <contour>
        <pt x="372" y="488" on="1"/>
        <pt x="347" y="488" on="1"/>
        <pt x="300" y="488" on="0"/>
        <pt x="289" y="460" on="1"/>
        <pt x="280" y="438" on="0"/>
        <pt x="280" y="395" on="1"/>
        <pt x="280" y="280" on="1"/>
        <pt x="280" y="253" on="0"/>
        <pt x="320" y="215" on="0"/>
        <pt x="348" y="215" on="1"/>
        <pt x="372" y="215" on="1"/>
      </contour>
    </TTGlyph>
    <TTGlyph name="atilde" xMin="34" yMin="0" xMax="332" yMax="672">
      <contour>
        <pt x="245" y="570" on="0"/>
        <pt x="135" y="603" on="0"/>
        <pt x="117" y="603" on="0"/>
        <pt x="109" y="601" on="0"/>
        <pt x="104" y="593" on="0"/>
        <pt x="103" y="588" on="0"/>
        <pt x="101" y="573" on="0"/>
        <pt x="100" y="570" on="1"/>
        <pt x="37" y="570" on="1"/>
        <pt x="38" y="615" on="0"/>
        <pt x="70" y="662" on="0"/>
        <pt x="112" y="662" on="1"/>
        <pt x="123" y="662" on="0"/>
        <pt x="233" y="629" on="0"/>
        <pt x="253" y="629" on="0"/>
        <pt x="263" y="638" on="0"/>
        <pt x="265" y="647" on="0"/>
        <pt x="268" y="668" on="0"/>
        <pt x="269" y="672" on="1"/>
        <pt x="332" y="672" on="1"/>
        <pt x="332" y="593" on="0"/>
        <pt x="298" y="578" on="1"/>
        <pt x="282" y="570" on="0"/>
      </contour>
      <contour>
        <pt x="75" y="520" on="1"/>
        <pt x="195" y="520" on="1"/>
        <pt x="250" y="520" on="0"/>
        <pt x="315" y="455" on="0"/>
        <pt x="315" y="399" on="1"/>
        <pt x="315" y="0" on="1"/>
        <pt x="166" y="0" on="1"/>
        <pt x="111" y="0" on="0"/>
        <pt x="34" y="78" on="0"/>
        <pt x="34" y="137" on="1"/>
        <pt x="34" y="189" on="1"/>
        <pt x="34" y="236" on="0"/>
        <pt x="81" y="300" on="0"/>
        <pt x="116" y="313" on="1"/>
        <pt x="240" y="359" on="1"/>
        <pt x="240" y="406" on="1"/>
        <pt x="240" y="430" on="0"/>
        <pt x="211" y="461" on="0"/>
        <pt x="188" y="461" on="1"/>
        <pt x="75" y="461" on="1"/>
      </contour>
      <contour>
        <pt x="105" y="182" on="1"/>
        <pt x="105" y="126" on="1"/>
        <pt x="105" y="99" on="0"/>
        <pt x="145" y="61" on="0"/>
        <pt x="173" y="61" on="1"/>
        <pt x="240" y="61" on="1"/>
        <pt x="240" y="296" on="1"/>
        <pt x="152" y="263" on="1"/>
        <pt x="126" y="253" on="0"/>
        <pt x="105" y="219" on="0"/>
      </contour>
    </TTGlyph>
    <TTGlyph name="b" xMin="60" yMin="0" xMax="356" yMax="700">
      <contour>
        <pt x="356" y="383" on="1"/>
        <pt x="356" y="126" on="1"/>
        <pt x="356" y="72" on="0"/>
        <pt x="280" y="0" on="0"/>
        <pt x="225" y="0" on="1"/>
        <pt x="60" y="0" on="1"/>
        <pt x="60" y="700" on="1"/>
        <pt x="140" y="700" on="1"/>
        <pt x="140" y="544" on="1"/>
        <pt x="274" y="497" on="1"/>
        <pt x="309" y="485" on="0"/>
        <pt x="356" y="426" on="0"/>
      </contour>
      <contour>
        <pt x="140" y="60" on="1"/>
        <pt x="208" y="60" on="1"/>
        <pt x="236" y="60" on="0"/>
        <pt x="276" y="98" on="0"/>
        <pt x="276" y="126" on="1"/>
        <pt x="276" y="367" on="1"/>
        <pt x="276" y="405" on="0"/>
        <pt x="255" y="440" on="0"/>
        <pt x="229" y="448" on="1"/>
        <pt x="140" y="478" on="1"/>
      </contour>
    </TTGlyph>
    <TTGlyph name="backslash" xMin="21" yMin="0" xMax="377" yMax="700">
      <contour>
        <pt x="377" y="0" on="1"/>
        <pt x="290" y="0" on="1"/>
        <pt x="21" y="700" on="1"/>
        <pt x="103" y="700" on="1"/>
      </contour>
    </TTGlyph>
    <TTGlyph name="bar" xMin="60" yMin="0" xMax="140" yMax="750">
      <contour>
        <pt x="60" y="0" on="1"/>
        <pt x="60" y="750" on="1"/>
        <pt x="140" y="750" on="1"/>
        <pt x="140" y="0" on="1"/>
      </contour>
    </TTGlyph>
    <TTGlyph name="braceleft" xMin="50" yMin="-150" xMax="289" yMax="760">
      <contour>
        <pt x="205" y="206" on="1"/>
        <pt x="205" y="-5" on="1"/>
        <pt x="205" y="-36" on="0"/>
        <pt x="253" y="-80" on="0"/>
        <pt x="289" y="-80" on="1"/>
        <pt x="289" y="-150" on="1"/>
        <pt x="220" y="-150" on="0"/>
        <pt x="125" y="-60" on="0"/>
        <pt x="125" y="5" on="1"/>
        <pt x="125" y="216" on="1"/>
        <pt x="125" y="239" on="0"/>
        <pt x="93" y="270" on="0"/>
        <pt x="70" y="270" on="1"/>
        <pt x="50" y="270" on="1"/>
        <pt x="50" y="340" on="1"/>
        <pt x="70" y="340" on="1"/>
        <pt x="93" y="340" on="0"/>
        <pt x="125" y="371" on="0"/>
        <pt x="125" y="394" on="1"/>
        <pt x="125" y="605" on="1"/>
        <pt x="125" y="670" on="0"/>
        <pt x="220" y="760" on="0"/>
        <pt x="289" y="760" on="1"/>
        <pt x="289" y="690" on="1"/>
        <pt x="253" y="690" on="0"/>
        <pt x="205" y="646" on="0"/>
        <pt x="205" y="615" on="1"/>
        <pt x="205" y="404" on="1"/>
        <pt x="205" y="346" on="0"/>
        <pt x="157" y="305" on="1"/>
        <pt x="205" y="264" on="0"/>
      </contour>
    </TTGlyph>
    <TTGlyph name="braceright" xMin="72" yMin="-150" xMax="312" yMax="760">
      <contour>
        <pt x="157" y="404" on="1"/>
        <pt x="157" y="615" on="1"/>
        <pt x="157" y="646" on="0"/>
        <pt x="108" y="690" on="0"/>
        <pt x="72" y="690" on="1"/>
        <pt x="72" y="760" on="1"/>
        <pt x="141" y="760" on="0"/>
        <pt x="237" y="670" on="0"/>
        <pt x="237" y="605" on="1"/>
        <pt x="237" y="394" on="1"/>
        <pt x="237" y="371" on="0"/>
        <pt x="269" y="340" on="0"/>
        <pt x="292" y="340" on="1"/>
        <pt x="312" y="340" on="1"/>
        <pt x="312" y="270" on="1"/>
        <pt x="292" y="270" on="1"/>
        <pt x="269" y="270" on="0"/>
        <pt x="237" y="239" on="0"/>
        <pt x="237" y="216" on="1"/>
        <pt x="237" y="5" on="1"/>
        <pt x="237" y="-60" on="0"/>
        <pt x="141" y="-150" on="0"/>
        <pt x="72" y="-150" on="1"/>
        <pt x="72" y="-80" on="1"/>
        <pt x="108" y="-80" on="0"/>
        <pt x="157" y="-36" on="0"/>
        <pt x="157" y="-5" on="1"/>
        <pt x="157" y="206" on="1"/>
        <pt x="157" y="264" on="0"/>
        <pt x="205" y="305" on="1"/>
        <pt x="157" y="346" on="0"/>
      </contour>
    </TTGlyph>
    <TTGlyph name="bracketleft" xMin="30" yMin="-140" xMax="240" yMax="750">
      <contour>
        <pt x="30" y="-140" on="1"/>
        <pt x="30" y="750" on="1"/>
        <pt x="240" y="750" on="1"/>
        <pt x="240" y="684" on="1"/>
        <pt x="110" y="684" on="1"/>
        <pt x="110" y="-74" on="1"/>
        <pt x="240" y="-74" on="1"/>
        <pt x="240" y="-140" on="1"/>
      </contour>
    </TTGlyph>
    <TTGlyph name="bracketright" xMin="30" yMin="-140" xMax="240" yMax="750">
      <contour>
        <pt x="240" y="750" on="1"/>
        <pt x="240" y="-140" on="1"/>
        <pt x="30" y="-140" on="1"/>
        <pt x="30" y="-74" on="1"/>
        <pt x="160" y="-74" on="1"/>
        <pt x="160" y="684" on="1"/>
        <pt x="30" y="684" on="1"/>
        <pt x="30" y="750" on="1"/>
      </contour>
    </TTGlyph>
    <TTGlyph name="brokenbar" xMin="60" yMin="0" xMax="140" yMax="750">
      <contour>
        <pt x="60" y="0" on="1"/>
        <pt x="60" y="300" on="1"/>
        <pt x="140" y="300" on="1"/>
        <pt x="140" y="0" on="1"/>
      </contour>
      <contour>
        <pt x="60" y="450" on="1"/>
        <pt x="60" y="750" on="1"/>
        <pt x="140" y="750" on="1"/>
        <pt x="140" y="450" on="1"/>
      </contour>
    </TTGlyph>
    <TTGlyph name="bullet" xMin="65" yMin="210" xMax="283" yMax="428">
      <contour>
        <pt x="65" y="274" on="0"/>
        <pt x="65" y="364" on="0"/>
        <pt x="129" y="428" on="0"/>
        <pt x="219" y="428" on="0"/>
        <pt x="283" y="364" on="0"/>
        <pt x="283" y="274" on="0"/>
        <pt x="219" y="210" on="0"/>
        <pt x="129" y="210" on="0"/>
      </contour>
    </TTGlyph>
    <TTGlyph name="c" xMin="50" yMin="0" xMax="290" yMax="520">
      <contour>
        <pt x="290" y="520" on="1"/>
        <pt x="290" y="460" on="1"/>
        <pt x="181" y="460" on="1"/>
        <pt x="158" y="460" on="0"/>
        <pt x="130" y="429" on="0"/>
        <pt x="130" y="405" on="1"/>
        <pt x="130" y="115" on="1"/>
        <pt x="130" y="91" on="0"/>
        <pt x="159" y="60" on="0"/>
        <pt x="182" y="60" on="1"/>
        <pt x="290" y="60" on="1"/>
        <pt x="290" y="0" on="1"/>
        <pt x="170" y="0" on="1"/>
        <pt x="115" y="0" on="0"/>
        <pt x="50" y="66" on="0"/>
        <pt x="50" y="122" on="1"/>
        <pt x="50" y="388" on="1"/>
        <pt x="50" y="451" on="0"/>
        <pt x="116" y="520" on="0"/>
        <pt x="179" y="520" on="1"/>
      </contour>
    </TTGlyph>
    <TTGlyph name="caron" xMin="78" yMin="545" xMax="310" yMax="674">
      <contour>
        <pt x="194" y="545" on="1"/>
        <pt x="78" y="644" on="1"/>
        <pt x="111" y="674" on="1"/>
        <pt x="194" y="623" on="1"/>
        <pt x="277" y="674" on="1"/>
        <pt x="310" y="644" on="1"/>
      </contour>
    </TTGlyph>
    <TTGlyph name="ccedilla" xMin="50" yMin="-160" xMax="295" yMax="520">
      <contour>
        <pt x="290" y="520" on="1"/>
        <pt x="290" y="460" on="1"/>
        <pt x="181" y="460" on="1"/>
        <pt x="158" y="460" on="0"/>
        <pt x="130" y="429" on="0"/>
        <pt x="130" y="405" on="1"/>
        <pt x="130" y="115" on="1"/>
        <pt x="130" y="91" on="0"/>
        <pt x="159" y="60" on="0"/>
        <pt x="182" y="60" on="1"/>
        <pt x="290" y="60" on="1"/>
        <pt x="290" y="0" on="1"/>
        <pt x="170" y="0" on="1"/>
        <pt x="115" y="0" on="0"/>
        <pt x="50" y="66" on="0"/>
        <pt x="50" y="122" on="1"/>
        <pt x="50" y="388" on="1"/>
        <pt x="50" y="451" on="0"/>
        <pt x="116" y="520" on="0"/>
        <pt x="179" y="520" on="1"/>
      </contour>
      <contour>
        <pt x="295" y="-92" on="1"/>
        <pt x="295" y="-160" on="0"/>
        <pt x="217" y="-160" on="1"/>
        <pt x="110" y="-160" on="1"/>
        <pt x="110" y="-113" on="1"/>
        <pt x="190" y="-113" on="1"/>
        <pt x="235" y="-113" on="0"/>
        <pt x="235" y="-70" on="0"/>
        <pt x="201" y="-70" on="1"/>
        <pt x="149" y="-70" on="1"/>
        <pt x="166" y="0" on="1"/>
        <pt x="228" y="0" on="1"/>
        <pt x="221" y="-32" on="1"/>
        <pt x="257" y="-32" on="0"/>
        <pt x="295" y="-58" on="0"/>
      </contour>
      <contour>
        <pt x="290" y="520" on="1"/>
        <pt x="179" y="520" on="1"/>
        <pt x="116" y="520" on="0"/>
        <pt x="50" y="451" on="0"/>
        <pt x="50" y="388" on="1"/>
        <pt x="50" y="122" on="1"/>
        <pt x="50" y="66" on="0"/>
        <pt x="115" y="0" on="0"/>
        <pt x="170" y="0" on="1"/>
        <pt x="290" y="0" on="1"/>
        <pt x="290" y="60" on="1"/>
        <pt x="182" y="60" on="1"/>
        <pt x="159" y="60" on="0"/>
        <pt x="130" y="91" on="0"/>
        <pt x="130" y="115" on="1"/>
        <pt x="130" y="405" on="1"/>
        <pt x="130" y="429" on="0"/>
        <pt x="158" y="460" on="0"/>
        <pt x="181" y="460" on="1"/>
        <pt x="290" y="460" on="1"/>
      </contour>
    </TTGlyph>
    <TTGlyph name="cedilla" xMin="90" yMin="-160" xMax="275" yMax="0">
      <contour>
        <pt x="275" y="-92" on="1"/>
        <pt x="275" y="-160" on="0"/>
        <pt x="197" y="-160" on="1"/>
        <pt x="90" y="-160" on="1"/>
        <pt x="90" y="-113" on="1"/>
        <pt x="170" y="-113" on="1"/>
        <pt x="215" y="-113" on="0"/>
        <pt x="215" y="-70" on="0"/>
        <pt x="181" y="-70" on="1"/>
        <pt x="129" y="-70" on="1"/>
        <pt x="146" y="0" on="1"/>
        <pt x="208" y="0" on="1"/>
        <pt x="201" y="-32" on="1"/>
        <pt x="237" y="-32" on="0"/>
        <pt x="275" y="-58" on="0"/>
      </contour>
    </TTGlyph>
    <TTGlyph name="cent" xMin="40" yMin="0" xMax="378" yMax="700">
      <contour>
        <pt x="277" y="148" on="1"/>
        <pt x="277" y="0" on="1"/>
        <pt x="197" y="0" on="1"/>
        <pt x="197" y="148" on="1"/>
        <pt x="160" y="148" on="1"/>
        <pt x="105" y="148" on="0"/>
        <pt x="40" y="214" on="0"/>
        <pt x="40" y="270" on="1"/>
        <pt x="40" y="436" on="1"/>
        <pt x="40" y="499" on="0"/>
        <pt x="106" y="568" on="0"/>
        <pt x="169" y="568" on="1"/>
        <pt x="197" y="568" on="1"/>
        <pt x="197" y="700" on="1"/>
        <pt x="277" y="700" on="1"/>
        <pt x="277" y="568" on="1"/>
        <pt x="378" y="568" on="1"/>
        <pt x="378" y="508" on="1"/>
        <pt x="277" y="508" on="1"/>
        <pt x="277" y="208" on="1"/>
        <pt x="378" y="208" on="1"/>
        <pt x="378" y="148" on="1"/>
      </contour>
      <contour>
        <pt x="197" y="208" on="1"/>
        <pt x="197" y="508" on="1"/>
        <pt x="171" y="508" on="1"/>
        <pt x="148" y="508" on="0"/>
        <pt x="120" y="477" on="0"/>
        <pt x="120" y="453" on="1"/>
        <pt x="120" y="263" on="1"/>
        <pt x="120" y="239" on="0"/>
        <pt x="149" y="208" on="0"/>
        <pt x="172" y="208" on="1"/>
      </contour>
    </TTGlyph>
    <TTGlyph name="circumflex" xMin="78" yMin="559" xMax="310" yMax="688">
      <contour>
        <pt x="194" y="688" on="1"/>
        <pt x="310" y="589" on="1"/>
        <pt x="277" y="559" on="1"/>
        <pt x="194" y="610" on="1"/>
        <pt x="111" y="559" on="1"/>
        <pt x="78" y="589" on="1"/>
      </contour>
    </TTGlyph>
    <TTGlyph name="colon" xMin="41" yMin="0" xMax="121" yMax="519">
      <contour>
        <pt x="41" y="0" on="1"/>
        <pt x="41" y="103" on="1"/>
        <pt x="121" y="103" on="1"/>
        <pt x="121" y="0" on="1"/>
      </contour>
      <contour>
        <pt x="41" y="416" on="1"/>
        <pt x="41" y="519" on="1"/>
        <pt x="121" y="519" on="1"/>
        <pt x="121" y="416" on="1"/>
      </contour>
    </TTGlyph>
    <TTGlyph name="comma" xMin="-1" yMin="-123" xMax="122" yMax="103">
      <contour>
        <pt x="42" y="103" on="1"/>
        <pt x="122" y="103" on="1"/>
        <pt x="122" y="1" on="1"/>
        <pt x="61" y="-123" on="1"/>
        <pt x="-1" y="-123" on="1"/>
        <pt x="42" y="0" on="1"/>
      </contour>
    </TTGlyph>
    <TTGlyph name="copyright" xMin="45" yMin="-7" xMax="599" yMax="707">
      <contour>
        <pt x="599" y="137" on="1"/>
        <pt x="599" y="89" on="0"/>
        <pt x="496" y="20" on="0"/>
        <pt x="376" y="-7" on="0"/>
        <pt x="268" y="-7" on="0"/>
        <pt x="148" y="20" on="0"/>
        <pt x="45" y="89" on="0"/>
        <pt x="45" y="137" on="1"/>
        <pt x="45" y="573" on="1"/>
        <pt x="45" y="609" on="0"/>
        <pt x="104" y="665" on="0"/>
        <pt x="194" y="693" on="0"/>
        <pt x="282" y="707" on="0"/>
        <pt x="362" y="707" on="0"/>
        <pt x="450" y="693" on="0"/>
        <pt x="540" y="665" on="0"/>
        <pt x="599" y="609" on="0"/>
        <pt x="599" y="573" on="1"/>
      </contour>
      <contour>
        <pt x="125" y="554" on="1"/>
        <pt x="125" y="138" on="1"/>
        <pt x="125" y="114" on="0"/>
        <pt x="173" y="80" on="0"/>
        <pt x="244" y="65" on="0"/>
        <pt x="300" y="59" on="0"/>
        <pt x="342" y="59" on="0"/>
        <pt x="398" y="65" on="0"/>
        <pt x="471" y="80" on="0"/>
        <pt x="519" y="114" on="0"/>
        <pt x="519" y="138" on="1"/>
        <pt x="519" y="574" on="1"/>
        <pt x="519" y="605" on="0"/>
        <pt x="375" y="635" on="0"/>
        <pt x="301" y="635" on="0"/>
        <pt x="244" y="628" on="0"/>
        <pt x="173" y="612" on="0"/>
        <pt x="125" y="578" on="0"/>
      </contour>
      <contour>
        <pt x="432" y="492" on="1"/>
        <pt x="317" y="492" on="1"/>
        <pt x="294" y="492" on="0"/>
        <pt x="266" y="461" on="0"/>
        <pt x="266" y="437" on="1"/>
        <pt x="266" y="260" on="1"/>
        <pt x="266" y="236" on="0"/>
        <pt x="295" y="205" on="0"/>
        <pt x="318" y="205" on="1"/>
        <pt x="432" y="205" on="1"/>
        <pt x="432" y="151" on="1"/>
        <pt x="318" y="151" on="1"/>
        <pt x="263" y="151" on="0"/>
        <pt x="198" y="217" on="0"/>
        <pt x="198" y="273" on="1"/>
        <pt x="198" y="414" on="1"/>
        <pt x="198" y="477" on="0"/>
        <pt x="264" y="546" on="0"/>
        <pt x="327" y="546" on="1"/>
        <pt x="432" y="546" on="1"/>
      </contour>
    </TTGlyph>
    <TTGlyph name="cruz1" xMin="52" yMin="0" xMax="552" yMax="759">
      <contour>
        <pt x="346" y="520" on="1"/>
        <pt x="493" y="520" on="1"/>
        <pt x="552" y="483" on="1"/>
        <pt x="493" y="445" on="1"/>
        <pt x="346" y="445" on="1"/>
        <pt x="346" y="0" on="1"/>
        <pt x="266" y="0" on="1"/>
        <pt x="266" y="445" on="1"/>
        <pt x="111" y="445" on="1"/>
        <pt x="52" y="483" on="1"/>
        <pt x="111" y="520" on="1"/>
        <pt x="266" y="520" on="1"/>
        <pt x="266" y="700" on="1"/>
        <pt x="306" y="759" on="1"/>
        <pt x="346" y="700" on="1"/>
      </contour>
    </TTGlyph>
    <TTGlyph name="currency" xMin="87" yMin="40" xMax="561" yMax="559">
      <contour>
        <pt x="146" y="207" on="1"/>
        <pt x="146" y="384" on="1"/>
        <pt x="146" y="412" on="0"/>
        <pt x="158" y="434" on="1"/>
        <pt x="89" y="513" on="1"/>
        <pt x="140" y="555" on="1"/>
        <pt x="203" y="485" on="1"/>
        <pt x="253" y="518" on="0"/>
        <pt x="390" y="518" on="0"/>
        <pt x="441" y="486" on="1"/>
        <pt x="506" y="559" on="1"/>
        <pt x="556" y="515" on="1"/>
        <pt x="487" y="436" on="1"/>
        <pt x="500" y="412" on="0"/>
        <pt x="500" y="384" on="1"/>
        <pt x="500" y="207" on="1"/>
        <pt x="500" y="184" on="0"/>
        <pt x="491" y="163" on="1"/>
        <pt x="561" y="87" on="1"/>
        <pt x="506" y="40" on="1"/>
        <pt x="446" y="108" on="1"/>
        <pt x="396" y="73" on="0"/>
        <pt x="249" y="73" on="0"/>
        <pt x="199" y="109" on="1"/>
        <pt x="141" y="44" on="1"/>
        <pt x="87" y="93" on="1"/>
        <pt x="153" y="166" on="1"/>
        <pt x="146" y="183" on="0"/>
      </contour>
      <contour>
        <pt x="226" y="211" on="1"/>
        <pt x="226" y="178" on="0"/>
        <pt x="288" y="139" on="0"/>
        <pt x="358" y="139" on="0"/>
        <pt x="420" y="178" on="0"/>
        <pt x="420" y="211" on="1"/>
        <pt x="420" y="380" on="1"/>
        <pt x="420" y="413" on="0"/>
        <pt x="358" y="452" on="0"/>
        <pt x="288" y="452" on="0"/>
        <pt x="226" y="413" on="0"/>
        <pt x="226" y="380" on="1"/>
      </contour>
    </TTGlyph>
    <TTGlyph name="d" xMin="51" yMin="0" xMax="347" yMax="700">
      <contour>
        <pt x="267" y="700" on="1"/>
        <pt x="347" y="700" on="1"/>
        <pt x="347" y="0" on="1"/>
        <pt x="192" y="0" on="1"/>
        <pt x="129" y="0" on="0"/>
        <pt x="51" y="74" on="0"/>
        <pt x="51" y="136" on="1"/>
        <pt x="51" y="385" on="1"/>
        <pt x="51" y="428" on="0"/>
        <pt x="98" y="488" on="0"/>
        <pt x="133" y="499" on="1"/>
        <pt x="267" y="546" on="1"/>
      </contour>
      <contour>
        <pt x="267" y="60" on="1"/>
        <pt x="267" y="480" on="1"/>
        <pt x="178" y="450" on="1"/>
        <pt x="152" y="442" on="0"/>
        <pt x="131" y="407" on="0"/>
        <pt x="131" y="369" on="1"/>
        <pt x="131" y="136" on="1"/>
        <pt x="131" y="100" on="0"/>
        <pt x="173" y="60" on="0"/>
        <pt x="209" y="60" on="1"/>
      </contour>
    </TTGlyph>
    <TTGlyph name="dagger" xMin="50" yMin="0" xMax="470" yMax="700">
      <contour>
        <pt x="300" y="512" on="1"/>
        <pt x="470" y="522" on="1"/>
        <pt x="470" y="437" on="1"/>
        <pt x="300" y="447" on="1"/>
        <pt x="315" y="0" on="1"/>
        <pt x="207" y="0" on="1"/>
        <pt x="222" y="447" on="1"/>
        <pt x="50" y="437" on="1"/>
        <pt x="50" y="522" on="1"/>
        <pt x="222" y="512" on="1"/>
        <pt x="212" y="700" on="1"/>
        <pt x="310" y="700" on="1"/>
      </contour>
    </TTGlyph>
    <TTGlyph name="degree" xMin="98" yMin="380" xMax="318" yMax="707">
      <contour>
        <pt x="318" y="455" on="1"/>
        <pt x="318" y="419" on="0"/>
        <pt x="253" y="380" on="0"/>
        <pt x="163" y="380" on="0"/>
        <pt x="98" y="419" on="0"/>
        <pt x="98" y="455" on="1"/>
        <pt x="98" y="638" on="1"/>
        <pt x="98" y="673" on="0"/>
        <pt x="161" y="707" on="0"/>
        <pt x="255" y="707" on="0"/>
        <pt x="318" y="673" on="0"/>
        <pt x="318" y="638" on="1"/>
      </contour>
      <contour>
        <pt x="151" y="628" on="1"/>
        <pt x="151" y="458" on="1"/>
        <pt x="151" y="423" on="0"/>
        <pt x="265" y="423" on="0"/>
        <pt x="265" y="458" on="1"/>
        <pt x="265" y="628" on="1"/>
        <pt x="265" y="664" on="0"/>
        <pt x="151" y="664" on="0"/>
      </contour>
    </TTGlyph>
    <TTGlyph name="dieresis" xMin="65" yMin="598" xMax="290" yMax="679">
      <contour>
        <pt x="65" y="598" on="1"/>
        <pt x="65" y="679" on="1"/>
        <pt x="145" y="679" on="1"/>
        <pt x="145" y="598" on="1"/>
      </contour>
      <contour>
        <pt x="210" y="598" on="1"/>
        <pt x="210" y="679" on="1"/>
        <pt x="290" y="679" on="1"/>
        <pt x="290" y="598" on="1"/>
      </contour>
    </TTGlyph>
    <TTGlyph name="divide" xMin="30" yMin="102" xMax="430" yMax="562">
      <contour>
        <pt x="30" y="306" on="1"/>
        <pt x="30" y="372" on="1"/>
        <pt x="430" y="372" on="1"/>
        <pt x="430" y="306" on="1"/>
      </contour>
      <contour>
        <pt x="191" y="482" on="1"/>
        <pt x="191" y="562" on="1"/>
        <pt x="271" y="562" on="1"/>
        <pt x="271" y="482" on="1"/>
      </contour>
      <contour>
        <pt x="191" y="102" on="1"/>
        <pt x="191" y="182" on="1"/>
        <pt x="271" y="182" on="1"/>
        <pt x="271" y="102" on="1"/>
      </contour>
    </TTGlyph>
    <TTGlyph name="dollar" xMin="163" yMin="0" xMax="475" yMax="700">
      <contour>
        <pt x="336" y="156" on="0"/>
        <pt x="387" y="201" on="0"/>
        <pt x="387" y="257" on="0"/>
        <pt x="354" y="296" on="0"/>
        <pt x="304" y="318" on="0"/>
        <pt x="246" y="347" on="0"/>
        <pt x="196" y="378" on="0"/>
        <pt x="163" y="434" on="0"/>
        <pt x="163" y="523" on="0"/>
        <pt x="226" y="592" on="0"/>
        <pt x="284" y="604" on="1"/>
        <pt x="284" y="700" on="1"/>
        <pt x="364" y="700" on="1"/>
        <pt x="364" y="610" on="1"/>
        <pt x="425" y="610" on="1"/>
        <pt x="425" y="544" on="1"/>
        <pt x="348" y="544" on="1"/>
        <pt x="300" y="544" on="0"/>
        <pt x="250" y="507" on="0"/>
        <pt x="250" y="457" on="0"/>
        <pt x="296" y="415" on="0"/>
        <pt x="362" y="386" on="0"/>
        <pt x="429" y="350" on="0"/>
        <pt x="475" y="286" on="0"/>
        <pt x="475" y="241" on="1"/>
        <pt x="475" y="133" on="0"/>
        <pt x="364" y="101" on="1"/>
        <pt x="364" y="0" on="1"/>
        <pt x="284" y="0" on="1"/>
        <pt x="284" y="90" on="1"/>
        <pt x="170" y="90" on="1"/>
        <pt x="170" y="156" on="1"/>
        <pt x="279" y="156" on="1"/>
      </contour>
    </TTGlyph>
    <TTGlyph name="dotaccentcmb" xMin="279" yMin="525" xMax="359" yMax="628">
      <contour>
        <pt x="279" y="525" on="1"/>
        <pt x="279" y="628" on="1"/>
        <pt x="359" y="628" on="1"/>
        <pt x="359" y="525" on="1"/>
      </contour>
    </TTGlyph>
    <TTGlyph name="dotlessi" xMin="60" yMin="0" xMax="140" yMax="520">
      <contour>
        <pt x="60" y="0" on="1"/>
        <pt x="60" y="520" on="1"/>
        <pt x="140" y="520" on="1"/>
        <pt x="140" y="0" on="1"/>
      </contour>
    </TTGlyph>
    <TTGlyph name="e" xMin="44" yMin="0" xMax="329" yMax="527">
      <contour>
        <pt x="176" y="60" on="1"/>
        <pt x="284" y="60" on="1"/>
        <pt x="284" y="0" on="1"/>
        <pt x="164" y="0" on="1"/>
        <pt x="109" y="0" on="0"/>
        <pt x="44" y="66" on="0"/>
        <pt x="44" y="122" on="1"/>
        <pt x="44" y="388" on="1"/>
        <pt x="44" y="453" on="0"/>
        <pt x="116" y="527" on="0"/>
        <pt x="258" y="527" on="0"/>
        <pt x="329" y="453" on="0"/>
        <pt x="329" y="388" on="1"/>
        <pt x="329" y="342" on="1"/>
        <pt x="329" y="270" on="0"/>
        <pt x="242" y="246" on="1"/>
        <pt x="124" y="213" on="1"/>
        <pt x="124" y="115" on="1"/>
        <pt x="124" y="91" on="0"/>
        <pt x="153" y="60" on="0"/>
      </contour>
      <contour>
        <pt x="124" y="405" on="1"/>
        <pt x="124" y="276" on="1"/>
        <pt x="147" y="283" on="0"/>
        <pt x="199" y="296" on="0"/>
        <pt x="218" y="302" on="0"/>
        <pt x="241" y="310" on="0"/>
        <pt x="243" y="316" on="1"/>
        <pt x="249" y="332" on="0"/>
        <pt x="249" y="350" on="1"/>
        <pt x="249" y="405" on="1"/>
        <pt x="249" y="467" on="0"/>
        <pt x="187" y="467" on="1"/>
        <pt x="159" y="467" on="0"/>
        <pt x="124" y="435" on="0"/>
      </contour>
    </TTGlyph>
    <TTGlyph name="eacute" xMin="44" yMin="0" xMax="329" yMax="688">
      <contour>
        <pt x="170" y="559" on="1"/>
        <pt x="137" y="589" on="1"/>
        <pt x="253" y="688" on="1"/>
        <pt x="304" y="641" on="1"/>
      </contour>
      <contour>
        <pt x="176" y="60" on="1"/>
        <pt x="284" y="60" on="1"/>
        <pt x="284" y="0" on="1"/>
        <pt x="164" y="0" on="1"/>
        <pt x="109" y="0" on="0"/>
        <pt x="44" y="66" on="0"/>
        <pt x="44" y="122" on="1"/>
        <pt x="44" y="388" on="1"/>
        <pt x="44" y="453" on="0"/>
        <pt x="116" y="527" on="0"/>
        <pt x="258" y="527" on="0"/>
        <pt x="329" y="453" on="0"/>
        <pt x="329" y="388" on="1"/>
        <pt x="329" y="342" on="1"/>
        <pt x="329" y="270" on="0"/>
        <pt x="242" y="246" on="1"/>
        <pt x="124" y="213" on="1"/>
        <pt x="124" y="115" on="1"/>
        <pt x="124" y="91" on="0"/>
        <pt x="153" y="60" on="0"/>
      </contour>
      <contour>
        <pt x="124" y="405" on="1"/>
        <pt x="124" y="276" on="1"/>
        <pt x="147" y="283" on="0"/>
        <pt x="199" y="296" on="0"/>
        <pt x="218" y="302" on="0"/>
        <pt x="241" y="310" on="0"/>
        <pt x="243" y="316" on="1"/>
        <pt x="249" y="332" on="0"/>
        <pt x="249" y="350" on="1"/>
        <pt x="249" y="405" on="1"/>
        <pt x="249" y="467" on="0"/>
        <pt x="187" y="467" on="1"/>
        <pt x="159" y="467" on="0"/>
        <pt x="124" y="435" on="0"/>
      </contour>
    </TTGlyph>
    <TTGlyph name="ecircumflex" xMin="44" yMin="0" xMax="329" yMax="701">
      <contour>
        <pt x="77" y="614" on="1"/>
        <pt x="191" y="701" on="1"/>
        <pt x="305" y="614" on="1"/>
        <pt x="256" y="576" on="1"/>
        <pt x="191" y="628" on="1"/>
        <pt x="126" y="576" on="1"/>
      </contour>
      <contour>
        <pt x="284" y="60" on="1"/>
        <pt x="284" y="0" on="1"/>
        <pt x="164" y="0" on="1"/>
        <pt x="109" y="0" on="0"/>
        <pt x="44" y="66" on="0"/>
        <pt x="44" y="122" on="1"/>
        <pt x="44" y="388" on="1"/>
        <pt x="44" y="453" on="0"/>
        <pt x="116" y="527" on="0"/>
        <pt x="258" y="527" on="0"/>
        <pt x="329" y="453" on="0"/>
        <pt x="329" y="388" on="1"/>
        <pt x="329" y="342" on="1"/>
        <pt x="329" y="270" on="0"/>
        <pt x="242" y="246" on="1"/>
        <pt x="124" y="213" on="1"/>
        <pt x="124" y="115" on="1"/>
        <pt x="124" y="91" on="0"/>
        <pt x="153" y="60" on="0"/>
        <pt x="176" y="60" on="1"/>
      </contour>
      <contour>
        <pt x="124" y="405" on="1"/>
        <pt x="124" y="276" on="1"/>
        <pt x="147" y="283" on="0"/>
        <pt x="240" y="306" on="0"/>
        <pt x="243" y="316" on="1"/>
        <pt x="249" y="332" on="0"/>
        <pt x="249" y="350" on="1"/>
        <pt x="249" y="405" on="1"/>
        <pt x="249" y="467" on="0"/>
        <pt x="187" y="467" on="1"/>
        <pt x="159" y="467" on="0"/>
        <pt x="124" y="435" on="0"/>
      </contour>
    </TTGlyph>
    <TTGlyph name="edieresis" xMin="44" yMin="0" xMax="329" yMax="679">
      <contour>
        <pt x="74" y="599" on="1"/>
        <pt x="74" y="679" on="1"/>
        <pt x="154" y="679" on="1"/>
        <pt x="154" y="599" on="1"/>
      </contour>
      <contour>
        <pt x="219" y="599" on="1"/>
        <pt x="219" y="679" on="1"/>
        <pt x="299" y="679" on="1"/>
        <pt x="299" y="599" on="1"/>
      </contour>
      <contour>
        <pt x="284" y="60" on="1"/>
        <pt x="284" y="0" on="1"/>
        <pt x="164" y="0" on="1"/>
        <pt x="109" y="0" on="0"/>
        <pt x="44" y="66" on="0"/>
        <pt x="44" y="122" on="1"/>
        <pt x="44" y="388" on="1"/>
        <pt x="44" y="453" on="0"/>
        <pt x="116" y="527" on="0"/>
        <pt x="258" y="527" on="0"/>
        <pt x="329" y="453" on="0"/>
        <pt x="329" y="388" on="1"/>
        <pt x="329" y="342" on="1"/>
        <pt x="329" y="270" on="0"/>
        <pt x="242" y="246" on="1"/>
        <pt x="124" y="213" on="1"/>
        <pt x="124" y="115" on="1"/>
        <pt x="124" y="91" on="0"/>
        <pt x="153" y="60" on="0"/>
        <pt x="176" y="60" on="1"/>
      </contour>
      <contour>
        <pt x="124" y="405" on="1"/>
        <pt x="124" y="276" on="1"/>
        <pt x="147" y="283" on="0"/>
        <pt x="240" y="306" on="0"/>
        <pt x="243" y="316" on="1"/>
        <pt x="249" y="332" on="0"/>
        <pt x="249" y="350" on="1"/>
        <pt x="249" y="405" on="1"/>
        <pt x="249" y="467" on="0"/>
        <pt x="187" y="467" on="1"/>
        <pt x="159" y="467" on="0"/>
        <pt x="124" y="435" on="0"/>
      </contour>
    </TTGlyph>
    <TTGlyph name="egrave" xMin="44" yMin="0" xMax="329" yMax="679">
      <contour>
        <pt x="240" y="590" on="1"/>
        <pt x="212" y="559" on="1"/>
        <pt x="78" y="631" on="1"/>
        <pt x="120" y="679" on="1"/>
      </contour>
      <contour>
        <pt x="284" y="60" on="1"/>
        <pt x="284" y="0" on="1"/>
        <pt x="164" y="0" on="1"/>
        <pt x="109" y="0" on="0"/>
        <pt x="44" y="66" on="0"/>
        <pt x="44" y="122" on="1"/>
        <pt x="44" y="388" on="1"/>
        <pt x="44" y="453" on="0"/>
        <pt x="116" y="527" on="0"/>
        <pt x="258" y="527" on="0"/>
        <pt x="329" y="453" on="0"/>
        <pt x="329" y="388" on="1"/>
        <pt x="329" y="342" on="1"/>
        <pt x="329" y="270" on="0"/>
        <pt x="242" y="246" on="1"/>
        <pt x="124" y="213" on="1"/>
        <pt x="124" y="115" on="1"/>
        <pt x="124" y="91" on="0"/>
        <pt x="153" y="60" on="0"/>
        <pt x="176" y="60" on="1"/>
      </contour>
      <contour>
        <pt x="124" y="405" on="1"/>
        <pt x="124" y="276" on="1"/>
        <pt x="147" y="283" on="0"/>
        <pt x="240" y="306" on="0"/>
        <pt x="243" y="316" on="1"/>
        <pt x="249" y="332" on="0"/>
        <pt x="249" y="350" on="1"/>
        <pt x="249" y="405" on="1"/>
        <pt x="249" y="467" on="0"/>
        <pt x="187" y="467" on="1"/>
        <pt x="159" y="467" on="0"/>
        <pt x="124" y="435" on="0"/>
      </contour>
    </TTGlyph>
    <TTGlyph name="eight" xMin="61" yMin="-6" xMax="407" yMax="707">
      <contour>
        <pt x="73" y="447" on="1"/>
        <pt x="73" y="576" on="1"/>
        <pt x="73" y="707" on="0"/>
        <pt x="236" y="707" on="1"/>
        <pt x="316" y="707" on="0"/>
        <pt x="399" y="635" on="0"/>
        <pt x="399" y="576" on="1"/>
        <pt x="399" y="447" on="1"/>
        <pt x="399" y="390" on="0"/>
        <pt x="347" y="354" on="1"/>
        <pt x="407" y="313" on="0"/>
        <pt x="407" y="256" on="1"/>
        <pt x="407" y="117" on="1"/>
        <pt x="407" y="60" on="0"/>
        <pt x="319" y="-6" on="0"/>
        <pt x="236" y="-6" on="1"/>
        <pt x="61" y="-6" on="0"/>
        <pt x="61" y="117" on="1"/>
        <pt x="61" y="256" on="1"/>
        <pt x="61" y="315" on="0"/>
        <pt x="123" y="354" on="1"/>
        <pt x="73" y="389" on="0"/>
      </contour>
      <contour>
        <pt x="149" y="244" on="1"/>
        <pt x="149" y="127" on="1"/>
        <pt x="149" y="60" on="0"/>
        <pt x="319" y="60" on="0"/>
        <pt x="319" y="127" on="1"/>
        <pt x="319" y="244" on="1"/>
        <pt x="319" y="279" on="0"/>
        <pt x="277" y="321" on="0"/>
        <pt x="193" y="321" on="0"/>
        <pt x="149" y="278" on="0"/>
      </contour>
      <contour>
        <pt x="235" y="392" on="1"/>
        <pt x="311" y="392" on="0"/>
        <pt x="311" y="458" on="1"/>
        <pt x="311" y="565" on="1"/>
        <pt x="311" y="626" on="0"/>
        <pt x="278" y="636" on="1"/>
        <pt x="263" y="641" on="0"/>
        <pt x="191" y="641" on="0"/>
        <pt x="161" y="603" on="0"/>
        <pt x="161" y="565" on="1"/>
        <pt x="162" y="458" on="1"/>
        <pt x="162" y="423" on="0"/>
        <pt x="194" y="392" on="0"/>
      </contour>
    </TTGlyph>
    <TTGlyph name="ellipsis" xMin="41" yMin="0" xMax="469" yMax="103">
      <contour>
        <pt x="41" y="0" on="1"/>
        <pt x="41" y="103" on="1"/>
        <pt x="121" y="103" on="1"/>
        <pt x="121" y="0" on="1"/>
      </contour>
      <contour>
        <pt x="215" y="0" on="1"/>
        <pt x="215" y="103" on="1"/>
        <pt x="295" y="103" on="1"/>
        <pt x="295" y="0" on="1"/>
      </contour>
      <contour>
        <pt x="389" y="0" on="1"/>
        <pt x="389" y="103" on="1"/>
        <pt x="469" y="103" on="1"/>
        <pt x="469" y="0" on="1"/>
      </contour>
    </TTGlyph>
    <TTGlyph name="emdash" xMin="40" yMin="224" xMax="740" yMax="290">
      <contour>
        <pt x="40" y="224" on="1"/>
        <pt x="40" y="290" on="1"/>
        <pt x="740" y="290" on="1"/>
        <pt x="740" y="224" on="1"/>
      </contour>
    </TTGlyph>
    <TTGlyph name="endash" xMin="40" yMin="224" xMax="390" yMax="290">
      <contour>
        <pt x="40" y="224" on="1"/>
        <pt x="40" y="290" on="1"/>
        <pt x="390" y="290" on="1"/>
        <pt x="390" y="224" on="1"/>
      </contour>
    </TTGlyph>
    <TTGlyph name="equal" xMin="30" yMin="226" xMax="430" yMax="460">
      <contour>
        <pt x="30" y="226" on="1"/>
        <pt x="30" y="292" on="1"/>
        <pt x="430" y="292" on="1"/>
        <pt x="430" y="226" on="1"/>
      </contour>
      <contour>
        <pt x="30" y="394" on="1"/>
        <pt x="30" y="460" on="1"/>
        <pt x="430" y="460" on="1"/>
        <pt x="430" y="394" on="1"/>
      </contour>
    </TTGlyph>
    <TTGlyph name="eth" xMin="62" yMin="-7" xMax="415" yMax="706">
      <contour>
        <pt x="335" y="422" on="1"/>
        <pt x="335" y="525" on="0"/>
        <pt x="218" y="646" on="0"/>
        <pt x="111" y="646" on="1"/>
        <pt x="111" y="706" on="1"/>
        <pt x="262" y="706" on="0"/>
        <pt x="415" y="537" on="0"/>
        <pt x="415" y="405" on="1"/>
        <pt x="415" y="125" on="1"/>
        <pt x="415" y="62" on="0"/>
        <pt x="311" y="-7" on="0"/>
        <pt x="166" y="-7" on="0"/>
        <pt x="62" y="61" on="0"/>
        <pt x="62" y="124" on="1"/>
        <pt x="62" y="287" on="1"/>
        <pt x="62" y="422" on="0"/>
        <pt x="192" y="422" on="1"/>
      </contour>
      <contour>
        <pt x="142" y="280" on="1"/>
        <pt x="142" y="120" on="1"/>
        <pt x="142" y="88" on="0"/>
        <pt x="203" y="59" on="0"/>
        <pt x="278" y="59" on="0"/>
        <pt x="335" y="88" on="0"/>
        <pt x="335" y="121" on="1"/>
        <pt x="335" y="355" on="1"/>
        <pt x="209" y="355" on="1"/>
        <pt x="168" y="355" on="0"/>
        <pt x="142" y="320" on="0"/>
      </contour>
    </TTGlyph>
    <TTGlyph name="exclam" xMin="66" yMin="0" xMax="146" yMax="700">
      <contour>
        <pt x="146" y="700" on="1"/>
        <pt x="146" y="165" on="1"/>
        <pt x="66" y="165" on="1"/>
        <pt x="66" y="700" on="1"/>
      </contour>
      <contour>
        <pt x="66" y="0" on="1"/>
        <pt x="66" y="103" on="1"/>
        <pt x="146" y="103" on="1"/>
        <pt x="146" y="0" on="1"/>
      </contour>
    </TTGlyph>
    <TTGlyph name="exclamdown" xMin="66" yMin="0" xMax="147" yMax="700">
      <contour>
        <pt x="66" y="0" on="1"/>
        <pt x="66" y="534" on="1"/>
        <pt x="146" y="534" on="1"/>
        <pt x="146" y="0" on="1"/>
      </contour>
      <contour>
        <pt x="147" y="700" on="1"/>
        <pt x="147" y="596" on="1"/>
        <pt x="67" y="596" on="1"/>
        <pt x="67" y="700" on="1"/>
      </contour>
    </TTGlyph>
    <TTGlyph name="f" xMin="25" yMin="0" xMax="248" yMax="700">
      <contour>
        <pt x="25" y="454" on="1"/>
        <pt x="25" y="520" on="1"/>
        <pt x="85" y="520" on="1"/>
        <pt x="85" y="578" on="1"/>
        <pt x="85" y="634" on="0"/>
        <pt x="149" y="700" on="0"/>
        <pt x="204" y="700" on="1"/>
        <pt x="248" y="700" on="1"/>
        <pt x="248" y="640" on="1"/>
        <pt x="218" y="640" on="1"/>
        <pt x="195" y="640" on="0"/>
        <pt x="165" y="608" on="0"/>
        <pt x="165" y="585" on="1"/>
        <pt x="165" y="520" on="1"/>
        <pt x="246" y="520" on="1"/>
        <pt x="246" y="454" on="1"/>
        <pt x="165" y="454" on="1"/>
        <pt x="165" y="0" on="1"/>
        <pt x="85" y="0" on="1"/>
        <pt x="85" y="454" on="1"/>
      </contour>
    </TTGlyph>
    <TTGlyph name="five" xMin="60" yMin="-7" xMax="413" yMax="700">
      <contour>
        <pt x="60" y="121" on="1"/>
        <pt x="148" y="121" on="1"/>
        <pt x="148" y="89" on="0"/>
        <pt x="201" y="59" on="0"/>
        <pt x="272" y="59" on="0"/>
        <pt x="325" y="87" on="0"/>
        <pt x="325" y="120" on="1"/>
        <pt x="325" y="289" on="1"/>
        <pt x="325" y="328" on="0"/>
        <pt x="300" y="355" on="0"/>
        <pt x="258" y="355" on="1"/>
        <pt x="62" y="355" on="1"/>
        <pt x="62" y="700" on="1"/>
        <pt x="365" y="700" on="1"/>
        <pt x="365" y="634" on="1"/>
        <pt x="149" y="634" on="1"/>
        <pt x="149" y="421" on="1"/>
        <pt x="282" y="421" on="1"/>
        <pt x="351" y="421" on="0"/>
        <pt x="413" y="361" on="0"/>
        <pt x="413" y="295" on="1"/>
        <pt x="413" y="124" on="1"/>
        <pt x="413" y="61" on="0"/>
        <pt x="309" y="-7" on="0"/>
        <pt x="163" y="-7" on="0"/>
        <pt x="60" y="58" on="0"/>
      </contour>
    </TTGlyph>
    <TTGlyph name="four" xMin="60" yMin="0" xMax="447" yMax="700">
      <contour>
        <pt x="293" y="251" on="1"/>
        <pt x="293" y="634" on="1"/>
        <pt x="286" y="634" on="1"/>
        <pt x="148" y="251" on="1"/>
      </contour>
      <contour>
        <pt x="293" y="0" on="1"/>
        <pt x="293" y="185" on="1"/>
        <pt x="60" y="185" on="1"/>
        <pt x="60" y="251" on="1"/>
        <pt x="236" y="700" on="1"/>
        <pt x="381" y="700" on="1"/>
        <pt x="381" y="251" on="1"/>
        <pt x="447" y="251" on="1"/>
        <pt x="447" y="185" on="1"/>
        <pt x="381" y="185" on="1"/>
        <pt x="381" y="0" on="1"/>
      </contour>
    </TTGlyph>
    <TTGlyph name="g" xMin="41" yMin="-160" xMax="336" yMax="520">
      <contour>
        <pt x="336" y="520" on="1"/>
        <pt x="336" y="-38" on="1"/>
        <pt x="336" y="-94" on="0"/>
        <pt x="275" y="-160" on="0"/>
        <pt x="220" y="-160" on="1"/>
        <pt x="102" y="-160" on="1"/>
        <pt x="102" y="-100" on="1"/>
        <pt x="205" y="-100" on="1"/>
        <pt x="228" y="-100" on="0"/>
        <pt x="255" y="-69" on="0"/>
        <pt x="255" y="-45" on="1"/>
        <pt x="255" y="-1" on="1"/>
        <pt x="172" y="-1" on="1"/>
        <pt x="117" y="-1" on="0"/>
        <pt x="41" y="71" on="0"/>
        <pt x="41" y="125" on="1"/>
        <pt x="41" y="394" on="1"/>
        <pt x="41" y="448" on="0"/>
        <pt x="118" y="520" on="0"/>
        <pt x="173" y="520" on="1"/>
      </contour>
      <contour>
        <pt x="256" y="460" on="1"/>
        <pt x="189" y="460" on="1"/>
        <pt x="161" y="460" on="0"/>
        <pt x="121" y="422" on="0"/>
        <pt x="121" y="394" on="1"/>
        <pt x="121" y="125" on="1"/>
        <pt x="121" y="97" on="0"/>
        <pt x="161" y="59" on="0"/>
        <pt x="189" y="59" on="1"/>
        <pt x="256" y="59" on="1"/>
      </contour>
    </TTGlyph>
    <TTGlyph name="germandbls" xMin="61" yMin="0" xMax="403" yMax="707">
      <contour>
        <pt x="396" y="537" on="1"/>
        <pt x="396" y="505" on="0"/>
        <pt x="362" y="444" on="0"/>
        <pt x="342" y="425" on="1"/>
        <pt x="287" y="374" on="0"/>
        <pt x="287" y="345" on="1"/>
        <pt x="287" y="317" on="0"/>
        <pt x="328" y="280" on="1"/>
        <pt x="345" y="264" on="0"/>
        <pt x="362" y="246" on="1"/>
        <pt x="403" y="201" on="0"/>
        <pt x="403" y="140" on="1"/>
        <pt x="403" y="0" on="0"/>
        <pt x="260" y="0" on="1"/>
        <pt x="193" y="0" on="1"/>
        <pt x="193" y="60" on="1"/>
        <pt x="245" y="60" on="1"/>
        <pt x="327" y="60" on="0"/>
        <pt x="327" y="150" on="1"/>
        <pt x="327" y="187" on="0"/>
        <pt x="267" y="237" on="1"/>
        <pt x="244" y="256" on="0"/>
        <pt x="207" y="316" on="0"/>
        <pt x="207" y="373" on="0"/>
        <pt x="241" y="422" on="0"/>
        <pt x="282" y="457" on="0"/>
        <pt x="316" y="515" on="0"/>
        <pt x="316" y="590" on="0"/>
        <pt x="270" y="641" on="0"/>
        <pt x="194" y="641" on="0"/>
        <pt x="141" y="594" on="0"/>
        <pt x="141" y="548" on="1"/>
        <pt x="141" y="0" on="1"/>
        <pt x="61" y="0" on="1"/>
        <pt x="61" y="527" on="1"/>
        <pt x="61" y="612" on="0"/>
        <pt x="149" y="707" on="0"/>
        <pt x="310" y="707" on="0"/>
        <pt x="396" y="615" on="0"/>
      </contour>
    </TTGlyph>
    <TTGlyph name="grave" xMin="28" yMin="559" xMax="195" yMax="688">
      <contour>
        <pt x="195" y="589" on="1"/>
        <pt x="162" y="559" on="1"/>
        <pt x="28" y="641" on="1"/>
        <pt x="79" y="688" on="1"/>
      </contour>
    </TTGlyph>
    <TTGlyph name="greater" xMin="40" yMin="-10" xMax="480" yMax="510">
      <contour>
        <pt x="480" y="277" on="1"/>
        <pt x="480" y="223" on="1"/>
        <pt x="40" y="-10" on="1"/>
        <pt x="40" y="65" on="1"/>
        <pt x="390" y="250" on="1"/>
        <pt x="40" y="435" on="1"/>
        <pt x="40" y="510" on="1"/>
      </contour>
    </TTGlyph>
    <TTGlyph name="guillemotleft" xMin="30" yMin="50" xMax="437" yMax="450">
      <contour>
        <pt x="350" y="50" on="1"/>
        <pt x="210" y="250" on="1"/>
        <pt x="350" y="450" on="1"/>
        <pt x="437" y="450" on="1"/>
        <pt x="297" y="250" on="1"/>
        <pt x="437" y="50" on="1"/>
      </contour>
      <contour>
        <pt x="170" y="50" on="1"/>
        <pt x="30" y="250" on="1"/>
        <pt x="170" y="450" on="1"/>
        <pt x="257" y="450" on="1"/>
        <pt x="117" y="250" on="1"/>
        <pt x="257" y="50" on="1"/>
      </contour>
    </TTGlyph>
    <TTGlyph name="guillemotright" xMin="65" yMin="49" xMax="472" yMax="449">
      <contour>
        <pt x="152" y="449" on="1"/>
        <pt x="292" y="249" on="1"/>
        <pt x="152" y="49" on="1"/>
        <pt x="65" y="49" on="1"/>
        <pt x="205" y="249" on="1"/>
        <pt x="65" y="449" on="1"/>
      </contour>
      <contour>
        <pt x="332" y="449" on="1"/>
        <pt x="472" y="249" on="1"/>
        <pt x="332" y="49" on="1"/>
        <pt x="245" y="49" on="1"/>
        <pt x="385" y="249" on="1"/>
        <pt x="245" y="449" on="1"/>
      </contour>
    </TTGlyph>
    <TTGlyph name="guilsinglleft" xMin="30" yMin="50" xMax="257" yMax="450">
      <contour>
        <pt x="170" y="50" on="1"/>
        <pt x="30" y="250" on="1"/>
        <pt x="170" y="450" on="1"/>
        <pt x="257" y="450" on="1"/>
        <pt x="117" y="250" on="1"/>
        <pt x="257" y="50" on="1"/>
      </contour>
    </TTGlyph>
    <TTGlyph name="guilsinglright" xMin="65" yMin="49" xMax="292" yMax="449">
      <contour>
        <pt x="152" y="449" on="1"/>
        <pt x="292" y="249" on="1"/>
        <pt x="152" y="49" on="1"/>
        <pt x="65" y="49" on="1"/>
        <pt x="205" y="249" on="1"/>
        <pt x="65" y="449" on="1"/>
      </contour>
    </TTGlyph>
    <TTGlyph name="h" xMin="60" yMin="0" xMax="355" yMax="700">
      <contour>
        <pt x="60" y="700" on="1"/>
        <pt x="140" y="700" on="1"/>
        <pt x="140" y="493" on="1"/>
        <pt x="156" y="498" on="0"/>
        <pt x="211" y="514" on="0"/>
        <pt x="223" y="518" on="1"/>
        <pt x="256" y="527" on="0"/>
        <pt x="321" y="527" on="0"/>
        <pt x="355" y="477" on="0"/>
        <pt x="355" y="437" on="1"/>
        <pt x="355" y="0" on="1"/>
        <pt x="275" y="0" on="1"/>
        <pt x="275" y="411" on="1"/>
        <pt x="275" y="440" on="0"/>
        <pt x="267" y="463" on="0"/>
        <pt x="243" y="463" on="0"/>
        <pt x="140" y="431" on="1"/>
        <pt x="140" y="0" on="1"/>
        <pt x="60" y="0" on="1"/>
      </contour>
    </TTGlyph>
    <TTGlyph name="hbar" xMin="12" yMin="0" xMax="355" yMax="700">
      <contour>
        <pt x="133" y="484" on="1"/>
        <pt x="248" y="520" on="0"/>
        <pt x="321" y="520" on="0"/>
        <pt x="355" y="470" on="0"/>
        <pt x="355" y="430" on="1"/>
        <pt x="355" y="0" on="1"/>
        <pt x="276" y="0" on="1"/>
        <pt x="276" y="404" on="1"/>
        <pt x="276" y="433" on="0"/>
        <pt x="268" y="456" on="0"/>
        <pt x="244" y="456" on="0"/>
        <pt x="140" y="424" on="1"/>
        <pt x="140" y="0" on="1"/>
        <pt x="60" y="0" on="1"/>
        <pt x="60" y="574" on="1"/>
        <pt x="12" y="574" on="1"/>
        <pt x="12" y="630" on="1"/>
        <pt x="60" y="630" on="1"/>
        <pt x="60" y="700" on="1"/>
        <pt x="133" y="700" on="1"/>
        <pt x="133" y="630" on="1"/>
        <pt x="273" y="630" on="1"/>
        <pt x="273" y="574" on="1"/>
        <pt x="133" y="574" on="1"/>
      </contour>
      <contour>
        <pt x="60" y="700" on="1"/>
        <pt x="60" y="0" on="1"/>
        <pt x="140" y="0" on="1"/>
        <pt x="140" y="431" on="1"/>
        <pt x="243" y="463" on="0"/>
        <pt x="267" y="463" on="0"/>
        <pt x="275" y="440" on="0"/>
        <pt x="275" y="411" on="1"/>
        <pt x="275" y="0" on="1"/>
        <pt x="355" y="0" on="1"/>
        <pt x="355" y="437" on="1"/>
        <pt x="355" y="477" on="0"/>
        <pt x="321" y="527" on="0"/>
        <pt x="256" y="527" on="0"/>
        <pt x="223" y="518" on="1"/>
        <pt x="211" y="514" on="0"/>
        <pt x="156" y="498" on="0"/>
        <pt x="140" y="493" on="1"/>
        <pt x="140" y="700" on="1"/>
      </contour>
    </TTGlyph>
    <TTGlyph name="hyphen" xMin="5" yMin="194" xMax="237" yMax="260">
      <contour>
        <pt x="5" y="194" on="1"/>
        <pt x="5" y="260" on="1"/>
        <pt x="237" y="260" on="1"/>
        <pt x="237" y="194" on="1"/>
      </contour>
    </TTGlyph>
    <TTGlyph name="i" xMin="60" yMin="0" xMax="140" yMax="685">
      <contour>
        <pt x="60" y="0" on="1"/>
        <pt x="60" y="520" on="1"/>
        <pt x="140" y="520" on="1"/>
        <pt x="140" y="0" on="1"/>
      </contour>
      <contour>
        <pt x="60" y="605" on="1"/>
        <pt x="60" y="685" on="1"/>
        <pt x="140" y="685" on="1"/>
        <pt x="140" y="605" on="1"/>
      </contour>
    </TTGlyph>
    <TTGlyph name="iacute" xMin="49" yMin="0" xMax="216" yMax="688">
      <contour>
        <pt x="82" y="559" on="1"/>
        <pt x="49" y="589" on="1"/>
        <pt x="165" y="688" on="1"/>
        <pt x="216" y="641" on="1"/>
      </contour>
      <contour>
        <pt x="60" y="0" on="1"/>
        <pt x="60" y="520" on="1"/>
        <pt x="140" y="520" on="1"/>
        <pt x="140" y="0" on="1"/>
      </contour>
    </TTGlyph>
    <TTGlyph name="icircumflex" xMin="-10" yMin="0" xMax="218" yMax="701">
      <contour>
        <pt x="-10" y="614" on="1"/>
        <pt x="104" y="701" on="1"/>
        <pt x="218" y="614" on="1"/>
        <pt x="169" y="576" on="1"/>
        <pt x="104" y="628" on="1"/>
        <pt x="39" y="576" on="1"/>
      </contour>
      <contour>
        <pt x="60" y="0" on="1"/>
        <pt x="60" y="520" on="1"/>
        <pt x="140" y="520" on="1"/>
        <pt x="140" y="0" on="1"/>
      </contour>
    </TTGlyph>
    <TTGlyph name="idieresis" xMin="-15" yMin="0" xMax="210" yMax="679">
      <contour>
        <pt x="-15" y="599" on="1"/>
        <pt x="-15" y="679" on="1"/>
        <pt x="65" y="679" on="1"/>
        <pt x="65" y="599" on="1"/>
      </contour>
      <contour>
        <pt x="130" y="599" on="1"/>
        <pt x="130" y="679" on="1"/>
        <pt x="210" y="679" on="1"/>
        <pt x="210" y="599" on="1"/>
      </contour>
      <contour>
        <pt x="60" y="0" on="1"/>
        <pt x="60" y="520" on="1"/>
        <pt x="140" y="520" on="1"/>
        <pt x="140" y="0" on="1"/>
      </contour>
    </TTGlyph>
    <TTGlyph name="igrave" xMin="-30" yMin="0" xMax="140" yMax="688">
      <contour>
        <pt x="137" y="589" on="1"/>
        <pt x="104" y="559" on="1"/>
        <pt x="-30" y="641" on="1"/>
        <pt x="21" y="688" on="1"/>
      </contour>
      <contour>
        <pt x="60" y="0" on="1"/>
        <pt x="60" y="520" on="1"/>
        <pt x="140" y="520" on="1"/>
        <pt x="140" y="0" on="1"/>
      </contour>
    </TTGlyph>
    <TTGlyph name="ij" xMin="60" yMin="-160" xMax="359" yMax="685">
      <contour>
        <pt x="60" y="0" on="1"/>
        <pt x="60" y="520" on="1"/>
        <pt x="140" y="520" on="1"/>
        <pt x="140" y="0" on="1"/>
      </contour>
      <contour>
        <pt x="60" y="605" on="1"/>
        <pt x="60" y="685" on="1"/>
        <pt x="140" y="685" on="1"/>
        <pt x="140" y="605" on="1"/>
      </contour>
      <contour>
        <pt x="278" y="605" on="1"/>
        <pt x="278" y="685" on="1"/>
        <pt x="358" y="685" on="1"/>
        <pt x="358" y="605" on="1"/>
      </contour>
      <contour>
        <pt x="279" y="-45" on="1"/>
        <pt x="279" y="520" on="1"/>
        <pt x="359" y="520" on="1"/>
        <pt x="359" y="-38" on="1"/>
        <pt x="359" y="-94" on="0"/>
        <pt x="295" y="-160" on="0"/>
        <pt x="240" y="-160" on="1"/>
        <pt x="205" y="-160" on="1"/>
        <pt x="205" y="-100" on="1"/>
        <pt x="229" y="-100" on="1"/>
        <pt x="252" y="-100" on="0"/>
        <pt x="279" y="-69" on="0"/>
      </contour>
    </TTGlyph>
    <TTGlyph name="itilde" xMin="-37" yMin="0" xMax="238" yMax="682">
      <contour>
        <pt x="60" y="0" on="1"/>
        <pt x="60" y="520" on="1"/>
        <pt x="140" y="520" on="1"/>
        <pt x="140" y="0" on="1"/>
      </contour>
      <contour>
        <pt x="151" y="580" on="0"/>
        <pt x="61" y="613" on="0"/>
        <pt x="43" y="613" on="0"/>
        <pt x="35" y="611" on="0"/>
        <pt x="30" y="603" on="0"/>
        <pt x="29" y="598" on="0"/>
        <pt x="27" y="583" on="0"/>
        <pt x="26" y="580" on="1"/>
        <pt x="-37" y="580" on="1"/>
        <pt x="-36" y="625" on="0"/>
        <pt x="-4" y="672" on="0"/>
        <pt x="38" y="672" on="1"/>
        <pt x="49" y="672" on="0"/>
        <pt x="139" y="639" on="0"/>
        <pt x="159" y="639" on="0"/>
        <pt x="169" y="648" on="0"/>
        <pt x="171" y="657" on="0"/>
        <pt x="174" y="678" on="0"/>
        <pt x="175" y="682" on="1"/>
        <pt x="238" y="682" on="1"/>
        <pt x="238" y="603" on="0"/>
        <pt x="204" y="588" on="1"/>
        <pt x="188" y="580" on="0"/>
      </contour>
    </TTGlyph>
    <TTGlyph name="j" xMin="5" yMin="-160" xMax="159" yMax="685">
      <contour>
        <pt x="78" y="605" on="1"/>
        <pt x="78" y="685" on="1"/>
        <pt x="158" y="685" on="1"/>
        <pt x="158" y="605" on="1"/>
      </contour>
      <contour>
        <pt x="79" y="-45" on="1"/>
        <pt x="79" y="520" on="1"/>
        <pt x="159" y="520" on="1"/>
        <pt x="159" y="-38" on="1"/>
        <pt x="159" y="-94" on="0"/>
        <pt x="95" y="-160" on="0"/>
        <pt x="40" y="-160" on="1"/>
        <pt x="5" y="-160" on="1"/>
        <pt x="5" y="-100" on="1"/>
        <pt x="29" y="-100" on="1"/>
        <pt x="52" y="-100" on="0"/>
        <pt x="79" y="-69" on="0"/>
      </contour>
    </TTGlyph>
    <TTGlyph name="jcircumflex" xMin="2" yMin="-160" xMax="234" yMax="688">
      <contour>
        <pt x="78" y="-45" on="1"/>
        <pt x="78" y="520" on="1"/>
        <pt x="159" y="520" on="1"/>
        <pt x="159" y="-38" on="1"/>
        <pt x="159" y="-94" on="0"/>
        <pt x="95" y="-160" on="0"/>
        <pt x="40" y="-160" on="1"/>
        <pt x="5" y="-160" on="1"/>
        <pt x="5" y="-100" on="1"/>
        <pt x="28" y="-100" on="1"/>
        <pt x="51" y="-100" on="0"/>
        <pt x="78" y="-69" on="0"/>
      </contour>
      <contour>
        <pt x="118" y="688" on="1"/>
        <pt x="234" y="589" on="1"/>
        <pt x="201" y="559" on="1"/>
        <pt x="118" y="610" on="1"/>
        <pt x="35" y="559" on="1"/>
        <pt x="2" y="589" on="1"/>
      </contour>
    </TTGlyph>
    <TTGlyph name="k" xMin="58" yMin="0" xMax="375" yMax="700">
      <contour>
        <pt x="138" y="0" on="1"/>
        <pt x="58" y="0" on="1"/>
        <pt x="58" y="700" on="1"/>
        <pt x="138" y="700" on="1"/>
        <pt x="138" y="308" on="1"/>
        <pt x="293" y="520" on="1"/>
        <pt x="368" y="520" on="1"/>
        <pt x="220" y="308" on="1"/>
        <pt x="375" y="0" on="1"/>
        <pt x="300" y="0" on="1"/>
        <pt x="173" y="262" on="1"/>
        <pt x="138" y="215" on="1"/>
      </contour>
    </TTGlyph>
    <TTGlyph name="kcedilla" xMin="58" yMin="-204" xMax="370" yMax="700">
      <contour>
        <pt x="131" y="0" on="1"/>
        <pt x="58" y="0" on="1"/>
        <pt x="58" y="700" on="1"/>
        <pt x="131" y="700" on="1"/>
        <pt x="131" y="308" on="1"/>
        <pt x="286" y="520" on="1"/>
        <pt x="364" y="520" on="1"/>
        <pt x="207" y="308" on="1"/>
        <pt x="370" y="0" on="1"/>
        <pt x="296" y="0" on="1"/>
        <pt x="168" y="262" on="1"/>
        <pt x="131" y="215" on="1"/>
      </contour>
      <contour>
        <pt x="171" y="-204" on="1"/>
        <pt x="171" y="-50" on="1"/>
        <pt x="243" y="-50" on="1"/>
        <pt x="238" y="-204" on="1"/>
      </contour>
    </TTGlyph>
    <TTGlyph name="kcommaaccent" xMin="58" yMin="-204" xMax="375" yMax="700">
      <contour>
        <pt x="159" y="-204" on="1"/>
        <pt x="159" y="-50" on="1"/>
        <pt x="231" y="-50" on="1"/>
        <pt x="226" y="-204" on="1"/>
      </contour>
      <contour>
        <pt x="138" y="0" on="1"/>
        <pt x="58" y="0" on="1"/>
        <pt x="58" y="700" on="1"/>
        <pt x="138" y="700" on="1"/>
        <pt x="138" y="308" on="1"/>
        <pt x="293" y="520" on="1"/>
        <pt x="368" y="520" on="1"/>
        <pt x="220" y="308" on="1"/>
        <pt x="375" y="0" on="1"/>
        <pt x="300" y="0" on="1"/>
        <pt x="173" y="262" on="1"/>
        <pt x="138" y="215" on="1"/>
      </contour>
    </TTGlyph>
    <TTGlyph name="kgreenlandic" xMin="58" yMin="0" xMax="370" yMax="520">
      <contour>
        <pt x="131" y="0" on="1"/>
        <pt x="58" y="0" on="1"/>
        <pt x="58" y="520" on="1"/>
        <pt x="131" y="520" on="1"/>
        <pt x="131" y="308" on="1"/>
        <pt x="286" y="520" on="1"/>
        <pt x="364" y="520" on="1"/>
        <pt x="207" y="308" on="1"/>
        <pt x="370" y="0" on="1"/>
        <pt x="296" y="0" on="1"/>
        <pt x="168" y="262" on="1"/>
        <pt x="131" y="215" on="1"/>
      </contour>
    </TTGlyph>
    <TTGlyph name="l" xMin="61" yMin="0" xMax="141" yMax="700">
      <contour>
        <pt x="61" y="0" on="1"/>
        <pt x="61" y="700" on="1"/>
        <pt x="141" y="700" on="1"/>
        <pt x="141" y="0" on="1"/>
      </contour>
    </TTGlyph>
    <TTGlyph name="ldot" xMin="61" yMin="0" xMax="314" yMax="700">
      <contour>
        <pt x="61" y="0" on="1"/>
        <pt x="61" y="700" on="1"/>
        <pt x="141" y="700" on="1"/>
        <pt x="141" y="0" on="1"/>
      </contour>
      <contour>
        <pt x="234" y="254" on="1"/>
        <pt x="234" y="357" on="1"/>
        <pt x="314" y="357" on="1"/>
        <pt x="314" y="254" on="1"/>
      </contour>
    </TTGlyph>
    <TTGlyph name="less" xMin="40" yMin="-10" xMax="480" yMax="510">
      <contour>
        <pt x="40" y="223" on="1"/>
        <pt x="40" y="277" on="1"/>
        <pt x="480" y="510" on="1"/>
        <pt x="480" y="435" on="1"/>
        <pt x="130" y="250" on="1"/>
        <pt x="480" y="65" on="1"/>
        <pt x="480" y="-10" on="1"/>
      </contour>
    </TTGlyph>
    <TTGlyph name="logicalnot" xMin="40" yMin="150" xMax="520" yMax="360">
      <contour>
        <pt x="40" y="294" on="1"/>
        <pt x="40" y="360" on="1"/>
        <pt x="520" y="360" on="1"/>
        <pt x="520" y="150" on="1"/>
        <pt x="440" y="150" on="1"/>
        <pt x="440" y="294" on="1"/>
      </contour>
    </TTGlyph>
    <TTGlyph name="lslash" xMin="-59" yMin="0" xMax="259" yMax="700">
      <contour>
        <pt x="61" y="700" on="1"/>
        <pt x="141" y="700" on="1"/>
        <pt x="141" y="416" on="1"/>
        <pt x="244" y="440" on="1"/>
        <pt x="259" y="375" on="1"/>
        <pt x="141" y="348" on="1"/>
        <pt x="141" y="0" on="1"/>
        <pt x="61" y="0" on="1"/>
        <pt x="61" y="329" on="1"/>
        <pt x="-44" y="305" on="1"/>
        <pt x="-59" y="370" on="1"/>
        <pt x="61" y="397" on="1"/>
      </contour>
    </TTGlyph>
    <TTGlyph name="m" xMin="60" yMin="0" xMax="570" yMax="527">
      <contour>
        <pt x="345" y="489" on="1"/>
        <pt x="449" y="527" on="0"/>
        <pt x="492" y="527" on="1"/>
        <pt x="570" y="527" on="0"/>
        <pt x="570" y="437" on="1"/>
        <pt x="570" y="0" on="1"/>
        <pt x="490" y="0" on="1"/>
        <pt x="490" y="411" on="1"/>
        <pt x="490" y="440" on="0"/>
        <pt x="482" y="463" on="0"/>
        <pt x="458" y="463" on="0"/>
        <pt x="356" y="431" on="1"/>
        <pt x="356" y="0" on="1"/>
        <pt x="276" y="0" on="1"/>
        <pt x="276" y="411" on="1"/>
        <pt x="276" y="440" on="0"/>
        <pt x="268" y="463" on="0"/>
        <pt x="244" y="463" on="0"/>
        <pt x="140" y="431" on="1"/>
        <pt x="140" y="0" on="1"/>
        <pt x="60" y="0" on="1"/>
        <pt x="60" y="520" on="1"/>
        <pt x="122" y="520" on="1"/>
        <pt x="131" y="491" on="1"/>
        <pt x="145" y="495" on="0"/>
        <pt x="206" y="513" on="0"/>
        <pt x="219" y="516" on="1"/>
        <pt x="258" y="527" on="0"/>
        <pt x="285" y="527" on="1"/>
        <pt x="328" y="527" on="0"/>
      </contour>
    </TTGlyph>
    <TTGlyph name="macron" xMin="66" yMin="640" xMax="303" yMax="700">
      <contour>
        <pt x="303" y="640" on="1"/>
        <pt x="66" y="640" on="1"/>
        <pt x="66" y="700" on="1"/>
        <pt x="303" y="700" on="1"/>
      </contour>
    </TTGlyph>
    <TTGlyph name="mu" xMin="50" yMin="-161" xMax="346" yMax="520">
      <contour>
        <pt x="50" y="-161" on="1"/>
        <pt x="50" y="520" on="1"/>
        <pt x="130" y="520" on="1"/>
        <pt x="130" y="116" on="1"/>
        <pt x="130" y="87" on="0"/>
        <pt x="138" y="64" on="0"/>
        <pt x="162" y="64" on="0"/>
        <pt x="266" y="94" on="1"/>
        <pt x="266" y="520" on="1"/>
        <pt x="346" y="520" on="1"/>
        <pt x="346" y="0" on="1"/>
        <pt x="289" y="0" on="1"/>
        <pt x="271" y="41" on="1"/>
        <pt x="262" y="38" on="0"/>
        <pt x="204" y="17" on="0"/>
        <pt x="192" y="14" on="1"/>
        <pt x="154" y="2" on="0"/>
        <pt x="129" y="0" on="1"/>
        <pt x="129" y="-161" on="1"/>
      </contour>
    </TTGlyph>
    <TTGlyph name="multiply" xMin="46" yMin="156" xMax="425" yMax="528">
      <contour>
        <pt x="418" y="484" on="1"/>
        <pt x="281" y="347" on="1"/>
        <pt x="425" y="203" on="1"/>
        <pt x="381" y="156" on="1"/>
        <pt x="235" y="301" on="1"/>
        <pt x="93" y="159" on="1"/>
        <pt x="46" y="203" on="1"/>
        <pt x="190" y="347" on="1"/>
        <pt x="56" y="481" on="1"/>
        <pt x="100" y="528" on="1"/>
        <pt x="235" y="392" on="1"/>
        <pt x="371" y="528" on="1"/>
      </contour>
    </TTGlyph>
    <TTGlyph name="n" xMin="60" yMin="0" xMax="355" yMax="527">
      <contour>
        <pt x="60" y="520" on="1"/>
        <pt x="122" y="520" on="1"/>
        <pt x="131" y="491" on="1"/>
        <pt x="145" y="495" on="0"/>
        <pt x="206" y="513" on="0"/>
        <pt x="219" y="516" on="1"/>
        <pt x="258" y="527" on="0"/>
        <pt x="321" y="527" on="0"/>
        <pt x="355" y="477" on="0"/>
        <pt x="355" y="437" on="1"/>
        <pt x="355" y="0" on="1"/>
        <pt x="275" y="0" on="1"/>
        <pt x="275" y="411" on="1"/>
        <pt x="275" y="440" on="0"/>
        <pt x="267" y="463" on="0"/>
        <pt x="243" y="463" on="0"/>
        <pt x="140" y="431" on="1"/>
        <pt x="140" y="0" on="1"/>
        <pt x="60" y="0" on="1"/>
      </contour>
    </TTGlyph>
    <TTGlyph name="nacute" xMin="60" yMin="0" xMax="355" yMax="688">
      <contour>
        <pt x="60" y="520" on="1"/>
        <pt x="122" y="520" on="1"/>
        <pt x="131" y="491" on="1"/>
        <pt x="145" y="495" on="0"/>
        <pt x="206" y="513" on="0"/>
        <pt x="219" y="516" on="1"/>
        <pt x="258" y="527" on="0"/>
        <pt x="321" y="527" on="0"/>
        <pt x="355" y="477" on="0"/>
        <pt x="355" y="437" on="1"/>
        <pt x="355" y="0" on="1"/>
        <pt x="275" y="0" on="1"/>
        <pt x="275" y="411" on="1"/>
        <pt x="275" y="440" on="0"/>
        <pt x="267" y="463" on="0"/>
        <pt x="243" y="463" on="0"/>
        <pt x="140" y="431" on="1"/>
        <pt x="140" y="0" on="1"/>
        <pt x="60" y="0" on="1"/>
      </contour>
      <contour>
        <pt x="204" y="559" on="1"/>
        <pt x="171" y="589" on="1"/>
        <pt x="287" y="688" on="1"/>
        <pt x="338" y="641" on="1"/>
      </contour>
    </TTGlyph>
    <TTGlyph name="nine" xMin="61" yMin="0" xMax="414" yMax="707">
      <contour>
        <pt x="327" y="134" on="1"/>
        <pt x="327" y="294" on="1"/>
        <pt x="192" y="294" on="1"/>
        <pt x="61" y="294" on="0"/>
        <pt x="61" y="429" on="1"/>
        <pt x="61" y="576" on="1"/>
        <pt x="61" y="639" on="0"/>
        <pt x="165" y="707" on="0"/>
        <pt x="310" y="707" on="0"/>
        <pt x="414" y="638" on="0"/>
        <pt x="414" y="575" on="1"/>
        <pt x="414" y="122" on="1"/>
        <pt x="414" y="65" on="0"/>
        <pt x="327" y="0" on="0"/>
        <pt x="244" y="0" on="1"/>
        <pt x="111" y="0" on="1"/>
        <pt x="111" y="66" on="1"/>
        <pt x="243" y="66" on="1"/>
        <pt x="327" y="66" on="0"/>
      </contour>
      <contour>
        <pt x="149" y="580" on="1"/>
        <pt x="149" y="436" on="1"/>
        <pt x="149" y="396" on="0"/>
        <pt x="175" y="361" on="0"/>
        <pt x="216" y="361" on="1"/>
        <pt x="327" y="361" on="1"/>
        <pt x="327" y="579" on="1"/>
        <pt x="327" y="612" on="0"/>
        <pt x="276" y="641" on="0"/>
        <pt x="203" y="641" on="0"/>
        <pt x="149" y="613" on="0"/>
      </contour>
    </TTGlyph>
    <TTGlyph name="ntilde" xMin="60" yMin="0" xMax="355" yMax="682">
      <contour>
        <pt x="259" y="580" on="0"/>
        <pt x="169" y="613" on="0"/>
        <pt x="151" y="613" on="0"/>
        <pt x="143" y="611" on="0"/>
        <pt x="138" y="603" on="0"/>
        <pt x="137" y="598" on="0"/>
        <pt x="135" y="583" on="0"/>
        <pt x="134" y="580" on="1"/>
        <pt x="71" y="580" on="1"/>
        <pt x="72" y="625" on="0"/>
        <pt x="104" y="672" on="0"/>
        <pt x="146" y="672" on="1"/>
        <pt x="157" y="672" on="0"/>
        <pt x="247" y="639" on="0"/>
        <pt x="267" y="639" on="0"/>
        <pt x="277" y="648" on="0"/>
        <pt x="279" y="657" on="0"/>
        <pt x="282" y="678" on="0"/>
        <pt x="283" y="682" on="1"/>
        <pt x="346" y="682" on="1"/>
        <pt x="346" y="603" on="0"/>
        <pt x="312" y="588" on="1"/>
        <pt x="296" y="580" on="0"/>
      </contour>
      <contour>
        <pt x="60" y="520" on="1"/>
        <pt x="122" y="520" on="1"/>
        <pt x="131" y="491" on="1"/>
        <pt x="145" y="495" on="0"/>
        <pt x="206" y="513" on="0"/>
        <pt x="219" y="516" on="1"/>
        <pt x="258" y="527" on="0"/>
        <pt x="321" y="527" on="0"/>
        <pt x="355" y="477" on="0"/>
        <pt x="355" y="437" on="1"/>
        <pt x="355" y="0" on="1"/>
        <pt x="275" y="0" on="1"/>
        <pt x="275" y="411" on="1"/>
        <pt x="275" y="440" on="0"/>
        <pt x="267" y="463" on="0"/>
        <pt x="243" y="463" on="0"/>
        <pt x="140" y="431" on="1"/>
        <pt x="140" y="0" on="1"/>
        <pt x="60" y="0" on="1"/>
      </contour>
    </TTGlyph>
    <TTGlyph name="numbersign" xMin="50" yMin="0" xMax="550" yMax="700">
      <contour>
        <pt x="50" y="434" on="1"/>
        <pt x="50" y="500" on="1"/>
        <pt x="170" y="500" on="1"/>
        <pt x="170" y="700" on="1"/>
        <pt x="250" y="700" on="1"/>
        <pt x="250" y="500" on="1"/>
        <pt x="354" y="500" on="1"/>
        <pt x="354" y="700" on="1"/>
        <pt x="434" y="700" on="1"/>
        <pt x="434" y="500" on="1"/>
        <pt x="550" y="500" on="1"/>
        <pt x="550" y="434" on="1"/>
        <pt x="434" y="434" on="1"/>
        <pt x="434" y="269" on="1"/>
        <pt x="550" y="269" on="1"/>
        <pt x="550" y="203" on="1"/>
        <pt x="434" y="203" on="1"/>
        <pt x="434" y="0" on="1"/>
        <pt x="354" y="0" on="1"/>
        <pt x="354" y="203" on="1"/>
        <pt x="250" y="203" on="1"/>
        <pt x="250" y="0" on="1"/>
        <pt x="170" y="0" on="1"/>
        <pt x="170" y="203" on="1"/>
        <pt x="50" y="203" on="1"/>
        <pt x="50" y="269" on="1"/>
        <pt x="170" y="269" on="1"/>
        <pt x="170" y="434" on="1"/>
      </contour>
      <contour>
        <pt x="250" y="434" on="1"/>
        <pt x="250" y="269" on="1"/>
        <pt x="354" y="269" on="1"/>
        <pt x="354" y="434" on="1"/>
      </contour>
    </TTGlyph>
    <TTGlyph name="o" xMin="40" yMin="-7" xMax="334" yMax="527">
      <contour>
        <pt x="334" y="127" on="1"/>
        <pt x="334" y="64" on="0"/>
        <pt x="257" y="-7" on="0"/>
        <pt x="117" y="-7" on="0"/>
        <pt x="40" y="64" on="0"/>
        <pt x="40" y="127" on="1"/>
        <pt x="40" y="393" on="1"/>
        <pt x="40" y="456" on="0"/>
        <pt x="117" y="527" on="0"/>
        <pt x="257" y="527" on="0"/>
        <pt x="334" y="456" on="0"/>
        <pt x="334" y="393" on="1"/>
      </contour>
      <contour>
        <pt x="118" y="127" on="1"/>
        <pt x="118" y="92" on="0"/>
        <pt x="155" y="55" on="0"/>
        <pt x="219" y="55" on="0"/>
        <pt x="256" y="92" on="0"/>
        <pt x="256" y="127" on="1"/>
        <pt x="256" y="393" on="1"/>
        <pt x="256" y="428" on="0"/>
        <pt x="219" y="465" on="0"/>
        <pt x="155" y="465" on="0"/>
        <pt x="118" y="428" on="0"/>
        <pt x="118" y="393" on="1"/>
      </contour>
    </TTGlyph>
    <TTGlyph name="oacute" xMin="40" yMin="-7" xMax="334" yMax="688">
      <contour>
        <pt x="334" y="127" on="1"/>
        <pt x="334" y="64" on="0"/>
        <pt x="257" y="-7" on="0"/>
        <pt x="117" y="-7" on="0"/>
        <pt x="40" y="64" on="0"/>
        <pt x="40" y="127" on="1"/>
        <pt x="40" y="393" on="1"/>
        <pt x="40" y="456" on="0"/>
        <pt x="117" y="527" on="0"/>
        <pt x="257" y="527" on="0"/>
        <pt x="334" y="456" on="0"/>
        <pt x="334" y="393" on="1"/>
      </contour>
      <contour>
        <pt x="118" y="127" on="1"/>
        <pt x="118" y="92" on="0"/>
        <pt x="155" y="55" on="0"/>
        <pt x="219" y="55" on="0"/>
        <pt x="256" y="92" on="0"/>
        <pt x="256" y="127" on="1"/>
        <pt x="256" y="393" on="1"/>
        <pt x="256" y="428" on="0"/>
        <pt x="219" y="465" on="0"/>
        <pt x="155" y="465" on="0"/>
        <pt x="118" y="428" on="0"/>
        <pt x="118" y="393" on="1"/>
      </contour>
      <contour>
        <pt x="188" y="559" on="1"/>
        <pt x="155" y="589" on="1"/>
        <pt x="271" y="688" on="1"/>
        <pt x="322" y="641" on="1"/>
      </contour>
    </TTGlyph>
    <TTGlyph name="ocircumflex" xMin="40" yMin="-7" xMax="334" yMax="701">
      <contour>
        <pt x="334" y="127" on="1"/>
        <pt x="334" y="64" on="0"/>
        <pt x="257" y="-7" on="0"/>
        <pt x="117" y="-7" on="0"/>
        <pt x="40" y="64" on="0"/>
        <pt x="40" y="127" on="1"/>
        <pt x="40" y="393" on="1"/>
        <pt x="40" y="456" on="0"/>
        <pt x="117" y="527" on="0"/>
        <pt x="257" y="527" on="0"/>
        <pt x="334" y="456" on="0"/>
        <pt x="334" y="393" on="1"/>
      </contour>
      <contour>
        <pt x="118" y="127" on="1"/>
        <pt x="118" y="92" on="0"/>
        <pt x="155" y="55" on="0"/>
        <pt x="219" y="55" on="0"/>
        <pt x="256" y="92" on="0"/>
        <pt x="256" y="127" on="1"/>
        <pt x="256" y="393" on="1"/>
        <pt x="256" y="428" on="0"/>
        <pt x="219" y="465" on="0"/>
        <pt x="155" y="465" on="0"/>
        <pt x="118" y="428" on="0"/>
        <pt x="118" y="393" on="1"/>
      </contour>
      <contour>
        <pt x="73" y="614" on="1"/>
        <pt x="187" y="701" on="1"/>
        <pt x="301" y="614" on="1"/>
        <pt x="252" y="576" on="1"/>
        <pt x="187" y="628" on="1"/>
        <pt x="122" y="576" on="1"/>
      </contour>
    </TTGlyph>
    <TTGlyph name="odieresis" xMin="40" yMin="-7" xMax="334" yMax="679">
      <contour>
        <pt x="334" y="127" on="1"/>
        <pt x="334" y="64" on="0"/>
        <pt x="257" y="-7" on="0"/>
        <pt x="117" y="-7" on="0"/>
        <pt x="40" y="64" on="0"/>
        <pt x="40" y="127" on="1"/>
        <pt x="40" y="393" on="1"/>
        <pt x="40" y="456" on="0"/>
        <pt x="117" y="527" on="0"/>
        <pt x="257" y="527" on="0"/>
        <pt x="334" y="456" on="0"/>
        <pt x="334" y="393" on="1"/>
      </contour>
      <contour>
        <pt x="118" y="127" on="1"/>
        <pt x="118" y="92" on="0"/>
        <pt x="155" y="55" on="0"/>
        <pt x="219" y="55" on="0"/>
        <pt x="256" y="92" on="0"/>
        <pt x="256" y="127" on="1"/>
        <pt x="256" y="393" on="1"/>
        <pt x="256" y="428" on="0"/>
        <pt x="219" y="465" on="0"/>
        <pt x="155" y="465" on="0"/>
        <pt x="118" y="428" on="0"/>
        <pt x="118" y="393" on="1"/>
      </contour>
      <contour>
        <pt x="72" y="599" on="1"/>
        <pt x="72" y="679" on="1"/>
        <pt x="152" y="679" on="1"/>
        <pt x="152" y="599" on="1"/>
      </contour>
      <contour>
        <pt x="217" y="599" on="1"/>
        <pt x="217" y="679" on="1"/>
        <pt x="297" y="679" on="1"/>
        <pt x="297" y="599" on="1"/>
      </contour>
    </TTGlyph>
    <TTGlyph name="oe" xMin="40" yMin="-7" xMax="546" yMax="527">
      <contour>
        <pt x="377" y="520" on="1"/>
        <pt x="429" y="520" on="1"/>
        <pt x="480" y="520" on="0"/>
        <pt x="546" y="462" on="0"/>
        <pt x="546" y="414" on="1"/>
        <pt x="546" y="342" on="1"/>
        <pt x="546" y="270" on="0"/>
        <pt x="459" y="246" on="1"/>
        <pt x="341" y="213" on="1"/>
        <pt x="341" y="115" on="1"/>
        <pt x="341" y="91" on="0"/>
        <pt x="370" y="60" on="0"/>
        <pt x="393" y="60" on="1"/>
        <pt x="502" y="60" on="1"/>
        <pt x="502" y="0" on="1"/>
        <pt x="387" y="0" on="1"/>
        <pt x="331" y="0" on="0"/>
        <pt x="299" y="32" on="1"/>
        <pt x="260" y="-7" on="0"/>
        <pt x="117" y="-7" on="0"/>
        <pt x="40" y="64" on="0"/>
        <pt x="40" y="127" on="1"/>
        <pt x="40" y="394" on="1"/>
        <pt x="40" y="457" on="0"/>
        <pt x="117" y="527" on="0"/>
        <pt x="258" y="527" on="0"/>
        <pt x="298" y="489" on="1"/>
        <pt x="329" y="520" on="0"/>
      </contour>
      <contour>
        <pt x="120" y="131" on="1"/>
        <pt x="120" y="96" on="0"/>
        <pt x="156" y="59" on="0"/>
        <pt x="218" y="59" on="0"/>
        <pt x="254" y="96" on="0"/>
        <pt x="254" y="131" on="1"/>
        <pt x="254" y="390" on="1"/>
        <pt x="254" y="425" on="0"/>
        <pt x="218" y="462" on="0"/>
        <pt x="156" y="462" on="0"/>
        <pt x="120" y="425" on="0"/>
        <pt x="120" y="390" on="1"/>
      </contour>
      <contour>
        <pt x="473" y="464" on="0"/>
        <pt x="341" y="464" on="0"/>
        <pt x="341" y="409" on="1"/>
        <pt x="341" y="269" on="1"/>
        <pt x="365" y="276" on="0"/>
        <pt x="416" y="289" on="0"/>
        <pt x="438" y="295" on="0"/>
        <pt x="462" y="303" on="0"/>
        <pt x="465" y="308" on="1"/>
        <pt x="473" y="323" on="0"/>
        <pt x="473" y="343" on="1"/>
        <pt x="473" y="409" on="1"/>
      </contour>
    </TTGlyph>
    <TTGlyph name="ograve" xMin="40" yMin="-7" xMax="334" yMax="688">
      <contour>
        <pt x="223" y="589" on="1"/>
        <pt x="190" y="559" on="1"/>
        <pt x="56" y="641" on="1"/>
        <pt x="107" y="688" on="1"/>
      </contour>
      <contour>
        <pt x="334" y="127" on="1"/>
        <pt x="334" y="64" on="0"/>
        <pt x="257" y="-7" on="0"/>
        <pt x="117" y="-7" on="0"/>
        <pt x="40" y="64" on="0"/>
        <pt x="40" y="127" on="1"/>
        <pt x="40" y="393" on="1"/>
        <pt x="40" y="456" on="0"/>
        <pt x="117" y="527" on="0"/>
        <pt x="257" y="527" on="0"/>
        <pt x="334" y="456" on="0"/>
        <pt x="334" y="393" on="1"/>
      </contour>
      <contour>
        <pt x="118" y="127" on="1"/>
        <pt x="118" y="92" on="0"/>
        <pt x="155" y="55" on="0"/>
        <pt x="219" y="55" on="0"/>
        <pt x="256" y="92" on="0"/>
        <pt x="256" y="127" on="1"/>
        <pt x="256" y="393" on="1"/>
        <pt x="256" y="428" on="0"/>
        <pt x="219" y="465" on="0"/>
        <pt x="155" y="465" on="0"/>
        <pt x="118" y="428" on="0"/>
        <pt x="118" y="393" on="1"/>
      </contour>
    </TTGlyph>
    <TTGlyph name="one" xMin="60" yMin="0" xMax="235" yMax="700">
      <contour>
        <pt x="147" y="0" on="1"/>
        <pt x="147" y="634" on="1"/>
        <pt x="60" y="634" on="1"/>
        <pt x="60" y="700" on="1"/>
        <pt x="235" y="700" on="1"/>
        <pt x="235" y="0" on="1"/>
      </contour>
    </TTGlyph>
    <TTGlyph name="onehalf" xMin="32" yMin="0" xMax="498" yMax="700">
      <contour>
        <pt x="32" y="0" on="1"/>
        <pt x="399" y="700" on="1"/>
        <pt x="476" y="700" on="1"/>
        <pt x="109" y="0" on="1"/>
      </contour>
      <contour>
        <pt x="81" y="389" on="1"/>
        <pt x="81" y="647" on="1"/>
        <pt x="34" y="647" on="1"/>
        <pt x="34" y="700" on="1"/>
        <pt x="139" y="700" on="1"/>
        <pt x="139" y="389" on="1"/>
      </contour>
      <contour>
        <pt x="498" y="0" on="1"/>
        <pt x="340" y="0" on="1"/>
        <pt x="340" y="45" on="1"/>
        <pt x="357" y="75" on="0"/>
        <pt x="379" y="115" on="1"/>
        <pt x="379" y="115" on="0"/>
        <pt x="410" y="170" on="1"/>
        <pt x="433" y="209" on="0"/>
        <pt x="434" y="217" on="1"/>
        <pt x="437" y="229" on="0"/>
        <pt x="437" y="239" on="1"/>
        <pt x="437" y="260" on="0"/>
        <pt x="398" y="260" on="1"/>
        <pt x="354" y="260" on="1"/>
        <pt x="354" y="311" on="1"/>
        <pt x="438" y="311" on="1"/>
        <pt x="471" y="311" on="0"/>
        <pt x="498" y="273" on="0"/>
        <pt x="498" y="224" on="0"/>
        <pt x="476" y="177" on="0"/>
        <pt x="421" y="86" on="0"/>
        <pt x="401" y="45" on="1"/>
        <pt x="498" y="45" on="1"/>
      </contour>
    </TTGlyph>
    <TTGlyph name="onequarter" xMin="32" yMin="0" xMax="518" yMax="700">
      <contour>
        <pt x="418" y="114" on="1"/>
        <pt x="418" y="262" on="1"/>
        <pt x="414" y="262" on="1"/>
        <pt x="337" y="114" on="1"/>
      </contour>
      <contour>
        <pt x="419" y="0" on="1"/>
        <pt x="419" y="62" on="1"/>
        <pt x="273" y="62" on="1"/>
        <pt x="273" y="114" on="1"/>
        <pt x="374" y="312" on="1"/>
        <pt x="478" y="312" on="1"/>
        <pt x="478" y="114" on="1"/>
        <pt x="518" y="114" on="1"/>
        <pt x="518" y="62" on="1"/>
        <pt x="478" y="62" on="1"/>
        <pt x="478" y="0" on="1"/>
      </contour>
      <contour>
        <pt x="32" y="0" on="1"/>
        <pt x="399" y="700" on="1"/>
        <pt x="476" y="700" on="1"/>
        <pt x="109" y="0" on="1"/>
      </contour>
      <contour>
        <pt x="81" y="389" on="1"/>
        <pt x="81" y="647" on="1"/>
        <pt x="34" y="647" on="1"/>
        <pt x="34" y="700" on="1"/>
        <pt x="139" y="700" on="1"/>
        <pt x="139" y="389" on="1"/>
      </contour>
    </TTGlyph>
    <TTGlyph name="onesuperior" xMin="31" yMin="389" xMax="136" yMax="700">
      <contour>
        <pt x="78" y="389" on="1"/>
        <pt x="78" y="647" on="1"/>
        <pt x="31" y="647" on="1"/>
        <pt x="31" y="700" on="1"/>
        <pt x="136" y="700" on="1"/>
        <pt x="136" y="389" on="1"/>
      </contour>
    </TTGlyph>
    <TTGlyph name="ordfeminine" xMin="91" yMin="388" xMax="263" yMax="700">
      <contour>
        <pt x="115" y="700" on="1"/>
        <pt x="191" y="700" on="1"/>
        <pt x="224" y="700" on="0"/>
        <pt x="263" y="660" on="0"/>
        <pt x="263" y="627" on="1"/>
        <pt x="263" y="388" on="1"/>
        <pt x="170" y="388" on="1"/>
        <pt x="137" y="388" on="0"/>
        <pt x="91" y="431" on="0"/>
        <pt x="91" y="464" on="1"/>
        <pt x="91" y="507" on="1"/>
        <pt x="91" y="557" on="0"/>
        <pt x="140" y="575" on="1"/>
        <pt x="205" y="603" on="1"/>
        <pt x="205" y="621" on="1"/>
        <pt x="205" y="635" on="0"/>
        <pt x="187" y="654" on="0"/>
        <pt x="173" y="654" on="1"/>
        <pt x="115" y="654" on="1"/>
      </contour>
      <contour>
        <pt x="146" y="484" on="1"/>
        <pt x="146" y="473" on="1"/>
        <pt x="146" y="457" on="0"/>
        <pt x="170" y="434" on="0"/>
        <pt x="187" y="434" on="1"/>
        <pt x="205" y="434" on="1"/>
        <pt x="205" y="553" on="1"/>
        <pt x="171" y="538" on="1"/>
        <pt x="146" y="528" on="0"/>
      </contour>
    </TTGlyph>
    <TTGlyph name="ordmasculine" xMin="99" yMin="381" xMax="275" yMax="707">
      <contour>
        <pt x="275" y="461" on="1"/>
        <pt x="275" y="424" on="0"/>
        <pt x="229" y="381" on="0"/>
        <pt x="145" y="381" on="0"/>
        <pt x="99" y="424" on="0"/>
        <pt x="99" y="461" on="1"/>
        <pt x="99" y="627" on="1"/>
        <pt x="99" y="664" on="0"/>
        <pt x="145" y="707" on="0"/>
        <pt x="229" y="707" on="0"/>
        <pt x="275" y="664" on="0"/>
        <pt x="275" y="627" on="1"/>
      </contour>
      <contour>
        <pt x="150" y="467" on="1"/>
        <pt x="150" y="424" on="0"/>
        <pt x="225" y="424" on="0"/>
        <pt x="225" y="467" on="1"/>
        <pt x="225" y="621" on="1"/>
        <pt x="225" y="664" on="0"/>
        <pt x="150" y="664" on="0"/>
        <pt x="150" y="621" on="1"/>
      </contour>
    </TTGlyph>
    <TTGlyph name="oslash" xMin="-30" yMin="-7" xMax="408" yMax="528">
      <contour>
        <pt x="40" y="394" on="1"/>
        <pt x="40" y="457" on="0"/>
        <pt x="117" y="528" on="0"/>
        <pt x="187" y="528" on="1"/>
        <pt x="288" y="528" on="0"/>
        <pt x="321" y="457" on="1"/>
        <pt x="356" y="497" on="1"/>
        <pt x="408" y="461" on="1"/>
        <pt x="334" y="378" on="1"/>
        <pt x="334" y="127" on="1"/>
        <pt x="334" y="64" on="0"/>
        <pt x="257" y="-7" on="0"/>
        <pt x="187" y="-7" on="1"/>
        <pt x="86" y="-7" on="0"/>
        <pt x="53" y="63" on="1"/>
        <pt x="22" y="28" on="1"/>
        <pt x="-30" y="64" on="1"/>
        <pt x="40" y="142" on="1"/>
      </contour>
      <contour>
        <pt x="256" y="394" on="1"/>
        <pt x="256" y="429" on="0"/>
        <pt x="219" y="466" on="0"/>
        <pt x="155" y="466" on="0"/>
        <pt x="118" y="429" on="0"/>
        <pt x="118" y="394" on="1"/>
        <pt x="118" y="230" on="1"/>
        <pt x="256" y="385" on="1"/>
      </contour>
      <contour>
        <pt x="256" y="127" on="1"/>
        <pt x="256" y="290" on="1"/>
        <pt x="118" y="135" on="1"/>
        <pt x="118" y="127" on="1"/>
        <pt x="118" y="92" on="0"/>
        <pt x="155" y="55" on="0"/>
        <pt x="219" y="55" on="0"/>
        <pt x="256" y="92" on="0"/>
      </contour>
    </TTGlyph>
    <TTGlyph name="otilde" xMin="40" yMin="-7" xMax="341" yMax="672">
      <contour>
        <pt x="334" y="127" on="1"/>
        <pt x="334" y="64" on="0"/>
        <pt x="257" y="-7" on="0"/>
        <pt x="117" y="-7" on="0"/>
        <pt x="40" y="64" on="0"/>
        <pt x="40" y="127" on="1"/>
        <pt x="40" y="393" on="1"/>
        <pt x="40" y="456" on="0"/>
        <pt x="117" y="527" on="0"/>
        <pt x="257" y="527" on="0"/>
        <pt x="334" y="456" on="0"/>
        <pt x="334" y="393" on="1"/>
      </contour>
      <contour>
        <pt x="118" y="127" on="1"/>
        <pt x="118" y="92" on="0"/>
        <pt x="155" y="55" on="0"/>
        <pt x="219" y="55" on="0"/>
        <pt x="256" y="92" on="0"/>
        <pt x="256" y="127" on="1"/>
        <pt x="256" y="393" on="1"/>
        <pt x="256" y="428" on="0"/>
        <pt x="219" y="465" on="0"/>
        <pt x="155" y="465" on="0"/>
        <pt x="118" y="428" on="0"/>
        <pt x="118" y="393" on="1"/>
      </contour>
      <contour>
        <pt x="254" y="570" on="0"/>
        <pt x="144" y="603" on="0"/>
        <pt x="126" y="603" on="0"/>
        <pt x="118" y="601" on="0"/>
        <pt x="113" y="593" on="0"/>
        <pt x="112" y="588" on="0"/>
        <pt x="110" y="573" on="0"/>
        <pt x="109" y="570" on="1"/>
        <pt x="46" y="570" on="1"/>
        <pt x="47" y="615" on="0"/>
        <pt x="79" y="662" on="0"/>
        <pt x="121" y="662" on="1"/>
        <pt x="132" y="662" on="0"/>
        <pt x="242" y="629" on="0"/>
        <pt x="262" y="629" on="0"/>
        <pt x="272" y="638" on="0"/>
        <pt x="274" y="647" on="0"/>
        <pt x="277" y="668" on="0"/>
        <pt x="278" y="672" on="1"/>
        <pt x="341" y="672" on="1"/>
        <pt x="341" y="593" on="0"/>
        <pt x="307" y="578" on="1"/>
        <pt x="291" y="570" on="0"/>
      </contour>
    </TTGlyph>
    <TTGlyph name="p" xMin="60" yMin="-160" xMax="354" yMax="520">
      <contour>
        <pt x="140" y="-160" on="1"/>
        <pt x="60" y="-160" on="1"/>
        <pt x="60" y="520" on="1"/>
        <pt x="222" y="520" on="1"/>
        <pt x="277" y="520" on="0"/>
        <pt x="354" y="448" on="0"/>
        <pt x="354" y="394" on="1"/>
        <pt x="354" y="125" on="1"/>
        <pt x="354" y="71" on="0"/>
        <pt x="278" y="0" on="0"/>
        <pt x="223" y="0" on="1"/>
        <pt x="140" y="0" on="1"/>
      </contour>
      <contour>
        <pt x="206" y="460" on="1"/>
        <pt x="140" y="460" on="1"/>
        <pt x="140" y="59" on="1"/>
        <pt x="206" y="59" on="1"/>
        <pt x="234" y="59" on="0"/>
        <pt x="274" y="97" on="0"/>
        <pt x="274" y="125" on="1"/>
        <pt x="274" y="394" on="1"/>
        <pt x="274" y="422" on="0"/>
        <pt x="234" y="460" on="0"/>
      </contour>
    </TTGlyph>
    <TTGlyph name="paragraph" xMin="62" yMin="0" xMax="518" yMax="700">
      <contour>
        <pt x="179" y="700" on="1"/>
        <pt x="518" y="700" on="1"/>
        <pt x="518" y="0" on="1"/>
        <pt x="438" y="0" on="1"/>
        <pt x="438" y="630" on="1"/>
        <pt x="348" y="630" on="1"/>
        <pt x="348" y="0" on="1"/>
        <pt x="268" y="0" on="1"/>
        <pt x="268" y="391" on="1"/>
        <pt x="149" y="424" on="1"/>
        <pt x="62" y="448" on="0"/>
        <pt x="62" y="520" on="1"/>
        <pt x="62" y="592" on="1"/>
        <pt x="62" y="641" on="0"/>
        <pt x="129" y="700" on="0"/>
      </contour>
      <contour>
        <pt x="267" y="642" on="0"/>
        <pt x="135" y="642" on="0"/>
        <pt x="135" y="587" on="1"/>
        <pt x="135" y="530" on="1"/>
        <pt x="135" y="510" on="0"/>
        <pt x="143" y="496" on="1"/>
        <pt x="147" y="488" on="0"/>
        <pt x="192" y="476" on="0"/>
        <pt x="243" y="463" on="0"/>
        <pt x="267" y="456" on="1"/>
        <pt x="267" y="587" on="1"/>
      </contour>
    </TTGlyph>
    <TTGlyph name="parenleft" xMin="60" yMin="-130" xMax="277" yMax="740">
      <contour>
        <pt x="140" y="420" on="1"/>
        <pt x="140" y="190" on="1"/>
        <pt x="140" y="104" on="0"/>
        <pt x="214" y="-63" on="0"/>
        <pt x="277" y="-130" on="1"/>
        <pt x="190" y="-130" on="1"/>
        <pt x="190" y="-130" on="0"/>
        <pt x="176" y="-116" on="1"/>
        <pt x="167" y="-107" on="0"/>
        <pt x="122" y="-44" on="0"/>
        <pt x="88" y="26" on="0"/>
        <pt x="60" y="134" on="0"/>
        <pt x="60" y="190" on="1"/>
        <pt x="60" y="421" on="1"/>
        <pt x="60" y="477" on="0"/>
        <pt x="87" y="583" on="0"/>
        <pt x="106" y="620" on="1"/>
        <pt x="146" y="696" on="0"/>
        <pt x="176" y="726" on="1"/>
        <pt x="190" y="740" on="1"/>
        <pt x="277" y="740" on="1"/>
        <pt x="216" y="679" on="0"/>
        <pt x="140" y="510" on="0"/>
      </contour>
    </TTGlyph>
    <TTGlyph name="parenright" xMin="58" yMin="-130" xMax="275" yMax="740">
      <contour>
        <pt x="195" y="190" on="1"/>
        <pt x="195" y="420" on="1"/>
        <pt x="195" y="510" on="0"/>
        <pt x="119" y="679" on="0"/>
        <pt x="58" y="740" on="1"/>
        <pt x="145" y="740" on="1"/>
        <pt x="145" y="740" on="0"/>
        <pt x="159" y="726" on="1"/>
        <pt x="168" y="717" on="0"/>
        <pt x="213" y="654" on="0"/>
        <pt x="247" y="585" on="0"/>
        <pt x="275" y="477" on="0"/>
        <pt x="275" y="421" on="1"/>
        <pt x="275" y="190" on="1"/>
        <pt x="275" y="134" on="0"/>
        <pt x="248" y="27" on="0"/>
        <pt x="229" y="-10" on="1"/>
        <pt x="189" y="-86" on="0"/>
        <pt x="158" y="-116" on="1"/>
        <pt x="145" y="-130" on="1"/>
        <pt x="58" y="-130" on="1"/>
        <pt x="121" y="-63" on="0"/>
        <pt x="195" y="104" on="0"/>
      </contour>
    </TTGlyph>
    <TTGlyph name="percent" xMin="68" yMin="-7" xMax="733" yMax="707">
      <contour>
        <pt x="362" y="489" on="1"/>
        <pt x="362" y="426" on="0"/>
        <pt x="285" y="355" on="0"/>
        <pt x="145" y="355" on="0"/>
        <pt x="68" y="426" on="0"/>
        <pt x="68" y="489" on="1"/>
        <pt x="68" y="583" on="1"/>
        <pt x="68" y="707" on="0"/>
        <pt x="362" y="707" on="0"/>
        <pt x="362" y="583" on="1"/>
      </contour>
      <contour>
        <pt x="733" y="127" on="1"/>
        <pt x="733" y="64" on="0"/>
        <pt x="656" y="-7" on="0"/>
        <pt x="516" y="-7" on="0"/>
        <pt x="439" y="64" on="0"/>
        <pt x="439" y="127" on="1"/>
        <pt x="439" y="221" on="1"/>
        <pt x="439" y="345" on="0"/>
        <pt x="733" y="345" on="0"/>
        <pt x="733" y="221" on="1"/>
      </contour>
      <contour>
        <pt x="303" y="0" on="1"/>
        <pt x="216" y="0" on="1"/>
        <pt x="490" y="700" on="1"/>
        <pt x="572" y="700" on="1"/>
      </contour>
      <contour>
        <pt x="519" y="214" on="1"/>
        <pt x="519" y="122" on="1"/>
        <pt x="519" y="53" on="0"/>
        <pt x="585" y="53" on="1"/>
        <pt x="653" y="53" on="0"/>
        <pt x="653" y="122" on="1"/>
        <pt x="653" y="214" on="1"/>
        <pt x="653" y="249" on="0"/>
        <pt x="617" y="285" on="0"/>
        <pt x="585" y="285" on="1"/>
        <pt x="519" y="285" on="0"/>
      </contour>
      <contour>
        <pt x="148" y="576" on="1"/>
        <pt x="148" y="484" on="1"/>
        <pt x="148" y="415" on="0"/>
        <pt x="214" y="415" on="1"/>
        <pt x="282" y="415" on="0"/>
        <pt x="282" y="484" on="1"/>
        <pt x="282" y="576" on="1"/>
        <pt x="282" y="611" on="0"/>
        <pt x="246" y="647" on="0"/>
        <pt x="214" y="647" on="1"/>
        <pt x="148" y="647" on="0"/>
      </contour>
    </TTGlyph>
    <TTGlyph name="period" xMin="41" yMin="0" xMax="121" yMax="103">
      <contour>
        <pt x="41" y="0" on="1"/>
        <pt x="41" y="103" on="1"/>
        <pt x="121" y="103" on="1"/>
        <pt x="121" y="0" on="1"/>
      </contour>
    </TTGlyph>
    <TTGlyph name="periodcentered" xMin="34" yMin="254" xMax="114" yMax="357">
      <contour>
        <pt x="34" y="254" on="1"/>
        <pt x="34" y="357" on="1"/>
        <pt x="114" y="357" on="1"/>
        <pt x="114" y="254" on="1"/>
      </contour>
    </TTGlyph>
    <TTGlyph name="plus" xMin="30" yMin="102" xMax="426" yMax="562">
      <contour>
        <pt x="268" y="372" on="1"/>
        <pt x="426" y="372" on="1"/>
        <pt x="426" y="306" on="1"/>
        <pt x="268" y="306" on="1"/>
        <pt x="268" y="102" on="1"/>
        <pt x="188" y="102" on="1"/>
        <pt x="188" y="306" on="1"/>
        <pt x="30" y="306" on="1"/>
        <pt x="30" y="372" on="1"/>
        <pt x="188" y="372" on="1"/>
        <pt x="188" y="562" on="1"/>
        <pt x="268" y="562" on="1"/>
      </contour>
    </TTGlyph>
    <TTGlyph name="plusminus" xMin="30" yMin="99" xMax="436" yMax="590">
      <contour>
        <pt x="436" y="374" on="1"/>
        <pt x="272" y="374" on="1"/>
        <pt x="272" y="210" on="1"/>
        <pt x="192" y="210" on="1"/>
        <pt x="192" y="374" on="1"/>
        <pt x="30" y="374" on="1"/>
        <pt x="30" y="440" on="1"/>
        <pt x="192" y="440" on="1"/>
        <pt x="192" y="590" on="1"/>
        <pt x="272" y="590" on="1"/>
        <pt x="272" y="440" on="1"/>
        <pt x="436" y="440" on="1"/>
      </contour>
      <contour>
        <pt x="430" y="99" on="1"/>
        <pt x="30" y="99" on="1"/>
        <pt x="30" y="165" on="1"/>
        <pt x="430" y="165" on="1"/>
      </contour>
    </TTGlyph>
    <TTGlyph name="q" xMin="41" yMin="-160" xMax="336" yMax="520">
      <contour>
        <pt x="336" y="-160" on="1"/>
        <pt x="255" y="-160" on="1"/>
        <pt x="255" y="0" on="1"/>
        <pt x="172" y="0" on="1"/>
        <pt x="117" y="0" on="0"/>
        <pt x="41" y="71" on="0"/>
        <pt x="41" y="125" on="1"/>
        <pt x="41" y="394" on="1"/>
        <pt x="41" y="448" on="0"/>
        <pt x="118" y="520" on="0"/>
        <pt x="173" y="520" on="1"/>
        <pt x="336" y="520" on="1"/>
      </contour>
      <contour>
        <pt x="256" y="460" on="1"/>
        <pt x="189" y="460" on="1"/>
        <pt x="161" y="460" on="0"/>
        <pt x="121" y="422" on="0"/>
        <pt x="121" y="394" on="1"/>
        <pt x="121" y="126" on="1"/>
        <pt x="121" y="98" on="0"/>
        <pt x="161" y="60" on="0"/>
        <pt x="189" y="60" on="1"/>
        <pt x="256" y="60" on="1"/>
      </contour>
    </TTGlyph>
    <TTGlyph name="question" xMin="125" yMin="0" xMax="411" yMax="700">
      <contour>
        <pt x="219" y="634" on="1"/>
        <pt x="125" y="634" on="1"/>
        <pt x="125" y="700" on="1"/>
        <pt x="238" y="700" on="1"/>
        <pt x="319" y="700" on="0"/>
        <pt x="411" y="619" on="0"/>
        <pt x="411" y="549" on="1"/>
        <pt x="411" y="471" on="0"/>
        <pt x="354" y="412" on="1"/>
        <pt x="330" y="387" on="0"/>
        <pt x="306" y="363" on="1"/>
        <pt x="250" y="305" on="0"/>
        <pt x="250" y="237" on="1"/>
        <pt x="250" y="174" on="1"/>
        <pt x="170" y="174" on="1"/>
        <pt x="170" y="232" on="1"/>
        <pt x="170" y="276" on="0"/>
        <pt x="203" y="351" on="0"/>
        <pt x="250" y="402" on="0"/>
        <pt x="274" y="426" on="1"/>
        <pt x="330" y="484" on="0"/>
        <pt x="330" y="541" on="1"/>
        <pt x="330" y="634" on="0"/>
      </contour>
      <contour>
        <pt x="170" y="0" on="1"/>
        <pt x="170" y="90" on="1"/>
        <pt x="250" y="90" on="1"/>
        <pt x="250" y="0" on="1"/>
      </contour>
    </TTGlyph>
    <TTGlyph name="questiondown" xMin="81" yMin="0" xMax="369" yMax="700">
      <contour>
        <pt x="275" y="66" on="1"/>
        <pt x="369" y="66" on="1"/>
        <pt x="369" y="0" on="1"/>
        <pt x="254" y="0" on="1"/>
        <pt x="173" y="0" on="0"/>
        <pt x="81" y="81" on="0"/>
        <pt x="81" y="151" on="1"/>
        <pt x="81" y="228" on="0"/>
        <pt x="138" y="288" on="1"/>
        <pt x="161" y="313" on="0"/>
        <pt x="185" y="337" on="1"/>
        <pt x="242" y="394" on="0"/>
        <pt x="242" y="463" on="1"/>
        <pt x="242" y="526" on="1"/>
        <pt x="322" y="526" on="1"/>
        <pt x="322" y="468" on="1"/>
        <pt x="322" y="424" on="0"/>
        <pt x="289" y="349" on="0"/>
        <pt x="243" y="298" on="0"/>
        <pt x="220" y="274" on="1"/>
        <pt x="164" y="216" on="0"/>
        <pt x="164" y="159" on="1"/>
        <pt x="164" y="66" on="0"/>
      </contour>
      <contour>
        <pt x="322" y="700" on="1"/>
        <pt x="322" y="610" on="1"/>
        <pt x="242" y="610" on="1"/>
        <pt x="242" y="700" on="1"/>
      </contour>
    </TTGlyph>
    <TTGlyph name="quotedbl" xMin="51" yMin="510" xMax="284" yMax="700">
      <contour>
        <pt x="144" y="700" on="1"/>
        <pt x="135" y="510" on="1"/>
        <pt x="51" y="510" on="1"/>
        <pt x="64" y="700" on="1"/>
      </contour>
      <contour>
        <pt x="284" y="700" on="1"/>
        <pt x="275" y="510" on="1"/>
        <pt x="191" y="510" on="1"/>
        <pt x="204" y="700" on="1"/>
      </contour>
    </TTGlyph>
    <TTGlyph name="quotedblbase" xMin="51" yMin="510" xMax="284" yMax="700">
      <contour>
        <pt x="191" y="510" on="1"/>
        <pt x="199" y="700" on="1"/>
        <pt x="284" y="700" on="1"/>
        <pt x="271" y="510" on="1"/>
      </contour>
      <contour>
        <pt x="51" y="510" on="1"/>
        <pt x="59" y="700" on="1"/>
        <pt x="144" y="700" on="1"/>
        <pt x="131" y="510" on="1"/>
      </contour>
    </TTGlyph>
    <TTGlyph name="quotedblleft" xMin="26" yMin="510" xMax="259" yMax="700">
      <contour>
        <pt x="174" y="510" on="1"/>
        <pt x="166" y="700" on="1"/>
        <pt x="246" y="700" on="1"/>
        <pt x="259" y="510" on="1"/>
      </contour>
      <contour>
        <pt x="34" y="510" on="1"/>
        <pt x="26" y="700" on="1"/>
        <pt x="106" y="700" on="1"/>
        <pt x="119" y="510" on="1"/>
      </contour>
    </TTGlyph>
    <TTGlyph name="quotedblright" xMin="26" yMin="510" xMax="259" yMax="700">
      <contour>
        <pt x="166" y="510" on="1"/>
        <pt x="174" y="700" on="1"/>
        <pt x="259" y="700" on="1"/>
        <pt x="246" y="510" on="1"/>
      </contour>
      <contour>
        <pt x="26" y="510" on="1"/>
        <pt x="34" y="700" on="1"/>
        <pt x="119" y="700" on="1"/>
        <pt x="106" y="510" on="1"/>
      </contour>
    </TTGlyph>
    <TTGlyph name="quoteleft" xMin="27" yMin="510" xMax="120" yMax="700">
      <contour>
        <pt x="112" y="700" on="1"/>
        <pt x="120" y="510" on="1"/>
        <pt x="40" y="510" on="1"/>
        <pt x="27" y="700" on="1"/>
      </contour>
    </TTGlyph>
    <TTGlyph name="quoteright" xMin="27" yMin="510" xMax="120" yMax="700">
      <contour>
        <pt x="27" y="510" on="1"/>
        <pt x="35" y="700" on="1"/>
        <pt x="120" y="700" on="1"/>
        <pt x="107" y="510" on="1"/>
      </contour>
    </TTGlyph>
    <TTGlyph name="quotesinglbase" xMin="27" yMin="510" xMax="120" yMax="700">
      <contour>
        <pt x="27" y="510" on="1"/>
        <pt x="35" y="700" on="1"/>
        <pt x="120" y="700" on="1"/>
        <pt x="107" y="510" on="1"/>
      </contour>
    </TTGlyph>
    <TTGlyph name="quotesingle" xMin="51" yMin="510" xMax="144" yMax="700">
      <contour>
        <pt x="144" y="700" on="1"/>
        <pt x="136" y="510" on="1"/>
        <pt x="51" y="510" on="1"/>
        <pt x="64" y="700" on="1"/>
      </contour>
    </TTGlyph>
    <TTGlyph name="r" xMin="60" yMin="0" xMax="253" yMax="527">
      <contour>
        <pt x="253" y="527" on="1"/>
        <pt x="253" y="468" on="1"/>
        <pt x="227" y="468" on="0"/>
        <pt x="140" y="426" on="1"/>
        <pt x="140" y="0" on="1"/>
        <pt x="60" y="0" on="1"/>
        <pt x="60" y="520" on="1"/>
        <pt x="122" y="520" on="1"/>
        <pt x="131" y="483" on="1"/>
        <pt x="192" y="513" on="0"/>
        <pt x="238" y="527" on="0"/>
      </contour>
    </TTGlyph>
    <TTGlyph name="rcaron" xMin="31" yMin="0" xMax="263" yMax="674">
      <contour>
        <pt x="253" y="468" on="1"/>
        <pt x="227" y="468" on="0"/>
        <pt x="140" y="426" on="1"/>
        <pt x="140" y="0" on="1"/>
        <pt x="60" y="0" on="1"/>
        <pt x="60" y="520" on="1"/>
        <pt x="122" y="520" on="1"/>
        <pt x="131" y="483" on="1"/>
        <pt x="176" y="506" on="0"/>
        <pt x="205" y="518" on="1"/>
        <pt x="228" y="527" on="0"/>
        <pt x="253" y="527" on="1"/>
      </contour>
      <contour>
        <pt x="147" y="545" on="1"/>
        <pt x="31" y="644" on="1"/>
        <pt x="64" y="674" on="1"/>
        <pt x="147" y="623" on="1"/>
        <pt x="230" y="674" on="1"/>
        <pt x="263" y="644" on="1"/>
      </contour>
    </TTGlyph>
    <TTGlyph name="rcommaaccent" xMin="60" yMin="-204" xMax="253" yMax="527">
      <contour>
        <pt x="64" y="-204" on="1"/>
        <pt x="64" y="-50" on="1"/>
        <pt x="136" y="-50" on="1"/>
        <pt x="131" y="-204" on="1"/>
      </contour>
      <contour>
        <pt x="253" y="527" on="1"/>
        <pt x="253" y="468" on="1"/>
        <pt x="227" y="468" on="0"/>
        <pt x="140" y="426" on="1"/>
        <pt x="140" y="0" on="1"/>
        <pt x="60" y="0" on="1"/>
        <pt x="60" y="520" on="1"/>
        <pt x="122" y="520" on="1"/>
        <pt x="131" y="483" on="1"/>
        <pt x="192" y="513" on="0"/>
        <pt x="238" y="527" on="0"/>
      </contour>
    </TTGlyph>
    <TTGlyph name="registered" xMin="45" yMin="-5" xMax="599" yMax="707">
      <contour>
        <pt x="599" y="139" on="1"/>
        <pt x="599" y="91" on="0"/>
        <pt x="496" y="22" on="0"/>
        <pt x="376" y="-5" on="0"/>
        <pt x="268" y="-5" on="0"/>
        <pt x="148" y="22" on="0"/>
        <pt x="45" y="91" on="0"/>
        <pt x="45" y="139" on="1"/>
        <pt x="45" y="573" on="1"/>
        <pt x="45" y="609" on="0"/>
        <pt x="104" y="665" on="0"/>
        <pt x="194" y="693" on="0"/>
        <pt x="282" y="707" on="0"/>
        <pt x="362" y="707" on="0"/>
        <pt x="450" y="693" on="0"/>
        <pt x="540" y="665" on="0"/>
        <pt x="599" y="609" on="0"/>
        <pt x="599" y="573" on="1"/>
      </contour>
      <contour>
        <pt x="125" y="554" on="1"/>
        <pt x="125" y="140" on="1"/>
        <pt x="125" y="116" on="0"/>
        <pt x="173" y="82" on="0"/>
        <pt x="244" y="67" on="0"/>
        <pt x="300" y="61" on="0"/>
        <pt x="342" y="61" on="0"/>
        <pt x="398" y="67" on="0"/>
        <pt x="471" y="82" on="0"/>
        <pt x="519" y="116" on="0"/>
        <pt x="519" y="140" on="1"/>
        <pt x="519" y="574" on="1"/>
        <pt x="519" y="605" on="0"/>
        <pt x="375" y="635" on="0"/>
        <pt x="301" y="635" on="0"/>
        <pt x="244" y="628" on="0"/>
        <pt x="173" y="612" on="0"/>
        <pt x="125" y="578" on="0"/>
      </contour>
      <contour>
        <pt x="275" y="324" on="1"/>
        <pt x="275" y="151" on="1"/>
        <pt x="208" y="151" on="1"/>
        <pt x="208" y="545" on="1"/>
        <pt x="319" y="545" on="1"/>
        <pt x="371" y="545" on="0"/>
        <pt x="430" y="491" on="0"/>
        <pt x="430" y="402" on="0"/>
        <pt x="391" y="343" on="0"/>
        <pt x="362" y="331" on="1"/>
        <pt x="440" y="151" on="1"/>
        <pt x="379" y="151" on="1"/>
        <pt x="303" y="324" on="1"/>
      </contour>
      <contour>
        <pt x="276" y="497" on="1"/>
        <pt x="276" y="372" on="1"/>
        <pt x="310" y="372" on="1"/>
        <pt x="341" y="372" on="0"/>
        <pt x="377" y="413" on="0"/>
        <pt x="377" y="467" on="0"/>
        <pt x="342" y="497" on="0"/>
        <pt x="310" y="497" on="1"/>
      </contour>
    </TTGlyph>
    <TTGlyph name="ring" xMin="123" yMin="558" xMax="265" yMax="692">
      <contour>
        <pt x="265" y="615" on="1"/>
        <pt x="265" y="589" on="0"/>
        <pt x="225" y="558" on="0"/>
        <pt x="164" y="558" on="0"/>
        <pt x="123" y="589" on="0"/>
        <pt x="123" y="615" on="1"/>
        <pt x="123" y="639" on="1"/>
        <pt x="123" y="664" on="0"/>
        <pt x="163" y="692" on="0"/>
        <pt x="225" y="692" on="0"/>
        <pt x="265" y="664" on="0"/>
        <pt x="265" y="639" on="1"/>
      </contour>
      <contour>
        <pt x="165" y="632" on="1"/>
        <pt x="165" y="618" on="1"/>
        <pt x="165" y="593" on="0"/>
        <pt x="223" y="593" on="0"/>
        <pt x="223" y="618" on="1"/>
        <pt x="223" y="632" on="1"/>
        <pt x="223" y="658" on="0"/>
        <pt x="165" y="658" on="0"/>
      </contour>
    </TTGlyph>
    <TTGlyph name="s" xMin="30" yMin="0" xMax="270" yMax="520">
      <contour>
        <pt x="197" y="145" on="1"/>
        <pt x="197" y="191" on="0"/>
        <pt x="138" y="236" on="1"/>
        <pt x="114" y="254" on="0"/>
        <pt x="89" y="274" on="1"/>
        <pt x="30" y="323" on="0"/>
        <pt x="30" y="398" on="1"/>
        <pt x="30" y="451" on="0"/>
        <pt x="101" y="520" on="0"/>
        <pt x="161" y="520" on="1"/>
        <pt x="248" y="520" on="1"/>
        <pt x="248" y="460" on="1"/>
        <pt x="176" y="460" on="1"/>
        <pt x="105" y="460" on="0"/>
        <pt x="105" y="393" on="1"/>
        <pt x="105" y="352" on="0"/>
        <pt x="164" y="309" on="1"/>
        <pt x="188" y="291" on="0"/>
        <pt x="236" y="250" on="0"/>
        <pt x="270" y="183" on="0"/>
        <pt x="270" y="141" on="1"/>
        <pt x="270" y="70" on="0"/>
        <pt x="195" y="0" on="0"/>
        <pt x="127" y="0" on="1"/>
        <pt x="30" y="0" on="1"/>
        <pt x="30" y="60" on="1"/>
        <pt x="115" y="60" on="1"/>
        <pt x="197" y="60" on="0"/>
      </contour>
    </TTGlyph>
    <TTGlyph name="section" xMin="11" yMin="-1" xMax="321" yMax="700">
      <contour>
        <pt x="171" y="59" on="0"/>
        <pt x="228" y="109" on="0"/>
        <pt x="228" y="185" on="0"/>
        <pt x="183" y="239" on="0"/>
        <pt x="119" y="269" on="0"/>
        <pt x="56" y="299" on="0"/>
        <pt x="11" y="355" on="0"/>
        <pt x="11" y="397" on="1"/>
        <pt x="11" y="462" on="0"/>
        <pt x="63" y="497" on="1"/>
        <pt x="31" y="529" on="0"/>
        <pt x="31" y="632" on="0"/>
        <pt x="102" y="700" on="0"/>
        <pt x="162" y="700" on="1"/>
        <pt x="289" y="700" on="1"/>
        <pt x="289" y="641" on="1"/>
        <pt x="177" y="641" on="1"/>
        <pt x="106" y="641" on="0"/>
        <pt x="106" y="574" on="1"/>
        <pt x="106" y="530" on="0"/>
        <pt x="182" y="494" on="1"/>
        <pt x="214" y="478" on="0"/>
        <pt x="277" y="439" on="0"/>
        <pt x="321" y="370" on="0"/>
        <pt x="321" y="259" on="0"/>
        <pt x="280" y="221" on="1"/>
        <pt x="301" y="185" on="0"/>
        <pt x="301" y="140" on="1"/>
        <pt x="301" y="71" on="0"/>
        <pt x="209" y="-1" on="0"/>
        <pt x="138" y="-1" on="1"/>
        <pt x="41" y="-1" on="1"/>
        <pt x="41" y="59" on="1"/>
        <pt x="126" y="59" on="1"/>
      </contour>
      <contour>
        <pt x="228" y="274" on="1"/>
        <pt x="248" y="296" on="0"/>
        <pt x="248" y="352" on="0"/>
        <pt x="231" y="392" on="0"/>
        <pt x="212" y="408" on="1"/>
        <pt x="186" y="429" on="0"/>
        <pt x="128" y="456" on="1"/>
        <pt x="86" y="445" on="0"/>
        <pt x="86" y="392" on="1"/>
        <pt x="86" y="366" on="0"/>
        <pt x="124" y="331" on="0"/>
        <pt x="210" y="286" on="0"/>
      </contour>
    </TTGlyph>
    <TTGlyph name="semicolon" xMin="0" yMin="-123" xMax="122" yMax="519">
      <contour>
        <pt x="42" y="416" on="1"/>
        <pt x="42" y="519" on="1"/>
        <pt x="122" y="519" on="1"/>
        <pt x="122" y="416" on="1"/>
      </contour>
      <contour>
        <pt x="43" y="103" on="1"/>
        <pt x="122" y="103" on="1"/>
        <pt x="122" y="1" on="1"/>
        <pt x="61" y="-123" on="1"/>
        <pt x="0" y="-123" on="1"/>
        <pt x="43" y="0" on="1"/>
      </contour>
    </TTGlyph>
    <TTGlyph name="seven" xMin="60" yMin="0" xMax="359" yMax="700">
      <contour>
        <pt x="60" y="634" on="1"/>
        <pt x="60" y="700" on="1"/>
        <pt x="359" y="700" on="1"/>
        <pt x="359" y="634" on="1"/>
        <pt x="163" y="0" on="1"/>
        <pt x="70" y="0" on="1"/>
        <pt x="271" y="634" on="1"/>
      </contour>
    </TTGlyph>
    <TTGlyph name="six" xMin="61" yMin="-7" xMax="413" yMax="700">
      <contour>
        <pt x="413" y="284" on="1"/>
        <pt x="413" y="124" on="1"/>
        <pt x="413" y="61" on="0"/>
        <pt x="309" y="-7" on="0"/>
        <pt x="164" y="-7" on="0"/>
        <pt x="61" y="62" on="0"/>
        <pt x="61" y="125" on="1"/>
        <pt x="61" y="538" on="1"/>
        <pt x="61" y="615" on="0"/>
        <pt x="149" y="700" on="0"/>
        <pt x="228" y="700" on="1"/>
        <pt x="364" y="700" on="1"/>
        <pt x="364" y="634" on="1"/>
        <pt x="240" y="634" on="1"/>
        <pt x="196" y="634" on="0"/>
        <pt x="148" y="582" on="0"/>
        <pt x="148" y="536" on="1"/>
        <pt x="148" y="410" on="1"/>
        <pt x="283" y="410" on="1"/>
        <pt x="350" y="410" on="0"/>
        <pt x="413" y="350" on="0"/>
      </contour>
      <contour>
        <pt x="326" y="120" on="1"/>
        <pt x="326" y="278" on="1"/>
        <pt x="326" y="316" on="0"/>
        <pt x="300" y="344" on="0"/>
        <pt x="259" y="344" on="1"/>
        <pt x="148" y="344" on="1"/>
        <pt x="148" y="121" on="1"/>
        <pt x="148" y="88" on="0"/>
        <pt x="199" y="59" on="0"/>
        <pt x="272" y="59" on="0"/>
        <pt x="326" y="87" on="0"/>
      </contour>
    </TTGlyph>
    <TTGlyph name="slash" xMin="21" yMin="0" xMax="377" yMax="700">
      <contour>
        <pt x="108" y="0" on="1"/>
        <pt x="21" y="0" on="1"/>
        <pt x="295" y="700" on="1"/>
        <pt x="377" y="700" on="1"/>
      </contour>
    </TTGlyph>
    <TTGlyph name="sterling" xMin="9" yMin="0" xMax="367" yMax="700">
      <contour>
        <pt x="71" y="0" on="1"/>
        <pt x="71" y="375" on="1"/>
        <pt x="9" y="375" on="1"/>
        <pt x="9" y="441" on="1"/>
        <pt x="71" y="441" on="1"/>
        <pt x="71" y="578" on="1"/>
        <pt x="71" y="634" on="0"/>
        <pt x="135" y="700" on="0"/>
        <pt x="190" y="700" on="1"/>
        <pt x="367" y="700" on="1"/>
        <pt x="367" y="632" on="1"/>
        <pt x="210" y="632" on="1"/>
        <pt x="187" y="632" on="0"/>
        <pt x="157" y="600" on="0"/>
        <pt x="157" y="577" on="1"/>
        <pt x="157" y="441" on="1"/>
        <pt x="366" y="441" on="1"/>
        <pt x="366" y="375" on="1"/>
        <pt x="159" y="375" on="1"/>
        <pt x="159" y="67" on="1"/>
        <pt x="366" y="67" on="1"/>
        <pt x="366" y="0" on="1"/>
      </contour>
    </TTGlyph>
    <TTGlyph name="t" xMin="26" yMin="0" xMax="246" yMax="701">
      <contour>
        <pt x="166" y="460" on="1"/>
        <pt x="166" y="115" on="1"/>
        <pt x="166" y="91" on="0"/>
        <pt x="193" y="60" on="0"/>
        <pt x="216" y="60" on="1"/>
        <pt x="246" y="60" on="1"/>
        <pt x="246" y="0" on="1"/>
        <pt x="205" y="0" on="1"/>
        <pt x="150" y="0" on="0"/>
        <pt x="86" y="66" on="0"/>
        <pt x="86" y="122" on="1"/>
        <pt x="86" y="460" on="1"/>
        <pt x="26" y="460" on="1"/>
        <pt x="26" y="520" on="1"/>
        <pt x="86" y="520" on="1"/>
        <pt x="86" y="671" on="1"/>
        <pt x="166" y="701" on="1"/>
        <pt x="166" y="520" on="1"/>
        <pt x="246" y="520" on="1"/>
        <pt x="246" y="460" on="1"/>
      </contour>
    </TTGlyph>
    <TTGlyph name="thorn" xMin="60" yMin="-160" xMax="355" yMax="700">
      <contour>
        <pt x="140" y="0" on="1"/>
        <pt x="140" y="-160" on="1"/>
        <pt x="60" y="-160" on="1"/>
        <pt x="60" y="700" on="1"/>
        <pt x="140" y="700" on="1"/>
        <pt x="140" y="544" on="1"/>
        <pt x="273" y="497" on="1"/>
        <pt x="308" y="485" on="0"/>
        <pt x="355" y="426" on="0"/>
        <pt x="355" y="383" on="1"/>
        <pt x="355" y="126" on="1"/>
        <pt x="355" y="72" on="0"/>
        <pt x="279" y="0" on="0"/>
        <pt x="224" y="0" on="1"/>
      </contour>
      <contour>
        <pt x="140" y="60" on="1"/>
        <pt x="208" y="60" on="1"/>
        <pt x="236" y="60" on="0"/>
        <pt x="276" y="98" on="0"/>
        <pt x="276" y="126" on="1"/>
        <pt x="276" y="367" on="1"/>
        <pt x="276" y="405" on="0"/>
        <pt x="255" y="440" on="0"/>
        <pt x="229" y="448" on="1"/>
        <pt x="140" y="478" on="1"/>
      </contour>
    </TTGlyph>
    <TTGlyph name="three" xMin="60" yMin="0" xMax="390" yMax="700">
      <contour>
        <pt x="60" y="66" on="1"/>
        <pt x="160" y="66" on="1"/>
        <pt x="306" y="66" on="0"/>
        <pt x="306" y="212" on="1"/>
        <pt x="306" y="279" on="0"/>
        <pt x="220" y="342" on="0"/>
        <pt x="161" y="342" on="1"/>
        <pt x="90" y="342" on="1"/>
        <pt x="90" y="408" on="1"/>
        <pt x="161" y="408" on="1"/>
        <pt x="221" y="408" on="0"/>
        <pt x="287" y="471" on="0"/>
        <pt x="287" y="587" on="0"/>
        <pt x="224" y="634" on="0"/>
        <pt x="161" y="634" on="1"/>
        <pt x="60" y="634" on="1"/>
        <pt x="60" y="700" on="1"/>
        <pt x="180" y="700" on="1"/>
        <pt x="273" y="700" on="0"/>
        <pt x="365" y="615" on="0"/>
        <pt x="365" y="524" on="1"/>
        <pt x="365" y="474" on="0"/>
        <pt x="328" y="391" on="0"/>
        <pt x="300" y="372" on="1"/>
        <pt x="339" y="351" on="0"/>
        <pt x="390" y="267" on="0"/>
        <pt x="390" y="181" on="0"/>
        <pt x="382" y="129" on="0"/>
        <pt x="355" y="68" on="0"/>
        <pt x="332" y="48" on="1"/>
        <pt x="277" y="0" on="0"/>
        <pt x="165" y="0" on="1"/>
        <pt x="60" y="0" on="1"/>
      </contour>
    </TTGlyph>
    <TTGlyph name="threequarters" xMin="32" yMin="0" xMax="519" yMax="700">
      <contour>
        <pt x="35" y="0" on="1"/>
        <pt x="402" y="700" on="1"/>
        <pt x="479" y="700" on="1"/>
        <pt x="112" y="0" on="1"/>
      </contour>
      <contour>
        <pt x="32" y="434" on="1"/>
        <pt x="73" y="434" on="1"/>
        <pt x="95" y="434" on="0"/>
        <pt x="119" y="440" on="0"/>
        <pt x="138" y="465" on="0"/>
        <pt x="138" y="519" on="0"/>
        <pt x="107" y="538" on="0"/>
        <pt x="68" y="538" on="1"/>
        <pt x="36" y="538" on="1"/>
        <pt x="36" y="583" on="1"/>
        <pt x="83" y="583" on="1"/>
        <pt x="133" y="583" on="0"/>
        <pt x="133" y="617" on="1"/>
        <pt x="133" y="635" on="0"/>
        <pt x="109" y="648" on="0"/>
        <pt x="83" y="648" on="1"/>
        <pt x="32" y="648" on="1"/>
        <pt x="32" y="699" on="1"/>
        <pt x="98" y="699" on="1"/>
        <pt x="142" y="699" on="0"/>
        <pt x="192" y="659" on="0"/>
        <pt x="192" y="630" on="1"/>
        <pt x="192" y="578" on="0"/>
        <pt x="160" y="560" on="1"/>
        <pt x="196" y="539" on="0"/>
        <pt x="196" y="448" on="0"/>
        <pt x="151" y="388" on="0"/>
        <pt x="94" y="388" on="1"/>
        <pt x="32" y="388" on="1"/>
      </contour>
      <contour>
        <pt x="419" y="114" on="1"/>
        <pt x="419" y="262" on="1"/>
        <pt x="415" y="262" on="1"/>
        <pt x="338" y="114" on="1"/>
      </contour>
      <contour>
        <pt x="420" y="0" on="1"/>
        <pt x="420" y="62" on="1"/>
        <pt x="274" y="62" on="1"/>
        <pt x="274" y="114" on="1"/>
        <pt x="375" y="312" on="1"/>
        <pt x="479" y="312" on="1"/>
        <pt x="479" y="114" on="1"/>
        <pt x="519" y="114" on="1"/>
        <pt x="519" y="62" on="1"/>
        <pt x="479" y="62" on="1"/>
        <pt x="479" y="0" on="1"/>
      </contour>
    </TTGlyph>
    <TTGlyph name="threesuperior" xMin="31" yMin="389" xMax="195" yMax="700">
      <contour>
        <pt x="31" y="435" on="1"/>
        <pt x="72" y="435" on="1"/>
        <pt x="94" y="435" on="0"/>
        <pt x="118" y="441" on="0"/>
        <pt x="137" y="466" on="0"/>
        <pt x="137" y="520" on="0"/>
        <pt x="106" y="539" on="0"/>
        <pt x="67" y="539" on="1"/>
        <pt x="35" y="539" on="1"/>
        <pt x="35" y="584" on="1"/>
        <pt x="82" y="584" on="1"/>
        <pt x="132" y="584" on="0"/>
        <pt x="132" y="618" on="1"/>
        <pt x="132" y="636" on="0"/>
        <pt x="108" y="649" on="0"/>
        <pt x="82" y="649" on="1"/>
        <pt x="31" y="649" on="1"/>
        <pt x="31" y="700" on="1"/>
        <pt x="97" y="700" on="1"/>
        <pt x="141" y="700" on="0"/>
        <pt x="191" y="660" on="0"/>
        <pt x="191" y="631" on="1"/>
        <pt x="191" y="579" on="0"/>
        <pt x="159" y="561" on="1"/>
        <pt x="195" y="540" on="0"/>
        <pt x="195" y="449" on="0"/>
        <pt x="150" y="389" on="0"/>
        <pt x="93" y="389" on="1"/>
        <pt x="31" y="389" on="1"/>
      </contour>
    </TTGlyph>
    <TTGlyph name="tilde" xMin="71" yMin="580" xMax="346" yMax="682">
      <contour>
        <pt x="259" y="580" on="0"/>
        <pt x="169" y="613" on="0"/>
        <pt x="151" y="613" on="0"/>
        <pt x="143" y="611" on="0"/>
        <pt x="138" y="603" on="0"/>
        <pt x="137" y="598" on="0"/>
        <pt x="135" y="583" on="0"/>
        <pt x="134" y="580" on="1"/>
        <pt x="71" y="580" on="1"/>
        <pt x="72" y="625" on="0"/>
        <pt x="104" y="672" on="0"/>
        <pt x="146" y="672" on="1"/>
        <pt x="157" y="672" on="0"/>
        <pt x="247" y="639" on="0"/>
        <pt x="267" y="639" on="0"/>
        <pt x="277" y="648" on="0"/>
        <pt x="279" y="657" on="0"/>
        <pt x="282" y="678" on="0"/>
        <pt x="283" y="682" on="1"/>
        <pt x="346" y="682" on="1"/>
        <pt x="346" y="603" on="0"/>
        <pt x="312" y="588" on="1"/>
        <pt x="296" y="580" on="0"/>
      </contour>
    </TTGlyph>
    <TTGlyph name="two" xMin="60" yMin="0" xMax="367" yMax="700">
      <contour>
        <pt x="367" y="0" on="1"/>
        <pt x="60" y="0" on="1"/>
        <pt x="60" y="65" on="1"/>
        <pt x="207" y="347" on="0"/>
        <pt x="275" y="508" on="0"/>
        <pt x="275" y="561" on="1"/>
        <pt x="275" y="631" on="0"/>
        <pt x="188" y="631" on="1"/>
        <pt x="91" y="631" on="1"/>
        <pt x="91" y="700" on="1"/>
        <pt x="233" y="700" on="1"/>
        <pt x="306" y="700" on="0"/>
        <pt x="367" y="615" on="0"/>
        <pt x="367" y="502" on="0"/>
        <pt x="322" y="387" on="0"/>
        <pt x="189" y="143" on="0"/>
        <pt x="152" y="66" on="1"/>
        <pt x="367" y="66" on="1"/>
      </contour>
    </TTGlyph>
    <TTGlyph name="twosuperior" xMin="31" yMin="389" xMax="189" yMax="700">
      <contour>
        <pt x="189" y="389" on="1"/>
        <pt x="31" y="389" on="1"/>
        <pt x="31" y="434" on="1"/>
        <pt x="48" y="464" on="0"/>
        <pt x="70" y="504" on="1"/>
        <pt x="70" y="504" on="0"/>
        <pt x="102" y="559" on="1"/>
        <pt x="124" y="598" on="0"/>
        <pt x="125" y="606" on="1"/>
        <pt x="128" y="618" on="0"/>
        <pt x="128" y="628" on="1"/>
        <pt x="128" y="649" on="0"/>
        <pt x="89" y="649" on="1"/>
        <pt x="45" y="649" on="1"/>
        <pt x="45" y="700" on="1"/>
        <pt x="129" y="700" on="1"/>
        <pt x="162" y="700" on="0"/>
        <pt x="189" y="662" on="0"/>
        <pt x="189" y="613" on="0"/>
        <pt x="167" y="566" on="0"/>
        <pt x="112" y="475" on="0"/>
        <pt x="92" y="434" on="1"/>
        <pt x="189" y="434" on="1"/>
      </contour>
    </TTGlyph>
    <TTGlyph name="u" xMin="50" yMin="-7" xMax="346" yMax="520">
      <contour>
        <pt x="346" y="0" on="1"/>
        <pt x="289" y="0" on="1"/>
        <pt x="274" y="34" on="1"/>
        <pt x="259" y="30" on="0"/>
        <pt x="209" y="11" on="0"/>
        <pt x="175" y="1" on="0"/>
        <pt x="166" y="-1" on="1"/>
        <pt x="137" y="-7" on="0"/>
        <pt x="121" y="-7" on="1"/>
        <pt x="85" y="-7" on="0"/>
        <pt x="50" y="43" on="0"/>
        <pt x="50" y="83" on="1"/>
        <pt x="50" y="520" on="1"/>
        <pt x="130" y="520" on="1"/>
        <pt x="130" y="109" on="1"/>
        <pt x="130" y="74" on="0"/>
        <pt x="142" y="57" on="0"/>
        <pt x="160" y="57" on="0"/>
        <pt x="266" y="87" on="1"/>
        <pt x="266" y="520" on="1"/>
        <pt x="346" y="520" on="1"/>
      </contour>
    </TTGlyph>
    <TTGlyph name="uacute" xMin="50" yMin="-7" xMax="346" yMax="688">
      <contour>
        <pt x="191" y="559" on="1"/>
        <pt x="158" y="589" on="1"/>
        <pt x="274" y="688" on="1"/>
        <pt x="325" y="641" on="1"/>
      </contour>
      <contour>
        <pt x="346" y="0" on="1"/>
        <pt x="289" y="0" on="1"/>
        <pt x="274" y="34" on="1"/>
        <pt x="259" y="30" on="0"/>
        <pt x="209" y="11" on="0"/>
        <pt x="175" y="1" on="0"/>
        <pt x="166" y="-1" on="1"/>
        <pt x="137" y="-7" on="0"/>
        <pt x="121" y="-7" on="1"/>
        <pt x="85" y="-7" on="0"/>
        <pt x="50" y="43" on="0"/>
        <pt x="50" y="83" on="1"/>
        <pt x="50" y="520" on="1"/>
        <pt x="130" y="520" on="1"/>
        <pt x="130" y="109" on="1"/>
        <pt x="130" y="74" on="0"/>
        <pt x="142" y="57" on="0"/>
        <pt x="160" y="57" on="0"/>
        <pt x="266" y="87" on="1"/>
        <pt x="266" y="520" on="1"/>
        <pt x="346" y="520" on="1"/>
      </contour>
    </TTGlyph>
    <TTGlyph name="ucircumflex" xMin="50" yMin="-7" xMax="346" yMax="701">
      <contour>
        <pt x="68" y="614" on="1"/>
        <pt x="182" y="701" on="1"/>
        <pt x="296" y="614" on="1"/>
        <pt x="247" y="576" on="1"/>
        <pt x="182" y="628" on="1"/>
        <pt x="117" y="576" on="1"/>
      </contour>
      <contour>
        <pt x="346" y="0" on="1"/>
        <pt x="289" y="0" on="1"/>
        <pt x="274" y="34" on="1"/>
        <pt x="259" y="30" on="0"/>
        <pt x="209" y="11" on="0"/>
        <pt x="175" y="1" on="0"/>
        <pt x="166" y="-1" on="1"/>
        <pt x="137" y="-7" on="0"/>
        <pt x="121" y="-7" on="1"/>
        <pt x="85" y="-7" on="0"/>
        <pt x="50" y="43" on="0"/>
        <pt x="50" y="83" on="1"/>
        <pt x="50" y="520" on="1"/>
        <pt x="130" y="520" on="1"/>
        <pt x="130" y="109" on="1"/>
        <pt x="130" y="74" on="0"/>
        <pt x="142" y="57" on="0"/>
        <pt x="160" y="57" on="0"/>
        <pt x="266" y="87" on="1"/>
        <pt x="266" y="520" on="1"/>
        <pt x="346" y="520" on="1"/>
      </contour>
    </TTGlyph>
    <TTGlyph name="udieresis" xMin="50" yMin="-7" xMax="346" yMax="679">
      <contour>
        <pt x="85" y="599" on="1"/>
        <pt x="85" y="679" on="1"/>
        <pt x="165" y="679" on="1"/>
        <pt x="165" y="599" on="1"/>
      </contour>
      <contour>
        <pt x="230" y="599" on="1"/>
        <pt x="230" y="679" on="1"/>
        <pt x="310" y="679" on="1"/>
        <pt x="310" y="599" on="1"/>
      </contour>
      <contour>
        <pt x="346" y="0" on="1"/>
        <pt x="289" y="0" on="1"/>
        <pt x="274" y="34" on="1"/>
        <pt x="259" y="30" on="0"/>
        <pt x="209" y="11" on="0"/>
        <pt x="175" y="1" on="0"/>
        <pt x="166" y="-1" on="1"/>
        <pt x="137" y="-7" on="0"/>
        <pt x="121" y="-7" on="1"/>
        <pt x="85" y="-7" on="0"/>
        <pt x="50" y="43" on="0"/>
        <pt x="50" y="83" on="1"/>
        <pt x="50" y="520" on="1"/>
        <pt x="130" y="520" on="1"/>
        <pt x="130" y="109" on="1"/>
        <pt x="130" y="74" on="0"/>
        <pt x="142" y="57" on="0"/>
        <pt x="160" y="57" on="0"/>
        <pt x="266" y="87" on="1"/>
        <pt x="266" y="520" on="1"/>
        <pt x="346" y="520" on="1"/>
      </contour>
    </TTGlyph>
</ttFont>
